<mxfile host="app.diagrams.net" agent="Mozilla/5.0 (Windows NT 10.0; Win64; x64; rv:137.0) Gecko/20100101 Firefox/137.0" version="26.2.12">
  <diagram name="Page-1" id="U5NrzFXAgHeZSVnIE7qF">
    <mxGraphModel dx="436" dy="316" grid="1" gridSize="10" guides="1" tooltips="1" connect="1" arrows="1" fold="1" page="1" pageScale="1" pageWidth="236" pageHeight="236" math="0" shadow="0">
      <root>
        <mxCell id="0" />
        <mxCell id="1" parent="0" />
        <mxCell id="hcz-sWbUcZqXMe1qP15K-1" value="" style="whiteSpace=wrap;html=1;fillColor=none;dashed=1;dashPattern=12 12;strokeWidth=0.7874;strokeColor=none;" parent="1" vertex="1">
          <mxGeometry width="236.22" height="236.22" as="geometry" />
        </mxCell>
        <mxCell id="AVs13AZFLNNJArJ95App-3" value="Esparte Bitcoinâš¡Lightning" style="text;whiteSpace=wrap;" parent="1" vertex="1">
          <mxGeometry x="45.4" y="10" width="148.89" height="20" as="geometry" />
        </mxCell>
        <UserObject label="esparte@bitnode.one" link="papeleria_orozco@bitnode.one" id="AVs13AZFLNNJArJ95App-4">
          <mxCell style="text;whiteSpace=wrap;" parent="1" vertex="1">
            <mxGeometry x="61.35" y="198.59" width="117" height="20" as="geometry" />
          </mxCell>
        </UserObject>
        <mxCell id="23QgoDXipCh8W4SFQ9q1-1" value="" style="shape=image;imageAspect=0;aspect=fixed;verticalLabelPosition=bottom;verticalAlign=top;image=data:image/png,iVBORw0KGgoAAAANSUhEUgAABIMAAASDCAIAAABlaWigAAAABmJLR0QA/wD/AP+gvaeTAAAgAElEQVR4nOzde3zU5Z33/zkkkyHnKILNSIGQcDBh4uK5tquStB6bUE6t5263td26KoLEewUVBLxLOHhYbbu/dtvtwdv7Ic5i4mrbXQJWoLJFqyEjikQjkhFF7ORAhmTCzNx/TH/ZFEhIvjPfz/Wda17PP5V839fnuq5Mrs8cvmOPxWI2AAAAAIAgh+oBAAAAAEDaoRMDAAAAAGl0YgAAAAAgjU4MAAAAAKTRiQEAAACANDoxAAAAAJBGJwYAAAAA0ujEAAAAAEAanRgAAAAASKMTAwAAAABpdGIAAAAAII1ODAAAAACk0YkBAAAAgDQ6MQAAAACQRicGAAAAANLoxAAAAABAGp0YAAAAAEijEwMAAAAAaXRiAAAAACCNTgwAAAAApNGJAQAAAIA0OjEAAAAAkEYnBgAAAADS6MQAAAAAQBqdGAAAAABIoxMDAAAAAGl0YgAAAAAgjU4MAAAAAKTRiQEAAACANDoxAAAAAJBGJwYAAAAA0ujEAAAAAEAanRgAAAAASKMTAwAAAABpdGIAAAAAII1ODAAAAACk0YkBAAAAgDQ6MQAAAACQRicGAAAAANLoxAAAAABAGp0YAAAAAEijEwMAAAAAaXRiAAAAACCNTgwAAAAApNGJAQAAAIA0OjEAAAAAkEYnBgAAAADS6MQAAAAAQBqdGAAAAABIoxMDAAAAAGl0YgAAAAAgjU4MAAAAAKTRiQEAAACANDoxAAAAAJBGJwYAAAAA0ujEAAAAAEAanRgAAAAASKMTAwAAAABpdGIAAAAAII1ODAAAAACk0YkBAAAAgDQ6MQAAAACQRicGAAAAANLoxAAAAABAGp0YAAAAAEijEwMAAAAAaXRiAAAAACCNTgwAAAAApNGJAQAAAIC0DNUDwOlFo9EjR44cPnz48OHDn3zyyWeffdbd3d3V1dXd3d3T09PX12ez2Y4dOxaJRFSPVI7T6RwzZozNZsvKysrJycnLy8vPz8/LyzvzzDPHjx8/bty4cePGjR071uHguQZYTiQS8fv9zc3Nra2tgUCgp6cnFAplZ2fn5uYWFxeXlpZWVlZWVFQ4nc5UCdIPUwdYB6egk3EK0oY9FoupHgNO1NfXt3///vfee+/AgQMffPDBhx9+GA6HVQ8q9bhcrs9//vOTJk2aOHHilClTysrKsrKyVA8KaS0YDDY2NjY1NXV0dAz/LwsLC6uqqmprawsLC60cpB+mDlCOU1BScApKCXRiVhEKhZqbm/1+/zvvvPP++++n1VM7MpxO55QpU6ZNm1ZRUVFZWZmdna16REgj4XDY5/P5fL5RnSdcLteCBQvmzp2bmZlptSD9MHWAQpyCzMYpyJroxBRra2vbvXv3G2+88c477/C4I8bpdE6fPn3WrFkXXnjhpEmTVA8HmgsEAvX19W1tbcZ+fMKECXV1dRMnTrROkH6YOkAJTkFKcAqyDjoxNT788MOdO3du3769vb1d9VjS3fjx4y+66KLLLrvs3HPPVT0WaMjv969evToUCiVyEbfbvWzZssrKSisE6YepA4RxCrIOTkFq0YmJCoVC27dv/81vfvP++++rHgtONGHChNmzZ3/5y1/Oz89XPRZooqWlZeXKlUn5hIPL5Vq5cmV5ebnaIP0wdYAYTkFWxilICToxIfv27XvxxRf/8Ic/8KlTi3O5XF/4wheuv/76qVOnqh4LUlt7e/u9996b4Cstg+Xk5Kxfv97j8agK0g9TB8jgFJQqOAUJoxMzVywW27179wsvvNDc3Kx6LBid0tLS66+//vLLL+dG1TAgHA4vWbLkwIEDyb3s5MmT169fP/jmEGJB+mHqALNxCkpdnIJkOFesWKF6DHqKRCLbtm37wQ9+8NJLL33yySeqh4NR+/Of/7xr167t27dnZ2dPnDjRbrerHhFSybPPPrtjx46kX7ajo8Plcg1+/5tYkH6YOsA8nIJSHacgGbwmlnyxWOwPf/jDr3/960AgoHosSI7x48fPnz//y1/+Ml+SiJEIBoPf+c53THoTTlZW1k9/+tOCggLJIP0wdYBJOAXph1OQeXhNLMn27NnzyCOPvPjii93d3arHgqTp6enZvXv3zp07zz777OLiYtXDgdU9++yzfr/fpItHIhGn0xm/R59YkH6YOsAMnIK0xCnIPLwmljQfffTRr371q507d6oeCMxVWVl5++23T5gwQfVAYFGRSORb3/pWMBg0L6KwsPDnP/+5zWaTCdLvQwJia6Tf1AFD4RSUJjgFJRcvMiZBJBLx+Xx33nknD0DpoLm5+a677vrFL37R39+veiywIr/fb+oR32azdXR07N27VyzI1AglmDogiTgFpRVOQclFJ5aovXv3siPTzcBfnZaWFtVjgeXI3CKsublZLEggRRhTByQLp6A0xCkoiTJUDyCFhcPhn//85y+99BLv8ExPH3300fLly6+//vrbbrvN5XKpHg6sYv/+/QIpra2tkUhEJkggRZjYGgmkAKpwCkpznIKSgk7MoAMHDmzYsOGDDz5QPRCoFIvFXnjhhTfffHPJkiUlJSWqhwNLOHTokEBKIBCQOf1oefczsTUSSAGU4BQEG6egZODdiaMWi8Wef/75e+65hwcgxB08eHDp0qWNjY2qBwJL6OrqEkjp7u4WCxJIEcbUAYZxCsIJOAUlgtfERufYsWNPPPEEn0nFCfr7+3/605+2tLTcc8892dnZqocDlUz6iqoT9Pb2CqRIBknSbI0AMZyCcEqcggzjNbFR+PDDDxcvXswDEIby3//93/fee+/BgwdVDwQqybxd3u12iwUJpAhj6gADOAVheJyCDKATG6k33nijrq6O9/1jeO3t7UuWLHnttddUDwTK5OfnC6Tk5eWJBQmkCGPqgNHiFISR4BQ0WnRiI/K73/3u4YcfDoVCqgeCFNDb27t69eoXX3xR9UCgRnFxsUCKx+MRCxJIEcbUAaPCKQgjxyloVOjETiMWi/3sZz976qmnZG4YDT1Eo9F/+Zd/+bd/+zfu7ZuGSktLBVLKysrEggRShDF1wAhxCoIBnIJGjk5sONFo9Mknn3z++edVDwQp6d///d8ff/xx/nqlm8rKSoEUr9crFiSQIoypA0aCUxASwSloJLh34pAikciGDRt27NiheiBIYVu3bu3v71+8eLHT6VQ9FgipqKgoKioKBoPmRRQVFZWXl8diMZkg866vitgamXd9wGycgpA4TkGnxWtipxaJRP73//7fPAAhcdu3b1+7di3PCaUPp9M5e/ZsUyOqq6sdDodYkKkRSjB1wPA4BSFZOAUNj78TpxCNRjdu3PjHP/5R9UCgiV27dtXX1/MwlD5qa2vNu0+62+2uqakRDtIPUwcMhVMQkotT0DCcK1asUD0Ga4nFYo899tgrr7yieiDQSnt7++HDhy+55BK73a56LDCd2+2ORqMtLS1mXPzGG2+cNWuWcJB+mDrglDgFwQycgobCa2In+vGPf/zyyy+rHgU0tG3btp/+9KeqRwEh8+bNmzx5ctIvW1JSMmfOHCVB+mHqgJNxCoJJOAWdEp3YX/H5fL/5zW9UjwLaeuGFFxoaGlSPAhIyMzPr6uqys7OTeM3c3Ny6urqMjL+605JYkH6YOuAEnIJgKk5BJ+Pdif9jx44dP/rRj1SPApp78803i4uLJ02apHogMF1+fv706dO3b9+elDfHu1yuBx98cMqUKQqD9MPUAQM4BUEAp6AT0In9xbvvvrtmzRo+TQgBr7/++qxZs8444wzVA4Hpxo0bV1lZuWvXrnA4nMh1cnJyHnrooWHuii4WpB+mDrBxCoIgTkGD2fn2a5vN1tHRsXjx4iNHjqgeCNLF2LFjH3300YKCAtUDgYRAILBu3br333/f2I+XlJTU1dUVFxdbJ0g/TB3SGacgCOMUNIDXxGyRSGT16tUffPCB6oEgjYRCoX379l155ZV841A6yM/Pr6qqcrlc+/btG9VTzm63+8Ybb7zrrrtG+OdKLEg/TB3SFqcgyOMUNIDXxGw/+9nPnn/+edWjQDqaN2/ebbfdpnoUkNPZ2dnQ0NDU1BQMBof/l0VFRdXV1TU1NcbO92JB+mHqkG44BUEVTkE2OrE33nhjxYoVaT4JUMVutz/88MOVlZWqBwJR0WjU7/fv2bOntbW1vb396NGjoVAoOzs7Ly/P4/GUlZV5vd7y8vLEnykUC9IPU4c0wSkICnEKstlsaX2n3c7Ozscee4wHIKgSi8UeffTRJ554Ij8/X/VYrCsSifj9/ubm5tbW1kAg0NPTEz8T5+bmFhcXl5aWVlZWVlRUOJ3OVAmKxWKxWCwajUaj0cGPP/H/GIlETvjv1g8SI7ZGDofD6/V6vd6kDHsY+m1vsSAkjlMQ1OIUZEvz18RWrVq1e/du1aNIyJgxY9xud1ZWVm5urtvtTpO/bZFIpLe39+jRo319fb29vceOHVM9ooRccskl999/v+pRWFEwGGxsbGxqauro6Bj+XxYWFlZVVdXW1hYWFhIkGSSGiqy/GfRbI+1xCkpRnIJ0kr6d2Msvv7xx40bVoxid4uLiqVOnnnPOOcXFxcXFxR6PJysrS/Wg1Ovr6wsEAh999FEgEAgEAvv27Tt06JDqQY3O0qVLv/SlL6kehYWEw2Gfz+fz+UZ1Y3GXy7VgwYK5c+dmZmYSZHaQGCqKs/Jm0G+N0gGnIG1wCkppadqJdXZ23nHHHV1dXaoHcnpnnXXWeeedN3PmzJkzZ5555pmqh5Majhw50tLS0tLS8uabb6bEbXkLCgqeeuqpdH51frBAIFBfX9/W1mbsxydMmFBXVzdx4kSCzAsSQ0UnsOBm0G+N0gGnIL1xCkohadqJrVu3bvv27apHMZycnJzLLrvsyiuvPPfcc+12u+rhpKpYLPbWW2+9/PLLO3fu7OnpUT2c4VxxxRWLFy9WPQr1/H7/6tWrQ6FQIhdxu93Lli0b/kPABBkOEkNFp2SpzaDfGqUJTkFpglOQ9aXj94k1Nzf/27/9m+pRDGnq1Knf/va3//Ef//HSSy8dN24cD0CJsNvt48aNu+iii2pqaiZNmnT48OE///nPqgd1ah988MHMmTPHjRuneiAqtbS0rFy5sre3N8HrHD9+fOfOneXl5UPNJ0GGg8RQ0VCssxn0W6M0wSkofXAKsr60e00sEoksWrTowIEDqgdyCjNmzJg3b95FF12keiA627t3r8/ne+211yy48z//+c8//vjjafKB45O1t7ffe++9CT65PlhOTs769es9Hg9ByQoSQ0WnpXwz6LdGaYJTUJrjFGQ1afea2EsvvbR161bVozjRjBkz/umf/unrX/86f4TMdtZZZ11++eXnn3/+hx9+aLU3T3d2dp5xxhllZWWqB6JAOBx+8MEHk7si/f39e/fura6uHvywTpDhIDFUNBLsOhjDKSjNcQqymvTqxHp6eh555JFR3dzJbEVFRd/73ve+853v8DlUSWeeeWZ1dfX48eP37duX+Ftrkujdd9+9+uqr0/BOYs8+++yOHTuSftmOjg6Xy1VeXk5Q4kFiqGiE2HUYLU5BiOMUZB0O1QMQtXnz5qNHj6oexV/Y7fbrr7/+Rz/60ezZs3kbtDy73V5VVfXjH//4uuuus878d3V1NTQ0qB6FtGAw6PP5TLr4pk2bOjs7CUowSAwVjQq7DqPCKQgDOAVZRBp1Yl1dXS+88ILqUfxFQUHBAw88cPvtt2dnZ6seS1rLzs7+7ne/u3LlyqKiItVj+YvNmzen20GksbHRvOdo+/r6Bh7WCTIcJIaKRoVdh5HjFISTcQpSLo06sU2bNlnka8grKyufeOKJCy64QPVA8BfnnXfexo0bZ86cqXogNpvN1tvbu3nzZtWjkBOJRMz+0MKWLVsikQhBhoNMjRiMigxg12GEOAVhKJyCFEqXTqyrq+u3v/2t6lHYbDbb/PnzH374Yes894C4M888c9WqVV/72tdUD8Rms9leeukl67yBxGx+vz8YDJoa0dHRsXfvXoIMB5kaMRgVGcCuw0hwCsLwOAWpki6d2IsvvtjX16d2DHa7/Vvf+tatt95qnffjYjCHw/F3f/d3t99+u/IF6u3t/c1vfqN2DGKam5tlUggyHCSQIpmlZUX6BQmkpBVOQTgtTkFKZKgegIRwOKz8qaDMzMxFixZ96UtfUjsMnNb1119/5plnbtiwQe3dpRobG2tra10ul8IxyNi/f79ASmtrq8z7nbQMEkiJE9sMAilxbG/DQQIp6YNTEEaOU5CwtHhNbNu2bWa/m2J4mZmZDz74IA9AqeLSSy9dvny52puodnZ2/v73v1c4ADGHDh0SSAkEAgQZDhJIiaMiY9h1GB6nIIwKpyBJadGJqX0qyOFwLF68uLKyUuEYMFrnnXdeXV2d2i8YTZOX5ru6ugRSuru7CTIcJJASR0XGsOswPE5BGC1OQWL078Tefffd9957T1W63W6/4447LrvsMlUDgGEXX3zxXXfdpfDd0q2trQq3rhiZ9z/09vYSZDhIICWOioxh12EYnIJgDKcgGfp3Yr/73e8Upt92221f/vKXFQ4AibjyyitvueUWhQNQu3tlyLwL3O12E2Q4SCAljoqMYddhGJyCYBinIAGad2K9vb3bt29XlX7ppZda5H6gMGzevHkXX3yxqvRXXnlF7UdmBeTn5wuk5OXlEWQ4SCAljoqMYddhKJyCkCBOQWbTvBPbvXu3qjc5fO5zn7v77ruV3wkUCbLb7YsWLTr77LOVpIdCoddee01JtJji4mKBFI/HQ5DhIIGUOCoyhl2HoXAKQoI4BZlN805M1VNBLperrq4uOztbSTqSKycn5/7771d1K1WFT2fKKC0tFUgpKysjyHCQQEocFRnDrsNQOAUhcZyCTKVzJxYKhf70pz8pib7pppumTJmiJBpmmDRp0je+8Q0l0bt37w6FQkqiZcjcUMvr9RJkOEggJY6KjGHX4ZQ4BSFZOAWZR+dO7PXXX1fy7tJJkybV1NTI58JUX/va1yZOnCifGw6H33jjDflcMRUVFUVFRaZGFBUVlZeXE2Q4yNSIwajIAHYdhsIpCEnEKcgkOndiSt5aarfbv//976v9BgaYwel03nnnnUre8v7666/Lh4pxOp2zZ882NaK6utrhcBBkOMjUiMGoyAB2HYbCKQhJxCnIJNo+2MViMSUvyl911VXTp0+Xz4WAqVOnKrkb7+uvvx6LxeRzxdTW1pr3BnS32z3w7CxBhoPEUNGosOswFE5BSDpOQWbQthPbv39/Z2encKjL5VL1PlrIuOmmm+Q/tBoMBtva2oRDJRUWFs6fP9+kiy9cuLCgoICgBIPEUNGosOswFE5BMAOnoKTTthPbs2ePfOhXvvKVM844Qz4XYoqKiqqrq+Vz33zzTflQSfPmzZs8eXLSL1tSUjJnzhyCkhIkhopGiF2HYXAKghk4BSWdtp3Y3r17hRMzMjL4E5IO5s+fn5GRIRz69ttvCycKy8zMTPotj3Nzc+vq6k5YLIIMB4mhopFg12F4nIJgEk5ByaVnJxaLxd555x3h0Orq6nHjxgmHQt7YsWPN/sD6yfbu3avxm6TjPB7P8uXLk/W2B5fLtWzZslN+Cy1BhoPEUNHwrLAZ9FsjnXAKgnk4BSWXnp3Yhx9+ePToUeHQa665RjgRqlx77bXCid3d3e3t7cKh8ioqKtasWZOXl5fgdXJyclauXDnMjbAJMhwkhoqGYp3NoN8aaYNTEEzFKSiJ9OzE9u/fL5xYUlJixpvmYU1Klvvdd98VTlRi2rRp9fX1JSUlhq9QUlKyYcOG057qCDIcJIaKTma1zaDfGumBUxBMxSkoiZwrVqxQPYbk27Jli/CCzZ8/f9q0aZKJUEv+qwbPPvvsWbNmSSaqkp+fX1VV5XK59u3bF4lERv6Dbrf7xhtvvOuuu0Z47zWCDAeJoaIBlt0M+q2RBjgFwWycgpLFruXbLu+//36/3y8Wl5GR8fOf/5y/JWmls7Pzm9/85qiOHQmqrKxctWqVWJwVdHZ2NjQ0NDU1BYPB4f9l/G5ONTU1xn4NCTIcJIaKrL8Z9Fuj1MUpCGbjFJQsenZiN954o+Q7pHXdHBjesmXLWlpaxOLy8/N//etfi8VZRzQa9fv9e/bsaW1tbW9vP3r0aCgUys7OzsvL83g8ZWVlXq+3vLzc4Uj0vdYEWR8VEYSR4BQEAZyCkkLD28UGg0HhD6pWVlZKxo3a8b7Iod2Rj1+PBd+L/rk1Fvok1tcV6w/ZImHVIxvE6bJnZtuz8u054x1FpfaiKc7PXeA8+wJbRpbqkQ2psrJS8jGoq6urq6srPz9fLNEiHA6H1+v1er1mB8VisVgsFo1Go9Ho4Keo4v8xEomc8N8NE6tILEiM2BqJYdcZFolE/H5/c3Nza2trIBDo6emJt3y5ubnFxcWlpaWVlZUVFRVOp9PskVgNp6ATcQoyB6egpNDwNbF33nmnrq5OMnHDhg1lZWWSiSMR6+04vr/x+L7nI4f+aDvep3o4hmRkOYsvzpj2tYyyr9qzLPe2h3379i1dulQycePGjaWlpZKJaSIYDDY2NjY1NXV0dAz/LwsLC6uqqmprawsLC2XGhjj91ki/isQwdcPjFBTHKchsnIKSQsNO7JVXXlm/fr1YXE5OztNPP22pN1pEj+wN7/7n4/sbrfV8TyIysjLKalwX3OkYO0P1UP5HNBq96aabenp6xBLvu+++yy67TCwuHYTDYZ/P5/P5wuFR/LK4XK4FCxbMnTs3MzPTvLEhTr810q8iMUzdSHAK4hQkg1NQUljoNydZDh8+LBl37rnnWucBKPrZvt6Gm0K/uuL4O8/p8wBks9mO9x1/e1PoV5f3Nt4S/bP0zXmH4nA4ZswQfUz8+OOPJeO0FwgEli5d+swzz4zqVGez2cLh8NNPP71o0aIDBw6YNDbE6bdG+lUkhqkbIU5BnIJkcApKCqv88iTRp59+Khk3YcIEybihxPp7+l5ZEfr1lcff/0+bTbfXOf9/sePv/Tb06yvCO1bF+kOqB2Ozia/+kSNHJOP05vf7lyxZ0tbWZvgKBw8eXLp0aXNzcxJHhcH0WyP9KhLD1I0cpyBOQWI4BSVOw06sq6tLMu6cc86RjDul6OE9x349u//1p2zRftVjMV8kHN79xLGnZ0c/lbtF71A8Ho9knPDe1lhLS8uKFStCoUT/kvX29q5ateqtt95KyqgwmH5rpF9FYpi6UeEUpDlOQXqhE0uU8seg/j2/CP3fa6Id76sdhrBo8L3Q/72636/4fqbCq6/lY5C89vb2NWvWjPYNTkMJh8OrV68OBAJJuRri9Fsj/SoSw9SNFqegdMApSBt0YokSfj7gr8XCr9b3Nd2r1ZuhR+54X99/3dP38v0K34cg/Lq8lo9BwsLh8Nq1axN/cn2wnp6e+vr6/v40eC5WhH5rpF9FYpg6AzgFpQtOQVrQsBOTvIuLy+XKy8sTi/trsb4t94Z3rVOUbhX9b/ykr2mpqoehvLw8yZtxCX9FjJZ8Pp8Zn9pva2vbvHlz0i+bnvRbI/0qEsPUGcApKK1wCkp1GnZiyXoPw0iMGTNGLOsE4e0P97f8UlW6pfTv+UXfy8tUpUvuAcm9raVgMOjz+Uy6+KZNmzo7O026ePrQb430q0gMU2cMp6B0wykopWnYiUm+5UDVY1D/n34cfu1JJdHW1P/GT/rf+ImSaMk9oPHbaWQ0Njaa9zje19fX0NBg0sXTh35rpF9FYpg6YzgFpSFOQalLw07s+PHjYlnZ2dliWQMih17r27FKPtfi+l55KPLRH+VzJfeA5N7WTyQS2bp1q6kRW7ZsiUQipkboTb810q8iMUydYZyC0hOnoBRFJ5YQ+WeDYr3B3v/4+zT9cOrwov29L90e6+0QjpV8DNLy2SAxfr8/GAyaGtHR0bF3715TI/Sm3xrpV5EYps4wTkFpilNQatKwE4vF5D62KP+98uEdq2JHPxIOTRWx7kD4D48Ih0ruAcm9rR+Zb3RNh++NNY9+a6RfRWKYOsM4BaUtTkGpSMNOTGORj3b3+59WPQpL69/zi8jHr6seBaxo//79Aimtra0CKbrSb430q0gMU4eTcQo6LU5BKYdOLJWEd6y0xaKqR2FtsWh4+8OqBwErOnTokECK3t8Yazb91ki/isQwdTgZp6DT4xSUaujEUkbk4PZI4L9VjyIFRNr/EAm8qnoUsByZb4Ts7u4WSNGVfmukX0VimDqcgFPQCHEKSi10YikjvPufVQ8hZYT/+JjqIcByZL6HpLe3VyBFV/qtkX4ViWHqcAJOQSPHKSiF0ImlhljXwciHv1c9ipQROfByrJv3nOCvuFwugRS32y2Qoiv91ki/isQwdRiMU9CocApKIXRiqaH/7Wd5b/QoxKL97zynehCwlvz8fIGUvLw8gRRd6bdG+lUkhqnDYJyCRodTUOqgE0sNx/f/h+ohpBhmDCcoLi4WSPF4PAIputJvjfSrSAxTh8H4mz5azFiqoBNLAbHeP0ePaPjtk6aKHm6J9Zr7raBILaWlpQIpZWVlAim60m+N9KtIDFOHAZyCDOAUlCroxFJA5OBOXpQftVgk0r5T9SBgIZWVlQIpXq9XIEVX+q2RfhWJYeowgFOQEZyCUgSdWAqIftqieggpKfrpW6qHAAupqKgoKioyNaKoqKi8vNzUCL3pt0b6VSSGqcMATkHGcApKCXRiKSD65/2qh5CSmDcM5nQ6Z8+ebWpEdXW1w8GDqnH6rZF+FYlh6jCAv+bGMG8pgcegFBANvqd6CCkpGmxVPQRYS21trXm3xna73TU1NSZdPH3ot0b6VSSGqUMcpyBjOAWlBDqxFMBnLo2JHWPe8FcKCwvnz59v0sUXLlxYUFBg0sXTh35rpF9FYpg6xHEKMoZTUEqgE0sF4aOqR5Ca+pk3nGjevHmTJ09O+mVLSkrmzJmT9MumJ/3WSL+KxDB1sNk4BQ+eWD0AACAASURBVBnFKSgV0ImlgFh/SPUQUlKMx26cJDMzs66uLjs7O4nXzM3Nraury8jISOI105l+a6RfRWKYOtg4BRnFKSgl0ImlAm7eagzzhlPxeDzLly9P1udPXC7XsmXLZL6FNn3ot0b6VSSGqQN/zQ1i3lIBnRiAtFNRUbFmzZq8vLwEr5OTk7Ny5UpuhG0G/dZIv4rEMHUAdEUnBiAdTZs2rb6+vqSkxPAVSkpKNmzYwKnOPPqtkX4ViWHqAGiJTgxAmvJ4POvWrbv55puzsrJG9YNut/vWW29dv34973Eym35rpF9FYpg6APrhE6sA0ldmZubChQuvuuqqhoaGpqamYPA09/wtKiqqrq6uqanh/tdi9Fsj/SoSw9QB0AydGIB0V1BQcOutt958881+v3/Pnj2tra3t7e1Hjx4NhULZ2dl5eXkej6esrMzr9ZaXlzscvJVAAf3WSL+KxDB1ALRBJwbA0iKRiN/vb25ubm1tDQQCPT098fNWbm5ucXFxaWlpZWVlRUWF0+lMMMjhcHi9Xq/Xm5RhD0OsIv2C9Fsj/SoSw9QB0IA9FoupHkOS1dTUiGXNnDlzzZo1ZqccffQssyN0lXvPp2ZHLFu2rKWlxeyUAY2NjWJZygWDwcbGxqampo6OjuH/ZWFhYVVVVW1tbWFhoczYjBGrSL8gMVRk/YrEpOjUcQrCAE5B1kcnlhAegyyOx6AUFQ6HfT6fz+cLh8Mj/ymXy7VgwYK5c+dmZmaaNzZjxCrSL0gMFcVZuSIxKT11nIIwgFOQ9fH+aQDWEggEli5d+swzz4zqDGSz2cLh8NNPP71o0aIDBw6YNDZjxCrSL0gMFQ2wbEVimDoAYujEAFiI3+9fsmRJW1ub4SscPHhw6dKlzc3NSRxVIsQq0i9IDBWdzGoViWHqAEiiEwNgFS0tLStWrAiFQglep7e3d9WqVW+99VZSRpUIsYr0CxJDRUOxTkVimDoAwujEAFhCe3v7mjVrRvt2oKGEw+HVq1cHAoGkXM0YsYr0CxJDRcOzQkVimDoA8ujEAKgXDofXrl2b+FPRg/X09NTX1/f39yfxmiMnVpF+QWKoaCTUViSGqQOgBJ0YAPV8Pp8Zn3Fva2vbvHlz0i87EmIV6RckhopGSGFFYpg6AErQiQFQLBgM+nw+ky6+adOmzs5Oky4+FLGK9AsSQ0WjoqQiMUwdAFXoxAAo1tjYmKzPZpysr6+voaHBpIsPRawi/YLEUNGoKKlIDFMHQBU6MQAqRSKRrVu3mhqxZcuWSCRiasRgYhXpF2RqxGBUZIBwRWKYOgAK0YkBUMnv9weDQVMjOjo69u7da2rEYGIV6RdkasRgVGSAcEVimDoACtGJAVBJ5vtPJb9lVawi/YIEUiSzqCglMHUAFMpQPQAAaW3//v0CKa2trQIpcWIVybzfSTJIICWOXWeMZEVimDoACtGJAVDp0KFDAimS368qVlEsFtMsSCAljl1njJbfU8zUAVCITgyASl1dXQIp3d3dAilxYhVFo1HNggRS4th1xkhWJIapA6AQnRgAlcy7efRgvb29AilxmlWkX5BNuzWy6ViRGKYOgELcsQOASi6XSyDF7XYLpMSJVaRfkEBKHBUZI1mRGKYOgEJ0YgBUys/PF0jJy8sTSIkTq0i/IIGUOCoyRrIiMUwdAIXoxACoVFxcLJDi8XgEUuLEKtIvSCAljoqMkaxIDFMHQCE6MQAqlZaWCqSUlZUJpMSJVaRfkEBKHBUZI1mRGKYOgEJ0YgBUqqysFEjxer0CKXFiFekXJJASR0XGSFYkhqkDoBCdGACVKioqioqKTI0oKioqLy83NWIwsYr0CzI1YjAqMkC4IjFMHQCF6MQAqOR0OmfPnm1qRHV1tcMh91gnVpF+QaZGDEZFBghXJIapA6AQDw0AFKutrTXvRtJut7umpsakiw9FrCL9gsRQ0agoqUgMUwdAFToxAIoVFhbOnz/fpIsvXLiwoKDApIsPRawi/YLEUNGoKKlIDFMHQBU6MQDqzZs3b/LkyUm/bElJyZw5c5J+2ZEQq0i/IDFUNEIKKxLD1AFQgk4MgHqZmZl1dXXZ2dlJvGZubm5dXV1GRkYSrzlyYhXpFySGikZCbUVimDoAStCJAbAEj8ezfPnyZH1aw+VyLVu2TOY7W4ciVpF+QWKoaHhWqEgMUwdAHp0YAKuoqKhYs2ZNXl5egtfJyclZuXKlFW4bLVaRfkFiqGgo1qlIDFMHQBidGAALmTZtWn19fUlJieErlJSUbNiwwTpnILGK9AsSQ0Uns1pFYpg6AJLoxABYi8fjWbdu3c0335yVlTWqH3S73bfeeuv69eut9o4gsYr0CxJDRQMsW5EYpg6AGD5ICsByMjMzFy5ceNVVVzU0NDQ1NQWDweH/fVFRUXV1dU1NjWXvFi1WkX5BYqjI+hWJYeoAyLDHYjHVY0gyya9QnDlz5po1a8xOOfroWWZH6Cr3nk/Njli2bFlLS4vZKQMaGxvFsiwiGo36/f49e/a0tra2t7cfPXo0FAplZ2fn5eV5PJ6ysjKv11teXu5wpMwr/GIV6RckhoowIOWmjlMQBnAKsj5eEwNgRCQS8fv9zc3Nra2tgUCgp6cnfjrJzc0tLi4uLS2trKysqKhwOp0JBsVisVgsFo1Go9Ho4GeO4v8xEomc8N8NE6vI4XB4vV6v15v4mNMtSL810q8iMUwdAA3QiQEYnWAw2NjY2NTU1NHRccL/CoVCoVDo8OHDb7755nPPPVdYWFhVVVVbW1tYWEgQEqHfGulXkRimDoA26MQAjFQ4HPb5fD6fLxwOj+Tfd3R0+Hy+F154YcGCBXPnzs3MzEzbIBim3xrpV5EYpg6AZqzytmYAFhcIBJYuXfrMM8+M8Aw0IBwOP/3004sWLTpw4EB6BsEw/dZIv4rEMHUA9EMnBuD0/H7/kiVL2traDF/h4MGDS5cubW5uTrcgGKbfGulXkRimDoCW6MQAnEZLS8uKFStCoVCC1+nt7V21atVbb72VPkEwTL810q8iMUwdAF3RiaUCO8sEZdrb29esWTPatwMNJRwOr169OhAIpEMQDNNvjfSrSAxTBxjE6TEVsEgpwJ6ZrXoISFPhcHjt2rWJPxU9WE9PT319fX9/v95BMEy/NdKvIjFMHWCY3ZWregg4PTqxVMDvEhTx+XxmfMa9ra1t8+bNegfBMP3WSL+KxDB1gHGuPNUjwOnRiaUAu/sM1UNAOgoGgz6fz6SLb9q0qbOzU9cgGKbfGulXkRimDkiE3V2kegg4PTqxFOAomqJ6CEhHjY2Nyfpsxsn6+voaGhp0DYJh+q2RfhWJYeqARDjOKFU9BJwenVgKcJxRpnoISDuRSGTr1q2mRmzZsiUSiegXZGqE3vRbI/0qEsPUAQlyFHF6TAF0YinAMW6m6iEg7fj9/mAwaGpER0fH3r179QsyNUJv+q2RfhWJYeqABDnGVageAk6PTiwFOM+5jFuRQpjM9582NzfrFySQoiv91ki/isQwdUBC7E6n5wuqB4HTy1A9AJye3V3kGDcz+gl/MCBn//79Aimtra0y7w6SDBJI0ZXYrhNIidOvIjFMHZAI5/jz7O5C1aPA6dGJpYaM0uvDdGIQdOjQIYGUQCAQi8U0CxJI0ZXYrhNIidOvIjFMHZCIjKlfVT0EjAjveUsNmed+3WZ3qh4F0khXV5dASnd3t35BAim60m+N9KtIDFMHGGd3Zkybq3oQGBE6sdRgz/2cc9KVqkeBNGLezaMH6+3t1S9IIEVX+q2RfhWJYeoAwzImV9lzP6d6FBgROrGU4bposeohII24XC6BFLfbrV+QQIqu9Fsj/SoSw9QBhmVecJfqIWCk6MRShrP4Quc5l6keBdJFfn6+QEpeXp5+QQIputJvjfSrSAxTBxjjnHiF03Ox6lFgpOjEUknW367g02KQUVxcLJDi8Xj0CxJI0ZV+a6RfRWKYOsAIuzPriw+oHgRGgU4slTjGn5dZ+XeqR4G0UFpaKpBSVlamX5BAiq70WyP9KhLD1AEGZP7Ntx3jvKpHgVHQsBOz2+1iWTLfUDSY67L7HQWfFw5FGqqsrBRI8Xq9+gUJpOhKvzXSryIxTB0wWo6Cia5L7xMOlTwJS57wxWjYiWVkyH1J2rFjx8Sy4uyuPPdXf2nL4EPGMFdFRUVRUZGpEUVFReXl5foFmRqhN/3WSL+KxDB1wOg4Xe7r/tXukv7oYygUEsvKzMwUyxKjYScmuU7ynZjNZnOcVZ51xRr5XKQVp9M5e/ZsUyOqq6sdDod+QaZG6E2/NdKvIjFMHTAqWbPXOsZLvJJ8AsmTMJ1YatD7NbG4zJm3ui5ZqiQa6aO2tta8G0m73e6amhpdg2CYfmukX0VimDpghFxf+F+ZFTcriZZ8TUzyhC9Gw05M5ktI4lR1YjabzXVpXeas76pKRzooLCycP3++SRdfuHBhQUGBrkEwTL810q8iMUwdMBKZs77nuniJqnTJk3BWVpZYlhgNOzHJrwcJh8NdXV1icSfIunx11hVrbDYNP78Ii5g3b97kyZOTftmSkpI5c+boHQTD9Fsj/SoSw9QBw7K7LlmadfkqVfEdHR3Hjx8Xi9PyCwA17MRkvg5yQHt7u2TcCTL/5nb3NT+0Z2YrHAM0lpmZWVdXl52dzA2Wm5tbV1d3wnsM9AuCYfqtkX4ViWHqgKHYM3Pc1/7YdWmdwjEIn4GFT/gy6MQSpbYTs9lsGdPnj7mpyXFWhdphQFcej2f58uXJetOvy+VatmzZKb+zVb8gGKbfGulXkRimDjiZ48zpY77xm4xpc9UOg04scXRiiVLeidlsNkdRafY3fuv6wv/i7vYwQ0VFxZo1axJ/V0BOTs7KlSuHuW20fkEwTL810q8iMUwd8D8yxri+cH/2TU2OsTNUD8UWCAQk43h3YmoYO3asZNyHH34oGTekjCzXxUuyb/tDxvR5NrtT9Wigm2nTptXX15eUlBi+QklJyYYNG057BtIvCIbpt0b6VSSGqQNsjoyMGQtybtvpuvgem1Pu7nTDED4Dn3XWWZJxMpwrVqxQPYYk++yzz/7whz+IxXV0dMydO9ci30lizyrIKLs+Y/p8WzQcC75ni4RVj0gxgfdPb9269fDhw2anDLjhhhvEsk6Qn59fVVXlcrn27dsXiURG/oNut/vGG2+86667RninMv2CYJh+a6RfRWKYuhF65plnxLLGjx9fVVVldkp41zqzIyzO7srLLL/Rfe3/l1lxkz3LKtv4+PHj//Iv/yJ5x46rr756woQJYnEyNPzE6vjx4yXjjh07tn///unTp0uGDs9ROCmran3W5auPv/fS8X0Nkfadsb5O1YOCDjIzMxcuXHjVVVc1NDQ0NTUFg8Hh/31RUVF1dXVNTc1oD0D6BcEw/dZIv4rEMHVIK3Z3ofOcyzKmzsmYcrUFP36yb9++3t5eyUThE74MeywWUz2GJOvs7LzlllskE2+88cZvfOMbkomjE4tED7dEPn49+ufWaPC92NGPbf1HY+FuI1fq7bTZUmnD5N7zqdkRy5Yta2lpMTtlQGNjo1jW8KLRqN/v37NnT2tra3t7+9GjR0OhUHZ2dl5ensfjKSsr83q95eXlib9crF8QDNNvjfSrSAxTNxTJb6yeOXPmmjVrzE45+mhqvSfNbncb6fztrjxbZq4992xH0RTHGWXOs893jKuw8udNnnnmGckXYG022//5P/8nNzdXMlGAhq+JFRQUFBQUdHbKvQrU3Nxs6U7M7nSMP88x/jzV44BWHA6H1+v1er1mB8VisVgsFo1Go9Ho4GeO4v8xEomc8N8NE6soEon4/f7m5ubW1tZAINDT0xM/Qebm5hYXF5eWllZWVlZUVDidif4BFgsSo98a6VeRWJDYI4N+v0cpR+BJVRjQ3NwsGVdUVKRfG2bT8jUxm832wAMPSO4Ph8Pxs5/97IwzzhBLhHWk7WtiAoLBYGNjY1NTU0dHx/D/srCwsKqqqra2trCwUGZsxohVpN/UidFv6vTbdfoFJZd+r4nBgj777LO///u/j0ajYomzZs3S794WNl07sZ/97GfPP/+8ZOI3v/nNuXMVf6sDlKATM0M4HPb5fD6fLxwexV1nXC7XggUL5s6dm5mZad7YjBGrSL+pE6Pf1Om36/QLMgOdGAQ899xzv/zlLyUT586d+81vflMyUYaG90602WzBYHDXrl2SiZ999tl1110nmQiLSJ97J4oJBAIrVqzYvn37qG6PZrPZIpFIS0vLq6++WlFRYYVnpgeIVaTf1InRb+r023X6BZlEv3snwoKefPLJrq4uycRrrrlm0qRJkoky9Pwk69SpU4UTDx48uH//fuFQQD9+v3/JkiVtbW2Gr3Dw4MGlS5cKv399GGIV6Td1YvSbOv12nX5BQOrat29fe3u7cKj82V6Gnp2Yx+PJz88XDn3xxReFEwHNtLS0rFixIhQKJXid3t7eVatWvfXWW0kZVSLEKtJv6sToN3X67Tr9goCU9tJLLwknFhQUfO5znxMOlaFnJ2a322fMmCEc+vLLL3/00UfCoYA22tvb16xZM6pPZQwjHA6vXr06EAgk5WrGiFWk39SJ0W/q9Nt1+gUBKe3jjz9+5ZVXhEPLy8vtdrtwqAw9OzGbzXbuuecKJ0ajUZ/PJxwK6CEcDq9duzbxp6IH6+npqa+v7+/vT+I1R06sIv2mTox+U6ffrtMvCEh1zz777Gg/Qpk4+VO9GG07scrKSvnQrVu3fvLJJ/K5QKrz+XwHDhxI+mXb2to2b96c9MuOhFhF+k2dGP2mTr9dp18QkNIOHz68bds2+Vwlp3oZ2nZikydPlv+Cr0gk8utf/1o4FEh1wWDQvNeTN23aJPk973FiFek3dWL0mzr9dp1+QUCq+8UvfiH/gtjYsWMnTpwoHCpG207MbrfPmjVLPvf3v/89d0wCRqWxsTFZn804WV9fX0NDg0kXH4pYRfpNnRj9pk6/XadfEJDS3njjje3bt8vnnn/++fKhYrTtxGw22wUXXKAk90c/+pF5j+mAZiKRyNatW02N2LJli+RzeGIV6Td1YvSbOv12nX5BpkYAZguHwz/+8Y+VRNOJpapZs2a53W753I8++ui5556TzwVSkd/vDwaDpkZ0dHTs3bvX1IjBxCrSb+rE6Dd1+u06/YJMjQDMtmnTpkOHDsnnut3uv/mbv5HPFaNzJ+Z2uy+88EIl0Zs2beKLRICRkHk3r+R7hsUq0m/qxOg3dfrtOv2CBFIAk7zzzjuqXmO45JJLsrKylETL0LkTs9lsX/ziF5XkRiKR+vp6s59mAzSwf/9+gZTW1laBlDixivSbOjH6TZ1+u06/IIEUwAydnZ1r165V9Q7bL33pS0pyxWjeiZ1//vnZ2dlKooPB4KOPPhqLxZSkA6lC5t0Okt+vKlaRflMnRr+p02/X6RckkAIkXTQaXb9+/WeffaYkPS8vT++3Jtq078RcLtcVV1yhKv3NN9/81a9+pSodSAldXV0CKd3d3QIpcWIV6Td1YvSbOv12nX5BAilA0v3yl79U+N7aK664IiMjQ1W6DM07MZvNdvXVVytMf+65555//nmFAwAsTuZGo729vQIpcWIV6Td1YvSbOv12nX5BAilAcv3Hf/zHv//7vyscwFe+8hWF6TL078QmTZo0depUhQP4+c9//l//9V8KBwBYmcvlEkiRvI2qWEX6TZ0Y/aZOv12nX5BACpBE27Zt+8lPfqJwADNmzND4C50H6N+J2Wy2a6+9VmF6LBb74Q9/+OqrryocA2BZ+fn5Ail5eXkCKXFiFek3dWL0mzr9dp1+QQIpQLK8+uqrTzzxhNqbHVxzzTUK08WkRSd2+eWXjx07VuEAIpHI2rVrf/vb3yocA2BNxcXFAikej0cgJU6sIv2mTox+U6ffrtMvSCAFSIqmpqb6+nq1X0c+duxYVfc/F5YWnZjT6bz++uvVjiEajf7whz/8xS9+oXYYgNWUlpYKpJSVlQmkxIlVpN/UidFv6vTbdfoFCaQAifP5fI8//rjaNsxms9XW1mp/r464tOjEbDbb1Vdfrep29oP5fL4nn3zy+PHjqgcCWEVlZaVAitfrFUiJE6tIv6kTo9/U6bfr9AsSSAES0d/f/8QTT1jhNYPc3Nx0uFdHXLp0YtnZ2cpfFov7z//8z7q6uo8//lj1QABLqKioKCoqMjWiqKiovLzc1IjBxCrSb+rE6Dd1+u06/YJMjQAS9NFHH9XV1W3ZskX1QGw2m+2rX/3qmDFjVI9CSLp0Yjab7Wtf+5pFPjLb2tp69913v/zyy6oHAqjndDpnz55takR1dbXDIfdYJ1aRflMnRr+p02/X6RdkagSQiJ07dy5ZsuS9995TPRCbzWbLy8urra1VPQo5afTQkJOTY52lPXbs2MaNGzdu3NjR0aF6LIBitbW15t1I2u1219TUmHTxoYhVpN/UidFv6vTbdfoFAVYTDAY3bNiwdu3anp4e1WP5i3nz5lnh80Ri0qgTs9lsNTU1hYWFqkfxP15++eXvfe97L7zwgvJPRgIKFRYWzp8/36SLL1y4sKCgwKSLD0WsIv2mTox+U6ffrtMvCLCOSCTS0NDwD//wD7///e9Vj+V/FBUVXXfddapHISq9OjG3233LLbeoHsVfCYVCP/nJTxYtWvTGG2+oHgugzLx58yZPnpz0y5aUlMyZMyfplx0JsYr0mzox+k2dfrtOvyDACv70pz/dfffd//qv/xoKhVSP5a/cdtttWVlZqkchKr06MZvNVl1dPXXqVNWjONGBAwceeuihRYsWbd26NRqNqh4OIC0zM7Ouri65b0jIzc2tq6tTdRtcsYr0mzox+k2dfrtOvyBAoVgs9sc//vHee+9dsWLFhx9+qHo4J5o2bdqVV16pehTS0q4Ts9vt3/72t+12u+qBnML777//2GOP3Xnnnb/73e+s9iwFYDaPx7N8+fJkfVrD5XItW7ZM5jtbhyJWkX5TJ0a/qdNv1+kXBMgLhUK/+93vvv/9769evfrdd99VPZxTsNvt3/nOd6x5PjeVc8WKFarHIG3s2LFHjhx5//33VQ/k1Lq6unbv3t3Y2NjW1uZyucaPH889l6xs69athw8fFou74YYbxLLkjRs3rrKycteuXeFwOJHr5OTkPPTQQ1a4bbRYRfpNnRj9pk6/XadfkKmeeeYZsazx48dXVVWJxWG0jh8/vnv37qeffvqpp57atWtXd3e36hEN6Zprrrn66qtVj0IBeywWUz0GBXp6er7//e8Hg0HVAzm9vLw8r9dbUVHh9XonTJigejg40bJly1paWsTiGhsbxbJUCQQC69atM/xcSUlJSV1dnaWeiharSL+pE6Pf1Om36/QLMonkrRpnzpy5Zs0asTiMRCwWO3jwYEtLS0tLy549e44ePap6RKc3duzYJ598Mq1umTggTTsxm822a9euRx55RPUoRqewsHDq1KnnnHNOcXGxx+MpLi42+/socVp0Ymbo7+/fvHnzpk2b+vr6Rv5Tbrd74cKFc+bMseAHM8Qq0m/qxOg3dfrtOv2CzEAnlm6CwWAgEAgEAocOHWpvb9+3b19nZ6fqQY3OAw88cOGFF6oehRrp24nZbLZ169Zt375d9SgS5Xa7x4wZk5WVlZubq3osqc3pdLrd7tH+1HvvvSf5hFOadGJxnZ2dDQ0NTU1Np335uqioqLq6uqamxuJ3ixarSL+pE6Pf1Om36/QLSi7JTiw3N3fKlCmj/ane3l6+vCdBR48e7evrO3bsWG9vr+qxJOqKK65YvHix6lEok9adWE9Pz9133y35IR8gQWnVicVFo1G/379nz57W1tb29vajR4+GQqHs7Oy8vDyPx1NWVub1esvLy1Po45RiFek3dWL0mzr9dp1+QcnCF0kjhYwfP/7xxx9Pz/clxlnu3RSScnJyFi9efP/993PjeGC0IpGI3+9vbm5ubW0NBAI9PT3x00lubm5xcXFpaWllZWVFRYXT6UwwyOFweL1er9eblGEPQ7+KYrFYLBaLRqPRaHTwk27x/xiJRE7479an3xrpV5HYrtOvIiDdOJ3OJUuWpHMbZkvz18TinnnmGckbDQGJsMJrYsFgsLGxsampqaOjY/h/WVhYWFVVVVtbW1hYKDM2Y6iIiuRRERWZhNfEkCpuueWWBQsWqB6FYnRitlgstmrVqtdee031QIDTU9uJhcNhn8/n8/lGdYtnl8u1YMGCuXPnZmZmmjc2Y6gojookUVEcFZmETgwp4aKLLlq2bFkafoHYCejEbDab7ejRo0uWLDl06JDqgQCnobATCwQC9fX1bW1txn58woQJdXV1EydOTO6oEkFFJ6AiAVR0AipKOjoxWJ/H49mwYUOavy8xLh2/2flkLpfL6/Vu27bt+PHjqscCDEfVNzv7/f7ly5d/+umnhq/Q1dW1bdu2qVOnnn322UkcmGFUdDIqMhsVnYyKko4PXMDixowZs2rVqrFjx6oeiCXQif1FYWFhSUnJjh07eJEQVqakE2tpaVm5cmXit8o9fvz4zp07y8vLx40bl5SBGUZFQ6Ei81DRUKgouejEYGUOh+O+++4799xzVQ/EKqxy01UrOP/88//hH/5B9SgAa2lvb1+zZs2oPiwxjHA4vHr16kAgkJSrGUNFw6MiM1DR8KgISBPf/e53L7roItWjsBA6sb/yla98Zf78+apHAVhFOBxeu3ZtKBRK4jV7enrq6+v7+/uTeM2Ro6KRoKLkoqKRoCJAe1//+tevueYa1aOwFjqxE91yyy3XXnut6lEAluDz+Q4cOJD0y7a1tW3evDnplx0JKhohKkoiKhohKgI0dt111910002qR2E5dGInstvt3/3ud7/yla+oHgigWDAY9Pl8Jl1806ZNnZ2dJl18KFQ0KlSUFFQ0KlQEaKmqqur2229XPQorohM7Bbvd/v3vf/9vpBnX3gAAIABJREFU//ZvVQ8EUKmxsTFZH5k4WV9fX0NDg0kXHwoVjQoVJQUVjQoVAfq54oor7rrrLr467JToxE7N4XAsXryYV8aQtiKRyNatW02N2LJlSyQSMTViMCoygIoSREUGUBGgk9mzZ9999920YUOhExuSw+G444475syZo3oggAJ+vz8YDJoa0dHRsXfvXlMjBqMiA6goQVRkABUB2rj++uvvvvtup9OpeiDWRSc2HLvd/q1vfeumm26ilUe6aW5u1iZFMouKrJ9FRdbPoiIg1dnt9ltvvfX222/nCD28DNUDSAFf//rXzznnnEcffdS895EDVrN//36BlNbWVoGUOCoyhooSQUXGUBGQ0jIzM++8884rrrhC9UBSAJ3YiFx22WVnnnnmmjVruAMS0sShQ4cEUiS/9pSKjKGiRFCRMVQEpK68vLz777+/vLxc9UBSA+9OHKnp06evX79+ypQpqgcCSOjq6hJI6e7uFkiJoyJjqCgRVGQMFQEpqrS09NFHH6UNGzk6sVEYP358fX39VVddpXoggOlk3ovb29srkBJHRcZQUSKoyBgqAlLRlVde+YMf/GDcuHGqB5JK6MRGJzMz84477rjzzjvdbrfqsQAmcrlcAimSv0dUZAwVJYKKjKEiILW43e5Fixbdc889Mr9QOqETM+LLX/7yP//zP8+YMUP1QACz5OfnC6Tk5eUJpMRRkTFUlAgqMoaKgBQyderUxx57bPbs2aoHkpLoxAwaP378I488snDhQr4kAVoqLi4WSPF4PAIpcVRkDBUlgoqMoSIgJTidzhtuuGHt2rUyv0daohMzzul03nzzzRs3bpw6darqsQBJVlpaKpBSVlYmkBJHRcZQUSKoyBgqAqyvpKRk3bp1N9xwA69JJIJOLFGTJ09eu3btt771Ld4FDp1UVlYKpHi9XoGUOCoyhooSQUXGUBFgZW63+zvf+c7GjRtlnsjQG51YEjidzjlz5vzoRz+66qqr+Cpx6KGioqKoqMjUiKKiIskb3VKRAVSUICoygIoAy7Lb7ZdddtlTTz311a9+1eGgiUgCJjFpzjzzzDvuuGPdunXTp09XPRYgUU6n0+xP31ZXV0s+jlORAVSUICoygIoAayovL9+wYcN999131llnqR6LPnhoSLKpU6fW19evWrWKV2yR6mpra827Ha3b7a6pqTHp4kOholGhoqSgolGhIsCCJk2adN999z3yyCMcbpOOTswUlZWVGzZsuP/++0tKSlSPBTCosLBw/vz5Jl184cKFBQUFJl18KFQ0KlSUFFQ0KlQEWMqUKVOWL1/++OOPX3bZZXwAxwx0Ymax2+2XXHLJY4899oMf/ODCCy9k+yIVzZs3b/LkyUm/bElJyZw5c5J+2ZGgohGioiSiohGiIsAi7HZ7ZWXl8uXLN27ceNFFF3GINQ+dmOnOPffcBx544Mknn7z22mtzcnJUDwcYhczMzLq6uuzs7CReMzc3t66uLiMjI4nXHDkqGgkqSi4qGgkqAqwgJyfnuuuue/LJJ1etWkUPJsC5YsUK1WNICwUFBRdccEFNTY3H4+nu7j5y5IjqESEl3XDDDcKJ+fn506dP3759eyQSSfxqLpfrwQcfnDJlSuKXMoyKhkdFZqCi4VFREj3zzDPyoUh1dru9oqLi5ptvvuuuuy6++GLeUivGHovFVI8hHR05cuTVV1/dsWPHO++8wxJg5BobG5Xk7tu37+GHH+7u7k7kIjk5OcuXL7fI3Zyp6JSoyFRUdEpUlFzcIASjMmHChC9+8YtXXnnl2WefrXos6YhOTLHDhw+/9tprf/rTn/bs2dPb26t6OLA6VZ2YzWYLBALr1q17//33jf14SUlJXV1dcXFxckeVCCo6ARUJoKITUFHS0YnhtNxud2Vl5axZsy644AJuSa8WnZhVHD9+/O233/b7/W+//fa+ffuOHTumekSwIoWdmM1m6+/v37x586ZNm/r6+kb+U263e+HChXPmzLHg5yWoKI6KJFFRHBWZhE4MpzRmzJhp06bNmDGjoqJixowZFvy9S090YlYUjUY/+OCD995778CBAwcOHPjggw86OztVDwqWoLYTi+vs7GxoaGhqagoGg8P/y6Kiourq6pqaGou/45yKqEgeFVGRSejEEFdQUDBp0qRJkyZNnDhxypQpEydO5BvGLYhOLDX09PR88sknhw8fPnz48JEjR7q7u7u7u7u6urq7uyORSCQSSaHX0Hp6eth1hlmhE4uLRqN+v3/Pnj2tra3t7e1Hjx4NhULZ2dl5eXkej6esrMzr9ZaXl6fQ4z4VWR8VWR8VKUcnZpjdbk+he1yPGTPG6XQ6nc68vLz8/Py8vLy8vLyzzjpr3Lhx48aNGz9+fHLvBQqT8NJkasjJySkpKeF7omEdsVgsFotFo9FoNDq4tY7/x0gkcsJ/tz4qMiwSifj9/ubm5tbW1kAg0NPTEz+q5ubmFhcXl5aWVlZWVlRUOJ3OBIP0WyOHw+H1er1er+qBJI1+FaXcrrPOE3YATovXxACMTjAYbGxsbGpq6ujoGP5fFhYWVlVV1dbWFhYWyozNGCoyXJF+QcAAdh0As9GJARipcDjs8/l8Pl84HB75T7lcrgULFsydOzczM9O8sRlDRXEGKtIvCBjArgMgg04MwIgEAoH6+vq2tjZjPz5hwoS6urqJEycmd1SJoKITjLwi/YKAAew6AGKcK1asUD0GAFbn9/uXL1/+6aefGr5CV1fXtm3bpk6dapHvjqSik42wIv2CgAHsOgCS6MQAnEZLS8vKlSsT/+bx48eP79y5s7y8fNy4cUkZmGFUNJTTVqRfEDCAXQdAGO9OBDCc9vb2e++9NxQKJeuCOTk569ev93g8ybrgaFHRaQ1VkX5BwAB2HQB5Vvn6CwAWFA6H165dm8Sjic1m6+npqa+v7+/vT+I1R46KRuKUFekXBAxg1wFQgk4MwJB8Pt+BAweSftm2trbNmzcn/bIjQUUjdHJF+gUBA9h1AJSgEwNwasFg0OfzmXTxTZs2dXZ2mnTxoVDRqAyuSL8gYAC7DoAqdGIATq2xsXFU36UzKn19fQ0NDSZdfChUNCqDK9IvCBjArgOgCp0YgFOIRCJbt241NWLLli2RSMTUiMGoyIB4RfoFmRqB1MKuA6AQnRiAU/D7/cFg0NSIjo6OvXv3mhoxGBUZEK9IvyBTI5Ba2HUAFKITA3AKzc3N2qRIZmlZkX5BAilIFew6AAplqB4AACvav3+/QEpra6tAShwVGdPa2irzxirJIIEUpAr9HhkApBA6MQCncOjQIYGUQCAgkBJHRcYEAoFYLKZZkEAKUoV+jwwAUgidGIBT6OrqEkjp7u4WSImjImO6u7uj0ahmQQIpSBX6PTIASCF0YgBOwbx7Og/W29srkBJHRcaIVaRfEFKCZr9HAFILd+wAcAoul0sgxe12C6TEUZExbrdbvyCBFKQKdh0AhejEAJxCfn6+QEpeXp5AShwVGZOXl6dfkEAKUgW7DoBCdGIATqG4uFggxePxCKTEUZExHo9HvyCBFKQKdh0AhejEAJxCaWmpQEpZWZlAShwVGVNWVqZfkEAKUgW7DoBCdGIATqGyslIgxev1CqTEUZExXq9XvyCBFKQKdh0AhejEAJxCRUVFUVGRqRFFRUXl5eWmRgxGRQbEK9IvyNQIpBZ2HQCF6MQAnILT6Zw9e7apEdXV1Q6H3EMQFRkQr0i/IFMjkFrYdQAU4qEBwKnV1taad39nt9tdU1Nj0sWHQkWjMrgi/YKAAew6AKrQiQE4tcLCwvnz55t08YULFxYUFJh08aFQ0agMrki/IGAAuw6AKnRiAIY0b968yZMnJ/2yJSUlc+bMSfplR4KKRujkivQLAgaw6wAoQScGYEiZmZl1dXXZ2dlJvGZubm5dXV1GRkYSrzlyVDQSp6xIvyBgALsOgBLOFStWqB4DAOvKz8+fPn369u3bI5FI4ldzuVwPPvjglClTEr+UYVQ0vGEq0i8IGMCuAyCPTgzAaYwbN66ysnLXrl3hcDiR6+Tk5Dz00ENWuJszFQ3ltBXpFwQMYNcBEEYnBuD0xo4de8kll7z99tvBYNDYFUpKSh5++GHrPENMRScbYUX6BQED2HUAJNljsZjqMQBIDf39/Zs3b960aVNfX9/If8rtdi9cuHDOnDkW/LwEFcUZqEi/IGAAuw6ADDoxAKPT2dnZ0NDQ1NR02ueMi4qKqqura2pqLH4TZyoyXJF+QcAAdh0As9GJATAiGo36/f49e/a0tra2t7cfPXo0FAplZ2fn5eV5PJ6ysjKv11teXu5wpMwNWqmIIOBk7DoA5uEFdB1EIhG/39/c3Nza2hoIBHp6euJ/J3Jzc4uLi0tLSysrKysqKpxOZ6oE6Ue/NYrFYrFYLBqNRqPRwU/oxP9jJBI54b8bRkWGiVXkcDi8Xq/X6038UsPTb430e1DVryKx7c2uM0y/ipA+eE0stQWDwcbGxqampo6OjuH/ZWFhYVVVVW1tbWFhoZWD9KPfGhFEkDz9po41sn5FYth1hulXEdINnViqCofDPp/P5/ON6ma7LpdrwYIFc+fOzczMtFqQfvRbI4IIkqff1LFGcVauSAy7zjD9KkJ6ohNLSYFAoL6+vq2tzdiPT5gwoa6ubuLEidYJ0o9+a0QQQfL0mzrW6AQWrEgMu84w/SpC2uL7xFKP3+9fvnz5p59+avgKXV1d27Ztmzp16tlnn22FIP3ot0YEESRPv6ljjU5mtYrEsOsM068ipDM6sRTT0tKycuXK3t7eBK9z/PjxnTt3lpeXjxs3Tm2QfvRbI4IIkqff1LFGQ7FORWLYdYbpVxHSHJ1YKmlvb3/ggQcSfwCKi0Qiu3btuvTSS/Pz81UF6Ue/NSKIIHn6TR1rNDwrVCSGXWeYfhUBfP1FygiHw2vXrg2FQkm8Zk9PT319fX9/v5Ig/ei3RgQRJE+/qWONRoI/E4ax6wxLk10HK+M1sZTx7LPP7tixI+mX7ejocLlc5eXl8kH60W+NCCIo6Vc+Lf2mjjUaIf5MGMauMywddh2sjNfEUkMwGPT5fCZdfNOmTZ2dncJB+tFvjQgiSP4XVr+pY41GhT8ThrHrDNN718Hi6MRSQ2Nj46i+MWNU+vr6GhoahIP0o98aEUSQ/C+sflPHGo0KfyYMY9cZpveug8XRiaWASCSydetWUyO2bNkSiUTEgkyNUEK/NSKIIJv4L6x+U8caGcCfCcPYdYbpuutgfRmqB4DT8/v9wWDQ1IiOjo69e/dGo1GZoJkzZ5qaIk+/NSKIIJv4Lyy/R4aD9Fsj/kwYwK4zTNddB+ujE0sBzc3NMinRaFQmSL8HO/3WiCCCBoLEfmH5PTIcpN8a8WfCcAq7znCKfrsO1kcnlgL2798vkNLa2irz0nxra6tAijD91oggggaCBFLi+D0yHCSQEie2RgIpwvTb3gIpcew6aIxOLAUcOnRIICUQCMRiMZkggRRh+q0RQQQNBAmkxPF7ZDhIICVObI0EUoTpt70FUuLYddAYnVgK6OrqEkjp7u6WeUtDd3e3QIow/daIIIIGggRS4vg9MhwkkBIntkYCKcL0294CKXHsOmiMTiwFmHfn1sF6e3sFUiSDJLFGBBGUOH6PLB5k026NJGk2dew6ICm4i30KcLlcAilut1ssSCBFmH5rRBBBA0ECKXH6TR1rZAx/Jgxj1xmm5a6D9fGaWArIz88XeKomLy8vFovJBJkdIU+/NSKIoIEgsyMG8HtkOMjsiAFia2R2hDz9trfZEQPYddAYr4mlgOLiYoEUj8cjFiSQIky/NSKIoIEggZQ4/aaONTKGPxOGsesM03LXwfroxFJAaWmpQEpZWZlYkECKMP3WiCCCBoIEUuL0mzrWyBj+TBjGrjNMy10H66MTSwGVlZUCKV6vVyxIIEWYfmtEEEEDQQIpcfpNHWtkDH8mDGPXGablroP18TmxFFBRUVFUVBQMBs2LKCoqKi8vj8ViMkHmXV8V/daIIIJs4r+w/B4ZDjLv+icQWyPzrq+KftvbvOufgF0HjfGaWApwOp2zZ882NaK6utrhcIgF/T/27j2+ievOG/+ZGUkWvsgSGGMsiLGxwYmNnJCQAE16ASdNS2K7GGhDttk2SbObdpttn7bu83QJt+3lh5t2u92226fd7HZ3+9tt47rE7iVJi6FZIHHuMSgQgokDWBhsiGz5gm4z8/yhVHEM2NLRzHdmvvq+X/t6bXCt+cz5njNzdCzNjK4RhsDXRxREQQz8gMVXOuojDjRNcKNRxw3rqCPmR8POGhobG/W7i6vT6WxoaAAOwgdfH1EQBcEfsPhKR32UFpomuNGo44Z71BGTo5WYNbjd7g0bNui08U2bNhUWFgIH4YOvjyiIguAPWHyloz5KC00T3GjUccM96ojJ0UrMMpqbm8vLyzXfbEVFRVNTkyFB+ODrIwqiIHj4Skd9lCKaJrjRqOOWDaOOmBmtxCzDbre3tLTk5uZquM38/PyWlhab7T03bgELwgdfH1EQBcHDVzrqo1TQNMGNRh23LBl1xMyk7du3G70PJFUul6u6unr//v2yLGe+NYfDsXXr1sWLFxsYhA++PqIgCoKHr3TUR9MzQ4vA0Kjjhq9FhNBKzGKKi4vr6uq6u7uj0Wgm28nLy9u2bds092wFC8IHXx9REAXBw1c66qMrMU+LwNCo44avRSTL0UrMeoqKilauXHn06FHuZ2tUVFTs3Llzxr8DgQXhg6+PKIiC4OErHfXRpczWIjA06rjhaxHJZoKqqkbvA+ERi8V2797d1tYWiURSf5XT6dy0aVNTU1Pq34oGC8IHXx9REAXBw1c66qMEM7cIDI06bvhaRLITrcSsbWRkpKOjo6ura8a/DHk8nvr6+oaGBr5btYIF4YOvjyiIguDhKx31kflbBIZGHTd8LSLZhlZiGCiK4vf7Dx061Nvb29/fPzY2NjExkZubW1BQ4PV6q6qqfD5fTU1N5s+PBwvCB18fURAFwcNXOuojkkSjjhu+FpHsQR/O6kiWZb/f39PT09vbGwgExsfHE6eG/Pz80tLSysrKurq62tpaSZIyDBJF0efz+Xw+TXZ7GqqqqqqqKIqiKJPX8IkfyrI85efcwEoHBqyP8A0GfC3CFwQG36gDCwI7qeIbdfhKh28qx9cifKh0V0KfiekiGAx2dnZ2dXUNDw9P/5tut3vt2rWNjY1utxtm3/iAtQhf6fDB10f4hjf1kflbBIZGHTd8paMg8wfhQ6WbHq3ENBaNRtvb29vb29O6v6rD4di4ceP69evtdrt++8YHrEX4SocPvj7CN7ypjxLM3CIwNOq44SsdBZk/CB8qXSpoJaalQCDQ2tra19fH9/KFCxe2tLSUlZVpu1eZAGsRvtLhg6+P8A1v6qMpTNgiMDTquOErHQWZPwgfKl2K6HlimvH7/Vu2bBkaGuLeQigU2rdv35IlS0pKSjTcMW5gLcJXOnzw9RG+4U19dCmztQgMjTpu+EpHQeYPwodKlzpaiWnj8OHDO3bsCIfDGW4nHo8fPHiwpqamuLhYkx3jBtYifKXDB18f4Rve1EdXYp4WgaFRxw1f6SjI/EH4UOnSQisxDfT39z/88MOZj7kEWZa7u7tXrVrlcrk02SAHsBbhKx0++PoI3/CmPpqeGVoEhkYdN3yloyDzB+FDpUsXPVohU9FodNeuXRMTExpuc3x8vLW1NRaLabjN1IG1CF/p8MHXR/iGN/VRKrLkzECjjhu+0lGQ+YPwodJxoM/EMvXYY48dOHBA880ODw87HI6amhrNtzwjsBbhKx0++PoI3/CmPkpRNpwZaNRxw1c6CjJ/ED5UOg70mVhGgsFge3u7Thtva2sbGRnRaeNXAtYifKXDB18f4Rve1EdpwX1moFHHDV/pKMj8QfhQ6fjQSiwjnZ2daT0kIS2RSKSjo0OnjV8JWIvwlQ4ffH2Eb3hTH6UF95mBRh03fKWjIPMH4UOl40MrMX6yLO/du1fXiD179siyrGvEZGAtwlc6fPD1Eb7hTX3EAeuZgUYdN3yloyDzB+kaYQgqHTeb0TtgYX6/PxgM6hoxPDx85MiRZcuW6ZqSBNYiRVGQlQ4fGt4cgIc3vuMI36gDg2944xt1+M4MFMQdRKcgDlhLRysxfj09PTApYMMOrEWKosAE4TtiwdDw5k4BG974jiN8ow4MvuGNb9ThOzNQEHcQnYK4U/CVjlZi/I4fPw6Q0tvbC5CSANYimM+XIUuHDw1vPpDDG99xhG/UgcE3vAFSEvCVjoLMHwSQAozO3txoJcZvYGAAICUQCACkJIC1SFVVmCCAFKxoePOBHN74jiN8ow4MvuENkJKAr3QUZP4ggBRgdPbmRisxfqFQCCBldHQUICUBrEUwXwCALB0+NLz5QA5vfMcRvlEHBt/wBkhJwFc6CjJ/EEAKMDp7c6OVGD/9btY5WTgcBkhJQNYiyNLhg2wwMHQtwhfE0PURJGSlo1FHQRRkLciOI0h0F3t+DocDIMXpdAKkJIC1CF/p8MHXR/iGN/URH5RnBhp13PCVjoLMHwSQAoxKx41WYvxcLhdASkFBAUBKAliL8JUOH3x9hG94Ux/xQXlmoFHHDV/pKMj8QQApwKh03Gglxq+0tBQgxev1AqQkgLUIX+nwwddH+IY39REflGcGGnXc8JWOgswfBJACjErHjVZi/CorKwFSqqqqAFISwFqEr3T44OsjfMOb+ogPyjMDjTpu+EpHQeYPAkgBRqXjRisxfnV1dQApPp8PICUBrEX4SocPvj7CN7ypj/igPDPQqOOGr3QUZP4ggBRgVDpudO9EfrW1tR6PJxgM6hfh8Xhqamr02/4UYC1SVRVZ6fCh4c0BeHjjO47wjTow+Ia3ftufAl/pKMj8Qfpt3yh09uZGn4nxkyRpzZo1ukbU19eLIlwfgbUIX+nwwddH+IY39REHrGcGGnXc8JWOgswfpGuEIah03BA2CVJjY6N+N+50Op0NDQ06bfxKwFqEr3T44OsjfMOb+igtuM8MNOq44SsdBZk/CB8qHR9aiWXE7XZv2LBBp41v2rSpsLBQp41fCViL8JUOH3x9hG94Ux+lBfeZgUYdN3yloyDzB+FDpeNDK7FMNTc3l5eXa77ZioqKpqYmzTebCrAW4SsdPvj6CN/wpj5KUTacGWjUccNXOgoyfxA+VDoOtBLLlN1ub2lpyc3N1XCb+fn5LS0tNpsx91MBaxG+0uGDr4/wDW/qo1RkyZmBRh03fKWjIPMH4UOl4yBt377d6H2wPJfLVV1dvX//flmWM9+aw+HYunXr4sWLM98UN7AW4SsdPvj6CN/wpj6anhlaBIZGHTd8paMg8wfhQ6VLF63EtFFcXFxXV9fd3R2NRjPZTl5e3rZt28xwm06wFuErHT74+gjf8KY+uhLztAgMjTpu+EpHQeYPwodKlxZaiWmmqKho5cqVR48e5X6cQkVFxc6dO82z9AdrEb7S4YOvj/ANb+qjS5mtRWBo1HHDVzoKMn8QPlS61Amqqhq9D6jEYrHdu3e3tbVFIpHUX+V0Ojdt2tTU1GTCL8KCtQhf6fDB10f4hjf1UYKZWwSGRh03fKWjIPMH4UOlSwWtxHQxMjLS0dHR1dU14x8DPB5PfX19Q0ODye/OCdYifKXDB18f4Rve1EfmbxEYGnXc8JWOgswfhA+Vbnq0EtORoih+v//QoUO9vb39/f1jY2MTExO5ubkFBQVer7eqqsrn89XU1FjokeFgLcJXOnzw9RG+4U19RJJo1HHDVzoKMn8QPlS6K8mKD/6mkGXZ7/f39PT09vYGAoHx8fHEaMjPzy8tLa2srKyrq6utrZUkKcMgVVVVVVUURVGUySvexA9lWZ7yc/MTRdHn8/l8Pr2D8JUObNSBARsM+A5YfEFa9ZF68TybOK9evKBODLHw2+rFt9WLF9jF82okxKIhxpgaHimPRssjw/JsOWdOVBAYYywsSyoTBUGQhiX2nDv2ioPZnEJOIXMWCjmFQo4n8R8sp1DIKxHyS4UCL5McMC0CK92MwA5YOjOYPwjfVI6vdHQKyh7Z9ZlYMBjs7Ozs6uoaHh6e/jfdbvfatWsbGxvdbreZg/DBVzp8LQKD74CloHeClLg68pYaOqWOnFRDJ5WRU2ropBo6zWLjHPvAQcgrFvK9QkHi/xYInkph9lIhbx4zf+kIxj7CNxiodNyodNkmW1Zi0Wi0vb29vb09rVtqOhyOjRs3rl+/3m63my0IH3ylw9ciMPgO2CwPKnTEygoulhVcLHdFfAscLnWQybHUdw+GkFN4XpnTc2r8rZGc06POU+OzRqMzf23EzH2EjzmHtyWCwFDpuFHpslNWrMQCgUBra2tfXx/fyxcuXNjS0lJWVmaeIHzwlQ5fi8DgO2CzMMgpKYtd49WesaXu8XLXRKHDdOuuVAxezDk2nHd8OO/YSP6p0VmyKlzpN03YR/iYZ3hbLggMlY4blS5r4X+emN/v37Jly9DQEPcWQqHQvn37lixZUlJSYoYgfPCVDl+LwOA7YLMnyJ0T880J3brgwqbKwKeq+z/kvVA7e7QkN+KUFO5dMlaeXS4ruHjd3NCtC87fsehcXdFoaV4kR1KCEXtcfc9l5WbrI3wMH97WDQJDpeNGpctmyFdihw8f3rFjRzgcznA78Xj84MGDNTU1xcXFxgbhg690+FoEBt8Biz5IFNRy18X6BUP3LO3/5JL+980PVrnHZztj4hU/PbIqm6jOnRWt9oy9b/7bjeXnbigenjcryhi7EHaoTGBm6iN80B9H+gWBodJxo9JlOczfTuzv7//yl788MTGh1Qbz8vIeeeQRr9drVBA++EqHr0Vg8B2wiIOKnNHrikauLQrVzhmdJcla5VrRaNR2+G1XzwXXK0Ou4ajd8D7CB/FxpHcQGCodNyodQfuZWDQa3bp16/nz5zXcZiwWO3KxcjxNAAAgAElEQVTkSH19/eS7eYIF4YOvdPhaBAbfAYsy6B///kvLc1+/t/r03UsC188d8eaF7SLav+WlKEdSFuZfXFE8fMeiQd/skE0J73vh9VvW3E7ThCZQHkfIBgOVjhuVjjDEK7HHHnvswIEDmm92eHjY4XDU1NTAB+GDr3T4WgQG3wGLKUgdO6Mc/eXgb75wq+sl35xRd05c8zgEBMaKZkWvLQq933M81POLHGVMyPcKTjejM0MGMB1HwEFgqHTcqHSEMYbzUdbBYLC9vV2njbe1tY2MjAAH4YOvdPhaBAbfAYsj6InH/3v8uR9E2+6I/OzG2P5tc+JvCeiu/tJJQfxs/PnvRv7zfdH2xtHn/vmJjsd0CqIzAzd8ByzuiY9KlxbcpUMG50qss7MzrYckpCUSiXR0dAAH4YOvdPhaBAbfAWvpIEFg1Z6xB6459b2bXpRe+JZy7hXGsv0riLxUZeBF+wtf/+HqF/5X3ZvLZoc0X8rSmYEbmgP2skFgqHTcqHQkAeFKTJblvXv36hqxZ88eWZbBgnSNMAS+0uFrERh8B6x1g9yOWGP52e/f7N+54lj9gqEcy9593mzsorpyXvDhG47/6JbDd1cF5s7S8l0RnRm4Wf2AvVKQrhGTUem4UelIks3oHdCe3+8PBoO6RgwPDx85ckRRFJigZcuW6ZoCD6yPwEqHr0Vg8B2wVgy62jN6R9ng8rkjkkAff+lojjPaWH72jkXnXh4q/O3J4qPBgsy3SWcGbtY9YKcPwjfxUek4YC0dPghXYj09PTApigLxB+Oenh584xusj8BKh69FYPAdsBYKEph6/dxQU/nAEve4JntFUiEJ6ori4RXFw2+N5v7u5LwDAx5Zzehri3RmyCTFQgdsikH4Jj4qHXcKvtLhg3Aldvz4cYCU3t5emE9je3t7AVKAgfURQEoCvhaBwXfAWiJoliR/yHt+Xdmgtt+UI2lZVDDxudq+u5f0//F00e9PzRuPcd4Mms4M3KxywKYVBJCSgK+PAFISqHQkCeFKbGBgACAlEAjAPBQ7EAgApAAD6yOAlAR8LQKD74A1eVCBI95Qdu7WhUO5Nvpmvym4HbGNiwfWlQ3uDRR19M0bidrT3QKdGbiZ/4DlCAJIScDXRwApCVQ6koRwJRYKhQBSRkdHYT7zHR0dBUgBBtZHACkJ+FoEBt8Ba9qgfLv8kavOrSsbpDWYCeXa5DvKzt26YKgrUPR4X8lwJI31GJ0ZuJn5gOUOAkhJwNdHACkJVDqShHAlpt/NOicLh8MAKZBBkJD1EcPYIjDISmfOoFmSfNtVQ03lZ/NoDWZuOZLy0asG13jP7w0U7X6zJMXPx+jMwM2cB6wlghj1UQaodCQJ4V3sHQ4HQIrT6QQLAkgBhq90+FoEBt8Ba6qgWZLcXDHwow8cvrsqQMswq3BKykevGvzHm1/btPhMKh9g0pmBm9kOWE2CAFISqHTcqHQkCeFnYi6XC2B1XlBQoKoqTJDeEfDA+kjviCR8LQKD74A1SZDA1A+WXrhryRm3I6b3zhA95NrkDYsHbr9qsO1E6R9Oz53m/op0ZuBmngNWwyC9I5Lw9ZHeEUlUOpKE8DOx0tJSgBSv1wsWBJACDF/p8LUIDL4D1gxBlYXjX7/p2IO1J2kZZnX5dvnT1ae/874jy4tGrvQ7dGbgZpIDVtsggJQEKh03Kh1JQrgSq6ysBEipqqoCCwJIAYavdPhaBAbfAWts0Bxn9G9q3/rGja9XFdIjwvAozQ3/7+W9D99wfGH+xUv/VzozcDP8gNUjCCAlgUrHjUpHkhCuxOrq6gBSfD4fWBBACjB8pcPXIjD4DlijgnIkZXNV4Ps3+99fekHI6EHBxKSWzQ61rjr6l0tPT7l4jM4M3FCeGQBSEqh03Kh0JAnhdWK1tbUejycYDOoX4fF4ampqVFWFCdJv+0YB6yP9tj8FvhaBwXfAGhJUM3vsM1e/VZoX0S+UmIEkqOvKBm+eH/z5GwuePjOb0ZkhA1jPDPptfwp8faTf9qeg0pEkhJ+JSZK0Zs0aXSPq6+tFUQQL0jXCEPhKh69FYPAdsMBB+Xb5gWtObb3+GC3DskehI/a52r6vXtc7xxmlMwM3rGcGXSMmo9Jxo9KRJJy1a2xs1O/GnU6ns6GhATgIH3ylw9ciMPgOWLCgj13r/MebX6tfMERfR8xC188d+c7qI+uXjDAV4uGt8PAdsPimCSodNyodSZC2b99u9D5oz+l0Kopy+PBhPTa+efPm5cuXAwfhg690+FoEBt8BCxCkhk7FnviM6P+XHAnnu3CSCruoimcOKIFnxZIbhFmzjd4djWE6YIGDwFDpuFHpSALOz8QYY83NzeXl5ZpvtqKioqmpyZAgfPCVDl+LwOA7YHUNkl9vi/ziNqX/oObbJ1aknOmO/OJWuedRxlSj90VjOA5YQ4LAUOm4UekIQ7wSs9vtLS0tubm5Gm4zPz+/paXFZnvPbU7AgvDBVzp8LQKD74DVKeirX/ysuu+LsT1fYNFRDbdMLE+OxPZvjXZsVsfPGb0rWrL6AZsN7xmodNyodIRh/XZigsvlqq6u3r9/vyzLM//2TBwOx9atWxcvXmxgED74SoevRWDwHbCaB33r83fOe/krysALmW+NoKSGTirHfiV6KgUPnpOGdQ9Yw4PAUOm4UekI5pUYY6y4uLiurq67uzsajWaynby8vG3btk1zm06wIHzwlQ5fi8DgO2C1CnIXzPreXSVz3/gBfRRGZhC/KB/vUMNBacH7mIjkz9WWO2DNEwSGSseNSpflkK/EGGNFRUUrV648evQo9+MUKioqdu7cOePSHywIH3ylw9ciMPgO2MyDblg67xs3B2YN7ud7OclC6rlX5L6npAWrhVlzjN4XbVjogDVbEBgqHTcqXTYTVBXbBb6XFYvFdu/e3dbWFomk8cgdp9O5adOmpqam1L8ICxaED77S4WsRGHwHLHfQ3zTW3nTxl2p4OPVXEfIOe5597XelyjuM3g/NmP+ANW0QGCodNypddsqWlVjCyMhIR0dHV1fXjH8M8Hg89fX1DQ0NhYWFZg7CB1/p8LUIDL4DNs2gtR9bPGR75XtYnxZFQAhS3b32921F801FZt4D1gJBYKh03Kh02Sa7VmIJiqL4/f5Dhw719vb29/ePjY1NTEzk5uYWFBR4vd6qqiqfz1dTU5P5I8PBgvDBVzp8LQKD74BNJeiaxaXynr9VTu3LMIsQxpjoXWW//cfCrCKjd0RLpjpgrRUEhkrHjUqXPfD8kSx1oij6fD6fz6d3kKqqqqoqiqIoyuQVb+KHsixP+Tk3WZb9fn9PT09vb28gEBgfH08cSPn5+aWlpZWVlXV1dbW1tZIkWSUIrI+oReaH74CdsUXK0OFY20fV0f7MswhhjCmBZ6Ntd9g/8lNx7jKj90UzWXhm0ArYNAFWOrAgMPiGN743J1rJxs/EAASDwc7Ozq6uruHhGa7ucLvda9eubWxsdLvdFASJWmT+FoExVemUvj9G//BZFpvQafske9mc9vrvSZV3Gr0flmGqM4Mm8L1nwNdHYKiPTIJWYhqLRqPt7e3t7e1p3STU4XBs3Lhx/fr1drs9a4PAUIsSzNwiMGYrnfzaz2NP/x1T4tpulpA/E2w3ftF245eM3g2zM9uZIXP43jPg6yMw1EemQisxLQUCgdbW1r6+Pr6XL1y4sKWlpaysLAuDwFCLpjBhi8CYq3SqHNu/XT70r9psjZArk665y/7B/w/TPTy0Za4zgxbwvWfA10dgqI/MBv/zxMD4/f4tW7YMDQ1xbyEUCu3bt2/JkiUlJSVZFQSGWnQps7UIjLlKFxuPPvlXyrH2TLdDSArUIb9y7hWp/DYm5Ri9L6ZjrjODFvC9Z8DXR2Coj0yIVmLaOHz48I4dO8LhcIbbicfjBw8erKmpKS4uzpIgMNSiKzFPi8CYqnTqxGDs8Y8rZ7oz3BlCUqeOnFRO7xfLbxXseUbvi4mY6sygCXzvGfD1ERjqI3OilZgG+vv7H3744czHXIIsy93d3atWrXK5XOiDwFCLpmeGFoExVenU0f7o7g1q8LgmO0NI6tTxc8qJ30uLbhWcWXRx/DRMdWbQBL73DPj6CAz1kWnR8wEyFY1Gd+3aNTGh5Y3OxsfHW1tbY7EY7iAw1KJUGNsiMKYqnRo8EW3/mDryloY7Q0jq1NDpaHuTeuF1o3fEeKY6M2gC33sGfH0EhvrIzOgzsUw99thjBw4c0Hyzw8PDDoejpqYGcRAYalGKDGwRGPOUTn37WLRjkzp+VvOdISQNsXHlxO+lqz4g5M41eleMZJ4zg1bwvWfA10dgqI/MjD4Ty0gwGGxv1+si+7a2tpGREaxBYKhFaTGkRWDMUzpl8NXor5vV8UGddoaQ1KkXz0d2NyvnXjF6RwxjnjODVvC9Z8DXR2Coj0yOVmIZ6ezsTOshCWmJRCIdHR1Yg8BQi9JiSIvAmKR0yun90d0b1XBQpz0hJG2RULTjLmXgBaP3wxgmOTNoCN97Bnx9BIb6yORoJcZPluW9e/fqGrFnzx5ZlvEF6RoxGbWIA3CLwJikdErg2ejvPs1iWn6NnhANREejnZuVwLNG7wc0k5wZNITvPQO+PgJDfWR+tBLj5/f7g0F9/6o9PDx85MgRfEG6RkxGLeIA3CIwZiidcu6V6O8+xeIXdd0NQjjFJqK/vSfbPhkzw5lBW/jeM+DrIzDUR+ZHKzF+PT09MCn4ggBSILOoRZZgeOnU80div/kLFh0D2A1COCUWY0N+o/cDjuFnBotm0ZsTS6A+Mj+b0TtgYcePQzwCqLe3F+bTWMgggJQEsD4CSEnA1yIwxpZODZ6Idm5Ww8MA+0BIRiKhWOfdjvXtgqfS6F2BgO+kSm9OuIMAUoDhGwwAKcBoJcZvYGAAICUQCKiqiiwIICUBrI8AUhLwtQiMgaVTR96KPr5BnRgC2AFCMqdePB/tuMvRvFsoWGD0vugO30mV3pxwBwGkAMM3GABSgNFKjF8oFAJIGR0dVRQFWRBASgJYHwGkJOBrERijSqeOn4s+voluWE+sRR07E+3c7Fj/a2FWkdH7oi98J1V6c8IdBJACDN9gAEgBRteJ8dPvZp2ThcNhfEEAKQnUIj6QLQJjTOmiY7Hf3qOOIvwzHkFPDZ6I/eaT6O/zie+kiu89A74+AkN9ZH60EuPncDgAUpxOJ74ggJQEahEfyBaBMaB0qhz94+ez6uYHBBll8FD0qb9mKsI7RyfhO6nie8+Ar4/AUB+ZH63E+LlcLoCUgoICfEEAKQnUIj6QLQIDX7rY/zys9P0BIDSLSBCTPZlMeasrfvDvjd4LHeE7qeJ7z4Cvj8BQH5kfrcT4lZaWAqR4vV58QQApCdQiPpAtAgNcuviL35cP/ztAYvYQCrzOvzru2PSEbfXXxIW3MBvCP46aU/zVn8qHf2b0XugF30kV33sGfH0EhvrI/Gglxq+yEuIOv1VVVfiCAFISqEV8IFsEBrJ08hu7492tAHFZRVzwPibaxGKfbfnnHI2/cD5wjFZlYGL7tykn9xq9F7rAd1LF954BXx+BoT4yP1qJ8aurqwNI8fl8+IIAUhKoRXwgWwQGrHTKYE+s60uMQdzSN6uIpave++/LrcrKb2UOhF9fMZ4Sjz71oHrhqNH7oT18J1V87xnw9REY6iPzo7vY86utrfV4PMFgUL8Ij8dTU1OjqiqyIP22PwVYH+m3/SnwtQgMTOmuWeyN/WodkyP6pWQt0bvqyv+bTSz2icU+xhhT4sr5I0r/fmXgBSXQzaII73psjOhY9Lefcnz8ScHpMXpXtITvpEpvTriD9Nu+UfANBv22bxT6TIyfJElr1qzRNaK+vl4URXxBukZMRi3iANwiMAClu7V+jbzn82rolK4p2UkoWCC4Fqb0q8nPytb9zHnfYWFOtc67lkXU0f7Ynr9lKsSDg8DgO6nie8+Ar4/AUB+ZH8ImQWpsbNTvxp1Op7OhoQFrEBhqUVoMaREYvUv3sQW9yqk/6bT9LDfdB2LTUOPq8Amt9yWrKW91xV/8J6P3QmP4Tqr43jPg6yMw1EcmRyuxjLjd7g0bNui08U2bNhUWFmINAkMtSoshLQKja+k+31AtvfZvOm2c8K3ElDPPMzmm+c5kufjzjyin9hm9F1rCd1LF954BXx+BoT4yOVqJZaq5ubm8vFzzzVZUVDQ1NeEOAkMtSpGBLQKjU+lWVRetGP8F3aVDP7wrse70Iuy5HClZR1Vif3hIHQ0YvR9awndSxfeeAV8fgaE+MjNaiWXKbre3tLTk5mo5f+fn57e0tNhs77mfCr4gMNSiVBjbIjB6lG62K/eh2l4WG9dwm2QyIb9UcF3F8UIl8EzqEY6P/cr5wOuOTU/Yb9kpVd5B92Cchhp+O/bEA0yOGr0jmsF3UsX3ngFfH4GhPjIzafv27Ubvg+W5XK7q6ur9+/fLspz51hwOx9atWxcvXpwNQWCoRdMzQ4vAaF66f/j47Fnn0/jshaRLqrhdqrg97ZfFL8b2P5zi7SWkig9LFR9hgijkzRNLlkuVd9qWPyiW3ybOXio48tTxs3Q/zCkSNRGv+oDRO6IZfCdVfO8Z8PURGOoj06KVmDaKi4vr6uq6u7uj0Yz+RpiXl7dt27ZpbtOJLwgMtehKzNMiMBqWbtfffKSo9/9qtWPksmx194tza9N9ldL/jPx6W6oRvvumRtCqbCbKuZfF0pv4Pq40J3wnVXzvGfD1ERjqI3OilZhmioqKVq5cefToUe7HKVRUVOzcuXPGpT++IDDUokuZrUVgNCnd3//dF4pf/ip9L1Fv9lu2CTnudF8lH/2lcua5VCNu3i44rxwxeVV23V+Li+oFdzkT7erEOaZk8x1BVOX0funqjws2p9F7ohl8J1V87xnw9REY6iMTElSVLjHXUiwW2717d1tbWySSxh9NnU7npk2bmpqaUv8iLL4gMNSiBDO3CExmpWtUnrxPeatLv90jjDEhvzTnUy9wvDDa3qQMpPRCIX9+zqde5In49frUF3tYSYvX2T/yE6P3QmP4Tqr43jPg6yMw1EemQisxXYyMjHR0dHR1dc34xwCPx1NfX9/Q0MB3d058QWCoReZvERi+0sVf/Un8wA6YPcxmUvUGe/0/pv2y+MXwT69O8Rb20tIN9lvTj5Aj4Z9cTd9UZIzZb/0nael6o/dCe/hOqvjeM+DrIzDURyZBKzEdKYri9/sPHTrU29vb398/NjY2MTGRm5tbUFDg9Xqrqqp8Pl9NTU3mjwzHFwSGWkSS0iqdGjwe+cVtmO4dZ1r2Nd+RrvlEuq9STv9PtOOulCMeka5J9Zffjeg/GH18U7qvwinHlfOJPUKB1+j90AW+kyq+9wz4+ggM9ZHhsuKDP6OoqqqqqqIoiqJMXvEmfijL8pSfmz9IFEWfz+fz+TLflEmAtUiWZb/f39PT09vbGwgExsfHE+eg/Pz80tLSysrKurq62tpaSZIyDAIbDGAtMmPpVCW2t4WWYTDEBVxPEgs8m0aEd7XeEchFQrGuLziaHmNMwHdmoImPG7054YZveOPrI63QZ2K6CAaDnZ2dXV1dw8PD0/+m2+1eu3ZtY2Oj25329eiQQYQbvsFAQc1XT9ie/zpHEEmXuS8Sa07rydHoRVd/a/dh1YQHLE188KiPuFHpsg2txDQWjUbb29vb29vTunenw+HYuHHj+vXr7Xa72YIIN3yDgYIYY56c2Hff91qeTYMnpZAZgVwk1my/9ftpR9BFYpcYi9m+cLAmFE31uzZmPjMQbtRH3Kh02YlWYloKBAKtra19fX18L1+4cGFLS0tZWZl5ggg3fIOBghK+cu2JFcUz/KmSaAXkIrFvS9dsTjuCLhK7nKfPzPmhf1FaLzHhmYFwoz7iRqXLWvQ8Mc34/f4tW7YMDQ1xbyEUCu3bt2/JkiUlJSVmCCLc8A0GCkpYXRJsrhjg3jcERO8qNfw22EO0ZnjM1xXIr2v3JLErRrTRdWKXWlRw8dhw/rmLOam/xGxnBsKN+ogblS6b0UpMG4cPH96xY0c4HM5wO/F4/ODBgzU1NcXFxcYGEW74BgMFJeTZ5f+zvNcpKRnunnUJ+aU5d+2xLf+sWP5hobCM2ZzqxJB+dy4R8kttK7/C8cL4c4+oY4GUIvLm2VZ+lSfi+e+qo/0cL0RvqWe8q79IVoXUX2KeMwPhRn3EjUqX5WglpoH+/v6HH34486MoQZbl7u7uVatWuVwuo4IIN3yDgYKS7l5yZtnskCa7Z1FSxe1Sxe1MEIW8eeL8G6UlTbblD4rlt+m0KpPKPywt/kjaL4tfjO1/mKkpXcgnVdzOEyFHYk9vSTEi2+TbZUEQ/G8XpPUqM5wZCDfqI25UOpJ1t+3XXDQa3bVr18TEhIbbHB8fb21tjcXe8/0fsCDCDd9goKAkb174wwsHtds7SxK9l9xQXpDEYp9t+ecc637m/Mxrjk1P2G/ZKVXewRzpvRG/QtxKjlcpAy+mviDkjXiJ7tUxjTsXnZ03K+360MRnUdRH3Kh0hNFKLHPt7e0nT57UfLN9fX27d+82JIhwwzcYKCjpnqX9kpDt9zeaYd0iSGKxT6q7z377/33PqiyH86+znI/5OpPOk8RKuR5Wlk5EFrIJ6uaqlL4dOgVNfFZEfcSNSkcYrcQyFAwG29vbddp4W1vbyMgIcBDhhm8wUFDS8rmh64qy/RgR8ksFV8o35pq8Krvfz7EqE/LnC4U89wFT+lNdJgl5xYK7nCeC7tUxk1Ulwas9YxwvpInPWqiPuFHpSAKtxDLS2dmZ1mMf0hKJRDo6OoCDCDd8g4GCEiRBvbuK7s3A+QkVY+9dld132LGh07bqf4tza5kgaR8Xv6gMvpLi74re9/FEyBHl7Ms8L8wyn64+LbC0P0amic9aqI+4UelIAq3E+MmyvHfvXl0j9uzZI8syWJCuEbjhGwwUlPThqwYX5l/UfK8s5zIXifFsxSaWXG+7/vOOjz/lfOCoo/lx2+qvieW3XnpdGV+ccvalFB/onEHEy3SRWCoWFUy8vzTI8UKa+KyC+ogblY4k2YzeAQvz+/3BIM80k7rh4eEjR44oigITtGzZMl1TEMM3GCgoIc8ub8zuB4gliQu0WIlNZs8T568Q569gjDElrpw/og68oAw8rwSeVS9e4LxILJ3vDQJEZLm7KvufO+cOy+n9zZcmPqsAm/jw9RGVjiTRSoxfT08PTIqiQDy/qKenh45YbvgGAwUl3FF2Ns9Of1ZM8yIxDqJNLPaxYp9Udx9jTA2e4LxILOVlkpA3j/cisWc4XpWdZjtjt1917vG++em+kCY+SwCb+PD1EZWOJNFKjN/x48cBUnp7e2E+X+7t7QVIwQrfYKAgxli+Pf6Rq4b02B/L4b9IjIvgWczzsnhYOZf6RWJcLZKjqUcQxljDosE/nC6eiE93TeClaOKzBLCJDyAFGJWOJNFKjN/AAMR3lgKBgKpC3Ds7EOC56TBJwDcYKIgx1rjoXK6NPhBjjPe5W8CUs/o/SezsSyyuzTNYs0Tizxntb5ak9Sqa+CwBbOIDSAFGpSNJtBLjFwqFAFJGR0dhvqQxOjoKkIIVvsFAQQWO+G30gdifAX8mxocuEjOnOxadffL03PFYGh+L0cRnCWATH0AKMCodSaKVGD/9bj86WTgM9PdXsCCUaDDgC/pY+dlZEn0gxlgGj/YCZlv+WfGqDyoDzyun9ysDL7L4Fe94KeQVC+4Kjgh6pjOHPJv80avOtZ0oTf0lZj4zkCRkEx8kKh1JopUYP4fDATDKnU6noigwQXpHIIZvMGR5kDsndusC+kDsHZb4QIyxSTdjXP65S2/GOPkX+S8SoyeJcVlXNvjEqXljKX8sRhOfJYBNfHpHwKPSkSRaifFzuVwAB1JBQYGqqjBBekcghm8wZHlQ46KzORLEl6MswRIXiU015WaMoZPKwAvKmReUgRfUt98QS+kiMVC5Nnld2dlf9npT/H2a+CwBbOLTOwIelY4k0UqMX2lp6eDgoN4pXq9XURSYIL0jEMM3GLI5KNcmf8h7YebfyxpiqdZPEgMnuMokV5m0dANjTB0/x2yzODainOnWer+yyO0Lhzr6SsJySh+L0cRnCWATn94R8Kh0JCm95y2SySorKwFSqqqqwIIAUrDCNxiyOah+wRDdMjFJyCvme+6WaQl584QcF8cL6Ulimcizp/EHDpr4LIH6iBuVjiTRSoxfXV0dQIrP5wMLAkjBCt9gyNogSVDpGWKTiQtuNnoXzEGOKWfpSWIZWVc2KAop3ZueJj5LoD7iRqUjSfTtRH61tbUejycYDOoX4fF4ampqVFWFCdJv++jhGwxZG7S6JDjHCXFXK6tQTu6N/f5+ofQmcf4N4txlTMzSWUM59/I0N2MkqSieFblh7vDzg57pf40mPqsAm/j0275RqHQkiT4T4ydJ0po1a3SNqK+vF0URLEjXCNzwDYasDfroVbp/d99a1PCw/OYT8QPbo213hH9SHd29If7ct5VTT7PYhNG7BoqeJKaJhvKZjy+a+KyC+ogblY4kUSdlpLGx0eFw6LRxp9PZ0NAAHES44RsMWRhU4xldXDiu055gEL+oBJ6Nv/C9aOfm8E+vjv7qzvgz31BO/w+TY0bvme7EubVi6UrGBKN3xNqWFI4tcU93iNHEZy3UR9yodCRB2r59u9H7YGGJZ54cPnxYj41v3rx5+fLlwEGEG77BkIVBn766vzSPblOeGlVRxwaUgRfkY+3xQ4+qF15ngiAWLMT69UXBXSFd/XHp6k3CrDnq+DkWftvoPbKqWZLcfe6KX1Ckic9aqI+4UelIAn0mlqnm5ubycu1vLFZRUdHU1GRIEOGGbzBkVdBsZ2x50Yjm+5AVoqPyG7tjv78/8rMb4i//kMkRo3dIL0LBAtsND+Xc/bRj0xNSzV/w3Q0/y904b9idc/kPUSB9aQcAACAASURBVGnisyLqI25UOsJoJZY5u93e0tKSm5ur4Tbz8/NbWlpstvf8aRksiHDDNxiyKuiDpRdSvLEbuRI1HIw/881o+8fUsQGj90VfYrHP/qFdOZ963rb6a0JeidG7YyWSoL5//mU+UaSJz6Koj7hR6QijbydqwuVyVVdX79+/X5Y1eAaRw+HYunXr4sWLDQwi3PANhiwJEgT2YM1b+XZ6jJgG1PFzSu9vpSUfE+x5Ru+LvgTbLHH+jTbfvYKnXA2dYhP0/IOUFDkjT/UXT/6JGc4MhBv1ETcqHaGVmDaKi4vr6uq6u7uj0Yzuf52Xl7dt27ZpbjwKFkS44RsM2RBU4xm9YxHdNVE70VF16LBUvdHo/QAhSmLRNbbae8S5PnX4hDpBA2kGBQ7Z/3bB+XBO4p/mOTMQbtRH3Kh0WY5WYpopKipauXLl0aNHuR8QUVFRsXPnzhn/mAEWRLjhGwzogz5RdaasgJ4WpSU1dFosuV4oXGT0jsARPIul2ruFohr17TfYxfNG746pSQJ7ftDNzHdmINyoj7hR6bIZrcS05HK51q5d63A4jh07ltYHzU6nc/PmzQ899FBhYaGpggg3fIMBcdDpE0fuX/qmTaSLxLSmxKXKO4zeCWCC6Km01X5ScC9SB15k8ex66lrq5udF/jS4cOMn/sKEZwbCjfqIG5UuawmqSm8+tDcyMtLR0dHV1TXjnzc8Hk99fX1DQwPfIQQWRLjhGwz4gsae/2fb81/neCGZnuCcnXO/LvdotgQ1MhJ//jvyoZ8xla4/vIz4jVvyb3yQ44U08Zkf9RE3Kl22oZWYjhRF8fv9hw4d6u3t7e/vHxsbm5iYyM3NLSgo8Hq9VVVVPp+vpqYm84eggwURbvgGA6ag6K/uVM6+nOF+kstyPvA6cxQYvRdGUgZejO39X2rwhNE7Yjri/BWO5se5X04Tn/lRH3Gj0mUPus2ljkRR9Pl8Pp9P7yBVVVVVVRRFUZTJS+vED2VZnvJzAg9sMOAL0nt4q2MDytlXtNhTchlqbELI7pWYOP+GnI//Id69K/7qTxmj8/C7lIEX1dGAUODlezlNfNxkWfb7/T09Pb29vYFAYHx8PPEuPz8/v7S0tLKysq6urra2VpKkDIPApgl88A1vsFFnOfSZmLUFg8HOzs6urq7h4eHpf9Ptdq9du7axsdHtdsPsGyEZghne8Vd/Gj+wnW8PyQwEyfmZI8yRb/R+mILS91T0j3/LoqNG74iJ2G7ebrv2M+m+iiY+blQ688PXR/hapC1aiVlVNBptb29vb29P67anDodj48aN69evt9vt+u0bIRmCHN7RXzUoZ19Kfx/JzMTiOsem3+u3fWXwkHreL85fIXgqGRP0C9KKOtwXfeJ+9cLrRu+IWQTtZUX3Pp36AUsTHzcqnfnh6yN8LdIDrcQsKRAItLa29vX18b184cKFLS0tZWVl2u4VIZqAHN7q2EDkZyvoO2M6sS1/0LZ6i37bj+/fHu/5KWOMOQrEedeK828U568Q569gNqd+oZmKjUd/f59yer/R+2EKqsq+eeK2+7+4PZUDliY+blQ688PXR/hapBO6i731+P3+LVu2DA0NcW8hFArt27dvyZIlJSUlGu4YIZkDHt7y0V8op/7EnUWmZ7v+84K7Qr/tx5/9pjoxxBhjclQNnVICz8rHfhV/5cfKqT+pwydYPMxyiwSzrcokh1R1p3LhqDpM9/BggsBOno/8ePfzMx6wNPFxo9KZH74+wtci/dBKzGIOHz68Y8eOcDic4Xbi8fjBgwdramqKi4s12TFCMgc/vOMHv66OBTKMI5cnSPYPfpNJOTptXg0Pxw/uvMznmaqsjp1RBl6Qj3fIr/xY6d+vTgwJOQVC7lyd9iRtok2qvEM5T4sxxhjLt8lPnXRPf8DSxMeNSmd++PoIX4t0RSsxK+nv73/44YczH9wJsix3d3evWrXK5XJpskFCMgE/vNXxwfiB7fTVRJ2IxT7Jd69+21dPPy2/MeM90FV1NKD0H5D9/yEf+YUaPCEwVXAtZKLRt+cSRKniw0rgWXXsjMF7YjRPTmxP/9zxKLvSAUsTHzcqnfnh6yN8LdIbPYjAMqLR6K5duyYmJjTc5vj4eGtraywW03CbhHAwZHgrp/YxVdEwkUwmelfqun2l/9m0fl8dOyO/9vPo7z4d/te62L4W5Uy3wYtwm9O+7meCZ7GR+2ACgsCumxtiVzhgaeLjRqUzP3x9hK9FAGglZhnt7e0nT57UfLN9fX27d+/WfLOEpMWQ4a2celrzRJIkelfrun0l8AznKyMh+bX/P/rr5sh/3hx/+YdqJKTpfqVBcLodt/9Evy9wWsV1RSOJ/7j0gKWJjxuVzvzw9RG+FgGglZg1BIPB9vZ2nTbe1tY2MjKi08YJmZExw1tVlP4DOoUSJkjC/Bv127waGVEuHM10IyNvxZ/5ZuTfb4w/83U1/LYmO5YuYU61ffXXDIk2j2VzQpLwzueTkw9Ymvi4UenMD18f4WsRDFqJWUNnZ2daT2NISyQS6ejo0GnjhMzIkOGtDB1WL17QKZSIc2uEHB2/1q+e6dbsm6XR0fjL/xz5j9Xx579ryGOXpbr7RO8q+FzzyLPJVe7xxH9PPmBp4uNGpTM/fH2Er0UwaCVmAbIs7927V9eIPXv2yLKsawQhl2XU8KavJupK76WFEkjvIrGZRUfjz38n8vP3yyd+p/GWZybYbtnBhKyejq8revc7ookDliY+blQ688PXR/haBCarT/1W4ff7g8GgrhHDw8NHjhzRNYKQyzJqeNNKTFdiqdVWYowxxtSJwdgTD8Se+qwa1ndMTiEW1UhLmyETzSZ5qRj78wFLEx83Kp354esjfC0CQysxC+jp6UGTQsgUxgzv6Jhy7iWA3CwlSELpTfptXo2MKOd1nI/l4x3RtnVq8Lh+EZeyrfhiNn8sVpY/UeCIJ//Z09NDEx83Kp354esjfC0Ck73nfQs5fhziDUFvby9ACiFTGDK8lTPPMRntLXENJxZdo/NFYs/p/fgBdeRk5FcNkPd0EQrLxIUfAIszG0Fg1e6x5D97e3tp4uNGpTM/fH2Er0VgaCVmAQMDAwApgUAAIIWQKQwZ3srACwChWUtcYNb716clEor+9i+Vs3CfndqWfRIsy4SW/vmmHYyxQCBAEx83Kp354esjfC0CQysxCwiFIB53MzpqwE3DCDFkeCtnXwQIzVpiqc7PdA5067r9d8XDsd/dq4a0fzzOZYlla5mjACbLhKo9734mNjo6ShMfNyqd+eHrI3wtAkMrMQvQ766gk4XDYYAUQqYwYHgrcWXwEEBolhJEnS8SC+l6kdjUuIvno7+7D+i7rKItm29nX+Ead4jvfOk0HA7TxMeNSmd++PoIX4vA0ErMAhwOB0CK0+kESCFkCvjhrZw/wmLj0/wyyYRYdI2QU6jf9tUzzzEV9EbG6oWj8Vd/DJMlLXw/TJAJ2QR1ceFE4r+dTidNfNyodOaHr4/wtQgMrcQswOXS8dr3pIKC7P1WDDEQ/PBWAa/8yUL6P0kM5CKx94q//CM1AvHdG2H+CoAU01rqfuerRwUFBTTxcaPSmR++PsLXIjC0ErOA0tJSgBSv1wuQQsgU8MNbOfcyQGLWEr16365DlyeJzSASUt74NUCO6C4HSDGt5E07vF4vTXzcqHTmh6+P8LUIDK3ELKCyshIgpaqqCiCFkCngh7cyQLfr0A2ui8Qmk9/ogIix5wm5cyGCTKm84J1vJ1ZVVdHEx41KZ374+ghfi8DQSswC6urqAFJ8Ph9ACiFTAA9vNfy2GjoFkJid8F0klqSce5nFJgCCBNdVACnmNNsZy7fHGWM+n48mPm5UOvPD10f4WgSGVmIWUFtb6/F4dI3weDw1NTW6RhByWcDDWz3/uq5ZWQ7lRWJ/zo4rw29CBNlmQaSYVVn+xcQBSxMfNyqd+eHrI3wtAkMrMQuQJGnNmjW6RtTX14siDQZiAODhrb59TNesLKf7SuwM1JPELmsM4tGlTLRBpJhVmWsiccDSxMeNSmd++PoIX4vAIGwSSo2NjfrdIdTpdDY0NOi0cUJmBDm8FVqJ6UcQhfk36rj96Kgy9JqO25+JKkM8MIeJEkSKWS12R5MHLE183Kh05oevj/C1CAatxKzB7XZv2LBBp41v2rSpsFDHSzsImR7k8FYv0EpML+KcqwWnjt9OUYy7SCxBkCAemMMUBSLFrOoW5CQPWJr4uFHpzA9fH+FrEQxaiVlGc3Nzebn2NziuqKhoamrSfLOEpAVseKvBNzRPIQkC4ovEEvJA7mo4MQiRYlYu5RxT4sl/0sTHjUpnfvj6CF+LANBKzDLsdntLS0tubq6G28zPz29pabHZsvqyBGIGMMNbHT+nhoc1jCCT6X+7DiOeJPYuQXQvBohRJ4YAUsxLjk6+uylNfNyodOaHr4/wtQgArcSsxOv1btmyRauv4Tocjr/7u7+DeRgfITMCGN7qBbpxom4EUSxdqeP2jb5ITHAvYo4C3WNUWb14QfcUc5vynAma+LhR6cwPXx/ha5HeaCVmMbW1td/4xjcKCjJ9Q5CXl7djxw6U9wMl1qX38FaHT2S4ZXIlwpxqwenWb/uGXyQmLvwAQIo6GjC2mWZw6RP/aOLjRqUzP3x9hK9FuqKVmPUsXbq0tbW1oqKCewsVFRXf+c530A9uYkW6Dm91tD+DXSPTEb2rdd2+0V9NZNLidQAp6oWjACkmd9lnr9PEx41KZ374+ghfi/Qjbd++3eh9IGlzuVxr1651OBzHjh2T5TT+gOp0Ojdv3vzQQw9hvQUNQUC/4S0f+S/1bbpjhy5s139W9FTpt/149y51/Jx+25+e4Km03/wwY4LeQXLvb4y/MYnRhNx5UtWdl/6cJj5uVDrzw9dH+FqkE0FVVaP3gfAbGRnp6Ojo6uoKBoPT/6bH46mvr29oaMiSkU0Q0Hx4R9vWKede1XQfCWOMMUHMuatL8Cxmgj7PwoqOhn9aY+DX9uy3fl9a2gwQFP3NJ5WTewGCzEycu8zx8Sen+QWa+LhR6cwPXx/ha5G2aCWGgaIofr//0KFDvb29/f39Y2NjExMTubm5BQUFXq+3qqrK5/PV1NSgfDY5QU/D4R351+vU7L5FuE6EomtyPvFHpso6rcSUt7qiv71Hjy2nQpx/g6P5cYAPxJgSD/9LLYuO6h5kco4C5wMz31yHJj5uVDrzw9dH+FqkFbQ3hTQDWZb9fn9PT09vb28gEBgfH08Mu/z8/NLS0srKyrq6utraWknK9L2LqqqqqiqKoijK5KV14oeyLE/5OTewFoEBaxGVjpsoij6fz+fzZbzH0Wy/P7hu3rl/vU4fiBn7JLEcl/3Wf4JYhjGmDB2mZRhjjEVH1ciIkDPDH8XBJj4w+N4zgME3w+J7X4dv1GmFPhPTRTAY7Ozs7OrqGh6e4eFFbrd77dq1jY2NbjfPbcfwBYGh0nGzaIvU4b7Iz282ei9wsn/0X6SKj+i3/eiv7lTOvqzf9q/INsvR+F/i/Bth0uLPfiv+0g9gskwu5+4/CVe+7NCip6Bp0HzEjVpk/sGAr4+0RSsxjUWj0fb29vb29mg0mvqrHA7Hxo0b169fb7fbszYIDJWOm6VbpPQfiD7+cQN3AC1BzLnvkOD06BgRG1fOPKf0H1BOH1DOH2EMYtoScufa1/2bOO86gKyEyM9vUYffBIszM8f69ss+ns7Sp6DLovmIG7UowcyDAV8f6YFWYloKBAKtra19fX18L1+4cGFLS0tZWVkWBoGh0nGzeovkY+2xPz5kVDpiwpyrc+7aAxanht9WAt1K4Fkl8Kz69jGmKnqkSJXrbB/4pjCrSI+NX5Zy9uXory5zw8DsZL/9J1Ll1McGWP0UdCmaj7hRi6Yw4WDA10c6obvYa8bv92/ZsmVoiP9ClFAotG/fviVLlpSUlGRVEBgqHTcELVIDzyqn9hkSjZu0pFEq+xBYnGCbJc6uksrW2JbdI/k+LZZcL+bOY5JDjYwwOY0/u16eaJPKb7N/qNV23YOCPVeL/U1V/Llvq+dfg0w0M2nB+8Tiusk/QXAKmoLmI27UokuZbTDg6yP90EpMG4cPH96xY0c4HM5wO/F4/ODBgzU1NcXFxVkSBIZKxw1Hi5RT+wx/OjBKtuWfFWfr+CSxaQi2WaKnUiz7oHT1x23Xf05a2iyW3iQWLmL2XBYPs9h4qttxesQF75Nq/9Je/w/SNXcJBQt03e1LqRODsX1fYUocONe0xHnXid53v52I4xQ0Gc1H3KhFV2KewYCvj3RF307UQH9//5e//OWJiQmtNpiXl/fII494vV70QWCodNzQtCi2f6vc8yhwaBYQcu4/JDhnG70blyNH1dApdfS0OnFBjQRZeJjJsXf/V3uekF8izCoS3BWCu9y4vWSMsfiBHfFXf2LsPpiK5LvX/v6/T/w3mlNQEs1H3KhFMzJ8MODrI71l3W37NReNRnft2qXhmGOMjY+Pt7a2xmKxyT/EFwSGSscNVYvCI9CJWUCYU23SZRhjTHIInkrxqg9J1RtsdZ+x3fQV2+qvvft/K/5Wuvrj4qK1hi/D1NH+uP8/jN0H07l4PvH/UZ2CGGM0H2WAWpQKegNpObQSy1R7e/vJkyc132xfX9/u3btxB4Gh0nHD1CI1Sisx7YkLVhu9C5YXP7CDxTP9Gg8yavidu11jOgUl0HzEjVqUInoDaS20EstIMBhsb2/XaeNtbW0jIyNYg8BQ6bhha1F4hieZEA6XvdU4SZ385hPyid8bvRfmEw8zfKcgmo8yQC1KC72BtBBaiWWks7MzrYckpCUSiXR0dGANAkOl44asRWoE50ncUMLk2yqQdKljA/G9XzF6L0xJDjN0pyBG81EGqEVpoTeQFkIrMX6yLO/du1fXiD179siyjC9I14jJqHTc8LWIxS/CZWUHU18kZn7xcOyJz6jhoNH7YUZKLIzvFETzETdqEQd6A2kVtBLj5/f7g0F9J9Hh4eEjR47gC9I1YjIqHTd8LXrPffOIFkTvKqN3wbKUeOwPn1POvWL0fphULDyK7xRE8xE3ahEHegNpFbQS49fT0wOTgi8IIAUyi0pn8pR3qAj/lmYs+moiJzkWe+pB+c0njd4P84qHx/Gdgmg+MnkWyhbhCwJIAWYzegcs7Pjx4wApvb29MJ/GQgYBpCTg6yOAlASw0gGkvEOhz8S0JYilNxm9D9ajhodjTz6g9B80ekdMTVAi+E5BNB9xo8HAh95AWgKtxPgNDAwApAQCAZinb0MGAaQk4OsjgJQEsNIBpCSoShwsKxsIc5YKs4qM3guLUQZfjT31OXXkLaN3xOxENY7vFETzETcaDHzoDaQl0EqMXygUAkgZHR1VFAVZEEBKAr4+AkhJACsdQMo7aCWmKbpILD3xcPylH8Rf+icah6mQBAXfKYjmI240GPjQG0hLoJUYP/1u1jlZOAz0xE98QYz6KAPISscYrcQ0RiuxVClx+Xhn/Llvq6FTRu+KZcQVAd8pCFmLqHSZQNYifEGQ6I4d/BwOB0CK0+nEFwSQkkCl44avRUyhO3ZoiC4SS0F0VO55NPKfq2N//Dwtw9KiMBHfKYjmI27UIj70BtIS6DMxfi6XC2B1XlBQoKoqsiC9I5Lw9ZHeEUlgpdM74l2iRB+LaUXvi8SUwVeVk/vEkhvEkuXMnqdfkB7USEg59SflrT3ym0+y2LjRu2NJiirgOwXRfMSNBgMfegNpCbQS41daWjo4OKh3itfrVRQFWZDeEUn4+kjviCSw0ukd8S6bk0XH4OJQE0v1vX+9cuKJ+Es/YIwxQRKLrhbmrxDnrxBLbxLySnTNzZSqxJ/7dvzlH9GaP1OiDd8piOYjbjQY+NAbSEugbyfyq6ysBEipqqrCFwSQkkCl44avRYKUA5aFnuhdrev2lcAz7/yXKitDfvnQv8We+mzk366P/Nvy2JN/Jfc8qgweYgziVl3pEUTbyq86PvqoULjI6F2xNlGy4zsF0XzEjVrEh95AWgKtxPjV1dUBpPh8PnxBACkJVDpu+FrEaCWmGUHfZzrHxpXBQ5f9X9Txc3Lvb2P7t0Yf+0jk0brYkw/IR36hjuv+h9i0iIvqczbvs634IpPsRu+LVdlyZuE7BdF8xI1axIfeQFoCfTuRX21trcfjCQaD+kV4PJ6amhpVVZEF6bf9KfD1kX7bnwKsdPptfyobrcS0IcxeIsyao9/2lYEXUvl2n3rxgtz7O7n3d4wJ4twasWyNWLZWLLmOCZJ++5YqyWG76ctSVUOs638p514xem+sx5EzC98piOYjbjQYONAbSKugz8T4SZK0Zs0aXSPq6+tFUcQXpGvEZFQ6bvhaRJ+JaUXv+9crge40X6EqQ/74i9+PtjdGHvXFnvqsfLyDxS/qsnPpEGYvcTQ/blv+OcYEo/fFauy5+E5BNB9xoxZxoDeQVoGwSZAaGxv1u3Gn0+lsaGjAGgSGSscNWYsEG8K73xpC/5XYMzP/0hWo4WH5eEfsqc+GH62L/fEh5eReg2+eIdpsq7/maPhPluMycjesRsgpZOhOQYzmowxQi9JCbyAthFZiGXG73Rs2bNBp45s2bSosLMQaBIZKxw1bi2yzQOPQArhIrEeT7cjH2qO/+WTkZyviz3xTHQ1osE1e4lUfymnuEFwLDdwHaxFy3AzfKYjmowxQi9JCbyAthFZimWpubi4vL9d8sxUVFU1NTbiDwFDpuGFqkeCcDZyIkjB7ib5PEht4UdtPsdSJwfjLP4z85+rYk39t4CVbwuwljg2dwuylRu2AxTjdif+P6RSUQPMRN2pRiugNpLXQSixTdru9paUlNzdXw23m5+e3tLTYbO+5nwq+IDBUOm6oWjSLVmIa0P+ric/qs9243PubaNsd0Y5PGLUeE3KLHR97TJi9xJB0axH+vBJDdQpijNF8lAFqUSroDaTlSNu3bzd6HyzP5XJVV1fv379fluXMt+ZwOLZu3bp48eJsCAJDpeOGpkXquVeUM+neCoJMZVv+oKjnWiL+/LfVsTP6bV8NnZKP/Jdy7lWx2CeAL84Fe65UcbvS+xt6yPj0xEX1YulNif9GcwpKovmIG7VoemYYDPj6SG+0EtNGcXFxXV1dd3d3NBrNZDt5eXnbtm2b5jad+ILAUOm44WiR+vYx5eQ+Q6IREezv/3vBnqfX5uMXY/sfZqqi1/b/TB3pk1/7uRoelkpvAn7ql+DIF72r5WPtBt9KxNykyjvE4ncfT4TjFDQZzUfcqEVXYp7BgK+PdEUrMc0UFRWtXLny6NGj3I9TqKio2Llz54xLf3xBYKh03BC0SA2dUk78zqh0HITZS2zLP6vf9pX+Z+TX2/Tb/nuoinruZbn3N2LxMqHACxTKGGNMyCsWcouVvj9AhlqLtLRZnPOea+oQnIKmoPmIG7XoUmYbDPj6SD+0EtOSy+Vau3atw+E4duxYWh/LOp3OzZs3P/TQQyneGQZfEBgqHTfLt+jiefn1Xxm5A9YnVd4pLVqr3/blo79Uzjyn3/YvIzIsH2tnkkOcfyNkrDi3Vhl6TR0+ARlqIba6e4WCBVN+aPlT0CVoPuJGLUoy7WDA10c6EVRVNXofEBoZGeno6Ojq6prxjwEej6e+vr6hoYFvwOELAkOl42bRFqkXjkb+u97ovbA2++0/lirv1G/70fZGZeBF/bY/Dal6g/1DrZCP/1bHzkT+aw2LjoIlWkjOPd3T3PTfoqegadB8xI1aZP7BgK+PtEUrMR0piuL3+w8dOtTb29vf3z82NjYxMZGbm1tQUOD1equqqnw+X01NTeaPDMcXBIZKx81yLVIvno88Wjfz75ErEnLufUXInavX5uMXwz+9mskxvbY/E7F0pePO/2D6XQV3ifjz340//x2wOMsQJOeDbzJxhlulWe4UNCOaj7hRiyjIutDeFNIMVFVVVVVRFEVRJq94Ez+UZXnKz7mJoujz+Xw+X+abmh5Yi8CAlQ4sSJZlv9/f09PT29sbCATGx8cTJ7v8/PzS0tLKysq6urra2lpJkjIMAhsMWrVImFXE7HksNp75LmUnYXaVjsswxpSBFwxchjHGlDPd0ScecNzx7zOuAbRiu/Yz8qFH1fAwTJxVCHnFqXQBzUfmDwJjufloRvgGA74DViv0mZgugsFgZ2dnV1fX8PAMU6zb7V67dm1jY6Pb7YbZNz74WoQPWB9ZNyjy32vVC69z7AlhjEm199g/+C39th/v3hV/8fv6bT9F0rK/tH/gm2Bx8eceib/wD2BxliDOX+FofnyaX6D5iCRZdz7KHlS66dFKTGPRaLS9vb29vT2te3c6HI6NGzeuX7/ebge9n3Iq8LUIH7A+snpQ9Hf3Kn1Ppb5BMhnii8SmsN/+E6lyHUyWGjod+Y9VjNFE/C5pSZP9th9e9n+i+YgkWX0+ygZUulTQSkxLgUCgtbW1r6+P7+ULFy5saWkpKyvTdq8yga9F+ID1EYKg+P7t8Z6f8m026yG/SGwyIW9ezl8cYPZcmLjor5vpmeOT2ZZ/zrb6a5f+nOYjkoRgPkKPSpciuou9Zvx+/5YtW4aGhri3EAqF9u3bt2TJkpKSEg13jBu+FuED1kc4gtSRN+nhznwET5Xt+s/pt30l8Kx89DH9tp+e2Diz54qlN8GkqZER5dTTMFmWIC35mDjv2ik/pPmIJOGYj3Cj0qWOVmLaOHz48I4dO8LhcIbbicfjBw8erKmpKS4u1mTHuOFrET5gfYQn6OIF+Y3prj8hVyJV3iEt0vEZAPLRX0A/SWxaavC4zXcfEzO97D4lkkN+7ecQQRZhu+4BwXXV5J/QfESS8MxHeFHp0pJ1N4vUQ39//ze+8Y20vgU7jWg0+vWvfz0QCGiyNT74WoQPWB9hChIK8X/PQSeid5Wu21cCz+q6/XSp44NK/36YLLGohuW4YLIsQZi9ZPI/aT4iVvCPKQAAIABJREFUSZjmI6yodOmilVimotHorl27JiYmNNzm+Ph4a2trLGbMJRP4WoQPWB8hCxIKy5mUFVcAa00QvSt13Hz8ojL4qo7b5yKf3AuUJIiipwooy/QE52wh992/f9N8RJKQzUcoUek40EosU+3t7SdPntR8s319fbt379Z8s6nA1yJ8wPoIW5BoGxF0fCIWVoKncvKbY80Z/iSxy1KHDoNl0ae1ScKcpZP/SfMRScI2H2FEpeNAK7GMBIPB9vZ2nTbe1tY2MjKi08avBF+L8AHrI5RBh/tN947f/KRrPqHr9s321cQENfgmWNaUy6KymTD73ZUYzUckCd98hA+Vjg+txDLS2dmp1XdhLxWJRDo6OnTa+JXgaxE+YH2EMqgvlKNTkKnZ83Luecb+kZ9ItfcI7oq0XioULLD5Pq3TfiUoATPew12NhuDCHHSd2DvESZ+J0XxEkvDNR/hQ6fjQSoyfLMt79+p7IcGePXtkWdY1YjJ8LcIHrI+wBp0cnaVrljlJV28SXGXS4nX2D34r5y/253zqRXv996TqDUJ+6QyvzHHZP/JTJum5fI1fVAZf0XH73FQF7IHLgs0JE2R+ydt10HxEkvDNR7pGGIJKx81m9A5YmN/vDwaDukYMDw8fOXJk2bJluqYk4WsRPmB9pCgKyiDFkX0rMUG0+e59zw/y50vVG6XqjYwxdeSkEnhGCTyrnH1RHXnP9/tF7yr7B7455UZ2mlMGXjThRWKMMSGnkDEBKEzXta6lJL+dSPMRScI38eEbdXTAcqOVGL+enh6YFLBhh69F+ID1kaIoKINGovaRqL3QYca3/joRr/rgNN9IFArLpMIy6Zq7GGNqZER9+5ga6mc2pzi3RnBB3EZCOWPGi8QYYyxvHlyWotdXeqxFKFwkOD2J/6b5iCThm/jwjTo6YLnRSozf8ePHAVJ6e3sBUhLwtQgfsD6C+Q6AIUF9odxri3Be+HtZtms/k+JvCjmFwvwb2fwbdd2fKZR+k67ExKJasCw1PAyWZWZiyfXJ/6b5iCThm/gAUoDRAcuNVmL8BgYGAFIgn2eHr0X4gPWRqkJcIWNI0LHhvOxZiQmeKnHhLUbvxZWZ9iIxxsR5dXBhkWwZkNObvBKj+Ygk4Zv4AFKA0QHLjVZi/EIhiDtrjY6OAqQk4GsRPmB9BPMlDUOCXg/mAySahK3uPriLndKnnH3JnBeJMcbERfVgWerEEFiWmQmTVmI0H5EkfBMfQAowOmC50UqMn34365wsHA4DpCTgaxE+yPrIkKDeUF5cFWwC0G3xDCTkFEpLm43ei+kogWeM3oXLE+ddC/mMLzV4AizLvOy54pzq5L+QnetIJpANBpSjDlkfQaK72PNzOBwAKU4n3N2N8bUIH7A+QhwUkcW3QllxB0Wp5m5mzzV6L6Zj2ovEpLr7IeOUYVqJMbG4jonv/nWY5iOShG8+AkgBRqXjRisxfi4XxLM4CwoKAFIS8LUIH7A+wh10bDgLvqAo2qRlf2n0TkzLrBeJCbOXSpV3gsWp4+dYFOFXbtIlltww+Z80H5EkfPMRQAowKh03WonxKy2d6aGoWvB6vQApCfhahA9YH+EOej0LVmJS+YeFggVG78V0THqRmCDaP/CNyR/O6E059zJYlplNvl0Ho/mITIJvPgJIAUal40YrMX6VlZUAKVVVVQApCfhahA9YH+EOej2YD3KLLCNJ14J+v46DEjDjVxNtK74geldBJqpnnoOMMynRJnpXTv4BzUckCd98BJACjErHjVZi/OrqIO5x7PP5AFIS8LUIH7A+wh00ErWfHsd8qZg4d5kI+1gwDkLRNWL5rcxhom+bSNd8wrbii8ChypkXgBNNSCy5YcpIoPmIJOGbjwBSgFHpuNG9E/nV1tZ6PJ5gMKhfhMfjqamp0W/7U+BrET5gfaSqKu6gV8+7rsq/qF+osaS6+4zehZlJi9dJi9cxJa4MHlL6Dyj9B5WzL7K4UbfGEmzLH7St+j9MgP0DZXRUOe8HTTQl8aoPTPkJzUckCd/Ep9/2jUIHLDf6TIyfJElr1qzRNaK+vl4U4foIX4vwAesj9EGvDBXqGmogIXeuVNVo9F6kTLSJJcttNzzkaPql8zOvO5p321Z+VVz4fsi7Pgp5JY51/2pb/XfQyzDG5Le6mBIHDjUh8aoPTvkJzUckCd98pGuEIah03BA2CVJjY6N+N+50Op0NDQ06bfxK8LUIH7A+wh30+nD+RFzSKdRYUu0nmQRxQ2HtSXZx/o22Gx5yNP638zNHHRs6bau/Ji3+qOBaqFOgkFNou+nLOXc/LZbfplPE9JQ3nzQk11QE52xxbu2lP6f5iCThm4/wodLxkbZv3270PliY0+lUFOXw4cN6bHzz5s3Lly/XY8vTwNcifMD6CHeQyoSqwnFvHrrHREp2+20/EOx5Ru9HxgRRyC8V598oVTXY6u6X6u6XFt4izKkWnB6mxFhkhLEMbroi5YgL329b8UX72kfEhbcYtnCVo7E/tTAZ4omoZiZV3C5Vrrv05zQfkSR88xE+VDo+dJ1Yppqbm5999tm+vj5tN1tRUdHU1KTtNlOEr0X4gPUR7qBXzrtWFA9rm2g4qbJRyC02ei+0J+QUCgtvERfe8s6/o2PK8Jtq6KQ68pY6clIdO8smBtWLF9Tw25dZ2DjyhRy3kDtXKLpGLLpGKLpGnLuM2Yy/ZYty6k8sOmb0Xhjv0ovEkmg+Ikn45iN8qHQcBBX9vZz1FwgEvvSlL01MTGi1wfz8/EceeQTm4QyXha9F+ID1EeKgImf0R+/X5a93BnJs+r1YDHEPK/OKjqqqkvyXYM+DfDhYWqK/vUd5q8vovTCaIOZ8+qVp/nxA8xFJwjcf4UOlSxd9O1EDLperurp6//79sixnvjWHw7F169bFixdnvilu+FqED1gfIQ4ajbAVc4fdOXjulyB4Ku0rvmDahQcQKUewOZP/B38TjhSpo/3x/3k4o+9YoiCW3mjz3TvNL9B8RJLwzUf4UOnSRSsxbRQXF9fV1XV3d0ejGX3jPy8vb9u2bWa4TSe+FuED1keIg+zqxLI5o5lkmUv47fjLP1L6/qCOnGJyRMidy6Qco/eJXJ786o/N+WxrYLbrHhTnXTf979B8RJLwzUf4UOnSQisxzRQVFa1cufLo0aPcj1OoqKjYuXOneZb++FqED1gfYQ16+oWjqwt7BYEvypRURR0/pwy8IL/xePyVH9OqzKSUeGzP37LYuNH7YTRBtK/5tuDIn/EXaT4iSfjmI3yodKmj68Q0FovFdu/e3dbWFolEUn+V0+nctGlTU1OTzWa6rxXhaxE+YH2EMujCo7e446dTT7EqyS4WXyt6V4neVWLJDZBP6yKXko/+P/buPb6Nq84b/0iyFMUXWWqDk1px0jh2SCtHoqG0CWxZiM2ybPnZ3lwM7fZheWCXy8IW2LaCfZI0l7YscQsFlsvysGVhuceoWRvaLhA7lCStoRfWseq0tVonrVW3CY3kixxZ0sw8f4hfMKnjWEea7xx99Xn/sa+tieZzvuecOeNjSTP7072fMrsV5rPWXuvYfP/C/z2uR3AOv+sRP+i6hcBOzBDj4+Pd3d29vb0X/WOAx+NpaWlpbW2trpb6ObP8KuKHbIyYBWWe/FrmkbsEmlfErGXWJVdal19nrb3GWnut4qgyu0ElRk3PfP/P9YmTZrfDfPa33mGb90tic8L1CM5hdj1iCV03P+zEDKRpWjgcPnbsWCQSGR0dnZqamp6eLi8vr6qq8nq9jY2Nfr/f5/MV0SPD+VXED9kYsQnSJ6Mz37m2dG+cYLFZX+fDroySOnBf+vDtZrdCAhbrovc/ZqlYJvZqXI/gHDbXI8bQdRdSEm/8mcVqtfr9fr/fb3ZDCoasIlVVw+HwwMBAJBKJRqOJRCJ7xlZWVtbW1jY0NAQCgaamJpvNhqDzkI0RmyBLlde69A3aK78z6Piy01Xt1DHt1DHlya8q1jJrTcDqfbN1+Vusl71JKXOa3TiO0tOZJ/7V7EZIwbrsauFtmMLxCssP2YVP13Vd1zVN0zRt9hsM2R+qqnrez+UPIsNvjIoO3hMDucRisZ6ent7e3nj8Io/cdbvdzc3NbW1tbrcbQZAPdeDf04d3md0Kydgc1mVvtC5/i3X5W6xL15f6nfELJ/Po57ATy8pcu6vyTR8yuxVgCH5XWH6XcnSdJLATA1mkUqlQKBQKhXK67anD4di2bdvmzZvtdnvJBkGe9GRs5j/eqKg5fKW4tJQttl52tbXuOutl11iXXoVdmTDt5SdToXZFL8BjdopdSrN+/JGrr//r92KtY4bfFZbfpRxdJxXsxEAK0Wi0s7NzZGRE7OV1dXXBYHDlypUlGAQFkf75P6jD3Wa3oghYFlVbvRttV99srQmY3ZZik0nO/Pgv9NhzZrdDCg+/dOlXw5crWOt44XeF5XcpR9fJBs8TA/OFw+EdO3acPn1a+AgTExOHDh1as2bNsmXzfeuAXxAUimWRS33mJ2a3ohioM3osYlvbYamqNbspRSZ99A7tRK/ZrZDFfzy94vdJh4K1jhF+V1h+l3J0nYSwEwOTDQ4O7tmzJ5lM5nmcTCZz9OhRn89XU1NTIkFQQJbqFeoz9yszF/kUOyiKopQttr/1DsWa7xe4S4r67H+V3MMSLuylxKLvDy8/959Y6xjgd4XldylH18kJOzEw0+jo6M6dO/M/XbNUVe3v79+4caPL5WIfBIVmUdIJbfSo2c0oAtblb7Fd0WF2K4qJFn00/d8fwtfDzuk+seyZeOXsn2CtK2r8rrD8LuXoOmmV3G37QR6pVGrfvn3T09MFPGYikejs7Eyn07yDwAi2K9+Le1EshLV2g9lNKCb6mWdTD35AUXP4wjpvqm759UuXvvbnWOuKFL8rLL9LObpOZnhPDEyzf//+I0eOFPyw8Xjc4XD4fD7GQWAEi71CPx3WYxGzGyK7smtvs1R5c32V+sz96rFvKelpy+JLLfYKIxomIe3UQLrnb5RkzOyGSOSxU55DLy2Z83/CWleM+F1h+V3K0XUyw3tiYI5YLBYKhQw6eFdX1/j4ONcgMI7tDXi60cWULbbWvEHgddrzD6lDP0j/4mMz33rDzH++OX3o02rkZ3qS8xfztBd/nfqvDn1a/DvrLP30xHxf+cBaV1z4XWH5XcrRdZLDTgzM0dPTk9PzJXIyMzPT3d3NNQiMY6291rr0KrNbITXrZVcrNoFnvOhatP+P/zFxUn3qe+n//vDMff7U/uszj3xWe+FhJXO2gO00nRr+z9RP/5eSmjK7IXJ5brzi2fHKef4B1rriwu8Ky+9Sjq6THHZiYAJVVfv6+gyNOHjwoKqq/IIMjQAFb4tdjNX7ZoFX6a8+oyfPzPU/qNqp/8k8+dVUz43Jb16ZOrA189i9+uRovq00lT59KvXA+9O/+mdFy5jdFun0nFx60X+Dta5Y8LvC8ruUo+vkh6+ngwnC4XAsZuwXJ+Lx+NDQkKZpzILWrVtnaArYGq7PPLpCn3jB7IZIyuoVuV2HFn3k4v9ITWnRR7Xoo1bvmy1Vyy/+76WkDndnHt6u44thczl91vHbV9wX/WdY64oFLuXCQWTTm98Y8VsZsBMDEwwMDNCkaJrGLIjfGiQdi83m/9+ZI3vMboeUhL8kFn00h4ji/ICoNvZYpn9fDpWWngdfWKrqloX8S6x1RQGXcuEgsunNb4z4rQzYiYEJhoeHCVIikQjNG9mUQQQpUHbljZnffkFJTZrdEOlYl71RsTlyf92ffEnMmAjz6Jr24q8zj39Ze+k3ZjdFatMZ26HoHDevnxPWuqKAS7lwEEFKFr8xIkghhp0YmGBsbIwgJRqN6rrOLIggBRRHZVnT+zJPftXsdkinwF8Smztio0hE8ow+8YLVs0axlwu8XIweG1af/on6TEifoljQil3v6JLpjG2B/xhrXVHApVw4iCAli98YEaQQw04MTDAxMUGQMjk5SfN2OWUQQQooimJb/9FM+Du48d15RL8klsMH9sR2YlrkgfSvPqNYrBZXnfXSKyyXrLFc8nqL+3JL9SrLomqBA16InjyjRfu16KNa9BH91acLeGTekqq158TF79VxDta6ooBLuXAQQUoWvzEiSCGGnRiYwLj7nM6WTCYJUlgGgcXpKfN/IPP4l81uiEzKnGLf4MrlS2KiES/1K4qi6Jo+flIdP6k8/9/n/ieL02OpvtxSfbmlYqlSucxSXmOpWGYpf53idFvsFYpt0dxH1FU9GVOSMT0Z02PP6/HntFhEj0X0+IiiUPzpl5mfv1Aznsrh4QdY64oCLuWSBykYo2KAnRiYwOFwEJxOTqdT0zRmQUZHwDm2qz6aGfy2MkPxB8WiIP4lsZcM/5LYPPdm1JMxPRlTXvndBSLLLPYKZVG1ovz/d5JIjeu6hnEvoKRq++kCbl4/G9a6ooBLuXCQ0RHn8BsjoyPoYScGJnC5XARnbFVVla7rzIKMjoBzLItcZf4PZh671+yGyEL8S2JnXzU2Ivacnjgl8EJFURQto8+MKzPjgi+HBXjg5OsmUrn9soG1rijgUi4cZHTEOfzGyOgIeniyM5igtraWIMXr9fILIkiBc8qu+nBhv2VU1AS/wUXwJbGFPKwMTDKdsT1wclmur8JaVxT4XWH5XcrRdfLDTgxM0NDQQJDS2NjIL4ggBf7IUWV7w9+b3Qg52BZZlwo9Sewlqi+JgZR+dnLpVHqht0w8B2tdUeB3heV3KUfXyQ87MTBBIBAgSPH7/fyCCFJgtrI3fMhSUWN2K8xnvezqC97cYj66Fl3oU7asy64W/ZIYHqYsqclU2YMnRU4frHVFgd8Vlt+lHF0nP3xPDEzQ1NTk8XhisZhxER6Px+fz6brOLMi448Pc7BVl13463XeL2e0wmeBjvl59Rj/7e2MjYs/piVcEXggEfvxc7cKfIXYO1rpigUu5cJBxxz8PvzEy7vhmwXtiYAKbzbZp0yZDI1paWqxWK78gQyNgTrYrOqw1FH/tk5ngN7hy+dwgviTGzGhice/oEoEXYq0rFvyusPwu5eg6+TEsCYpCW1ubwyHySaSFcDqdra2tXIOAmsVadt3eP97lvATZFhn+JDHx76HhS2KS+s7Ty1U957MGa11x4XeF5XcpR9dJDjsxMIfb7d66datBB+/o6KiuruYaBPSsl11tW/1XZrfCNNbL3ij4JbGXFvwlMcHvoeFLYpJ67JR74FWXwAux1hUXfldYfpdydJ3ksBMD02zZsmXVqlUFP2x9fX17ezvvIKBX9pYdYlsFBqy1Qt/gOvOsPn16oRFiXxKLP48viUkoo1u+P7xc4IVY64oRvyssv0s5uk5m2ImBaex2ezAYLC8vL+AxKysrg8FgWdmf3IqGXxDQs7hWlJXqHe3xJDHIyUMna15K5PxnC6x1RYrfFZbfpRxdJzPsxMBMXq93x44dhfpgscPh2L59+5yPF+QXBPTK3vRJi2uF2a0gZ1tkXbZe4HU5fklM7Hto+JKYdGIz9tDzl+X6Kqx1RY3fFZbfpRxdJy3b7t27zW4DlLSamppAINDf359KpfI5TkVFxa5du+a5wym/IKBmtVs9Deoz95vdDlLW2mtsV96Y++v0zK93KunpBUV4N9iuvCH3CCXz651KekrghWCcrz616sRkbn8Rx1rHAL8rLL9LObpOTtiJgfmWLFmyYcOG48ePCz+Jor6+fu/evatXry61ICBmqb5cHz+hv3rc7IbQsV3xHoGPDupnhjNPfs3YiPjzmSf+NddXgaH6X3H/5Lnc/nqNtY4NfldYfpdydJ2EsBMDKbhcrubmZofD8cwzz6iquvAXOp3OG2+88eabb17gTXX4BQExq3eDdny/kjlrdkOo6JqSmrLYyy3lly78Vv7acw9oJ3oX+I/Lrvkni6su13Zpzz2onfhlrq8C40xnbPv+p/Hsgh/ljLWOH35XWH6XcnSdbCy6rpvdBoA/Gh8f7+7u7u3tvejfUTweT0tLS2trq9i5yi8IyKjH96d7P2V2K8g5Kq1Lr7LWXWddfp31dU2KZb6vGaf/+yNq5KcLOqxtkfNDxwXuS5n+xcfVZw/k+iowTmbjHfc/VYa1DhSOV1h+l3J0nSSwEwMZaZoWDoePHTsWiURGR0enpqamp6fLy8urqqq8Xm9jY6Pf7/f5fPk/bZ1fENBIdb9Xe/Gw2a0wz0V2ZfrMt65a4C3srcvf7GjvEmjCzH+8UU+8LPBCMILVu9Hx112KYsFaB+fwu8Lym97oOtOxvSkkFDVd13Vd1zRN07TZfyzI/lBV1fN+Lsxqtfr9fr/fn/+hJAniR1XVcDg8MDAQiUSi0Wgikcgu35WVlbW1tQ0NDYFAoKmpyWZb6GeiChJkf/vdMz96h5KaLESJRSg1pb14+A970dfsyvRYJIcniYk9rCw+gm2YRMoW2zfdk/3wKtnqTbYy8EPWdbiUyw9dZzq8JwZyicViPT09vb298Xh8/n/pdrubm5vb2trcbjdN24AY2WQQC1Kf/kn64CcE4hizON3W2g2KtUyN/GyBL3H89U8EbtehDv0g3Xdbrq8Cg9jf9i+2pvdJfsIKBPGDMQKQDXZiIItUKhUKhUKhUE63PXU4HNu2bdu8ebPdbjeubUCMbDLkGaT0fUId7l74C+F8wl8S++U/ltrjBKRlXblJeee/h0L3y3/ClvJlolgW1VIeIyhN2ImBFKLRaGdn58jIiNjL6+rqgsHgypUrC9sqMAXZZMg/6NOf+oelR/+3PhkVOwLgS2LFzrJ4yatv++6+L99XFCdsyV4mimhRLdkxgpKFu9iD+cLh8I4dO06fXugXS15rYmLi0KFDa9asWbZsWQEbBvTIJkNBgvoePvqmv/gb1+lDioI/aYmwre0QepLYSOaJLxvRHsiRZeyKfw7u+3axnLCleZkorkW1NMcIShl2YmCywcHBPXv2JJPJPI+TyWSOHj3q8/lqamoK0jCgRzYZChh06Innmq97k3OihJ71XEDaqWNa9Kg+/YqiWCwVS+e/M/4fX4Unickh7v3rT/3774rrhC21y0QxLqqlNkZQ4vDpRDDT6OjorbfeOj09XagDVlRU3HPPPV6vt1AHBDJkk6HgQe6qxV//q1dtMWzG8mOvsC5bb627znrZNdalVynWC97aF18Sk0HG1fDR/146PpXvb97nkJ2wpXOZKN5FtXTGCKDkbtsP8kilUvv27Svg2q0oSiKR6OzsTKfTBTwmECCbDEYExSfP3v3k5RYnbvyVn3RCe/Fw5pHPpkLtyW9emep+b+bJr2pjjyla5rx/qEX7TWkg/JGj6t6BVQXchimEJ2yJXCaKelEtkTECUPDpRDDR/v37jxw5UvDDxuNxh8Ph8/kKfmQwDtlkMCho7ExieeAv62Z+hy+MFYaW1ide0F48rB7/UeZ/vvnHTzCW1+gTL2Qe/5LZ7Stxlt8sfs9Pjr5Q8OOSnbClcJko9kW1FMYIQMF7YmCWWCwWCoUMOnhXV9f4+LhBB4eCI5sMhgZ9rXtA9X/EoIOXtNnvld23LvXQ35ndoFKXafr7f/3ZsEEHJztheV8meCyqvMcIIAs7MTBHT09PTg8bycnMzEx3N57yVDTIJoPRQfePeK0rNxl0fFAURUlN6q8+bXYjSpq17q33n1zB44RlfJlgs6gyHiOALOzEwASqqvb19RkacfDgQVVVDY2AgiCbDARBvzzYa23+ksWFh+EATxZXnbXly719vzI0heyE5XqZ4LSoch0jgHOwEwMThMPhWCxmaEQ8Hh8aGjI0AgqCbDLQBB1/LjrScFtStRkaBGCCssWOv/rWU5GXOJ2wLC8TzBZVlmMEcA52YmCCgYEBNimQJ7LJQBb028jkl46t0nQLQRwAEYvV/o4vWZZcye+EJUghhjECKCIXfGALgHGGh436tvdskUiEIAXyRDYZaD7ikg0aOF3978frPnRl4W8uB2CKsrfcblt9vcLxhCVIIYYxAigi2ImBCcbGxghSotEoQQrkiWwy0DzF/lzQwdHX1VUm37XiFEEogKFsTTeVveHvs/8/vxOWIIUYxgigiGAnBiaYmJggSJmcnCRIgTyRTQZN04iDvv308iXO1Jtq4gS5AAaxXt5i//PPnvtPficsQQoxjBFAEcH3xMAExt30drZkMkmQAnkimwz0Qbpi+dfBy09MlhPkAhjBuvQqx1/+m2L54x1o+J2wBCnEMEYARQQ7MTCBw+EgSHE6nQQpkCeyyWBKUFK13fVEw9j0IoJogMKyVK+0v/vbStni2T/kd8ISpBDDGAEUEezEwAQul4sgpaqqiiAF8kQ2GcwKGk/Z9z7++tNJbMagmFgqL3O0/dCyeMl5P+d3whKkEMMYARQR7MTABLW1tQQpXq+XIAXyRDYZTAx6NWm/4/HG+IydoAEA+bMsXuJo++Gczyjnd8ISpBDDGAEUEezEwAQNDQ0EKY2NjQQpkCeyyWBu0MvTi+58onEqjSc+g+wszksc7T+2eOZeP/mdsAQpxDBGAEUEOzEwQSAQIEjx+/0EKZAnsslgetALU4s/+2TjWRWbMZCYo8re+j3LpWsv9L+bfh4VPIgghRjGCKCIYCcGJmhqavJ4PIZGeDwen89naAQUBNlkkCEoMl7R+eTqpIqFF6TkqHS0/dBaM9+v1zKcR4UNMjTCFBgjgCKCXwjABDabbdOmTYZGtLS0WK2Y3kWAbDJIEvRUrOqzTzZOZ/DOGEjGUeX4/75rXXrV/P9KkvOogEGGRpgCYwRQRDC/wRxtbW3G3QDX6XS2trYadHAoOLLJIEnQ07HKvY+vmUqXGdQSgFxZFlU72n5oveyahfxjSc6jAgbxgzECKBbYiYE53G731q1bDTp4R0dHdXW1QQeHgiObDPIEPT9Rfvtv18RTuJsimM9SXuPYfP9F3w07R57zqFBB/GCMAIoFdmJgmi1btqxatargh61vtWbNAAAgAElEQVSvr29vby/4YcFQZJNBnqDRxOI9j605k8RmDMxkqVru2HJgnlt0zEme86hQQfxgjACKAnZiYBq73R4MBsvLywt4zMrKymAwWFaGz30VGbLJIFVQNOHc8/jrT5816rM9APOzeBocW7st1Zfn+kKpzqOCBPGDMQIoCrbdu3eb3QYoXS6Xa+3atYcPH1ZVNf+jORyO22+/ffXq1fkfCuiRTQapgqbSZY+8fEnTJZOeRen8GwOwcNaagKP9x5byGrGXS3UeFSSIH4wRgPywEwOT1dTUBAKB/v7+VCqVz3EqKip27dqF290WNbLJIFVQUrUdGbt0RdXZ2oqZfBoDsHC2+nc53v1tyyJXPgeR6jwqSBA/GCMAyWEnBuZbsmTJhg0bjh8/HovFxI5QX1+/d+9e/AmNAbLJIFVQRrc8+oqnypFpqJ4WawzAwtkCH7Q3f16xFeBjsVKdRwUJ4gdjBCAzi67rZrcBQFEUJZ1OHzhwoKura2Ymh3cGnE5nR0dHe3s7PlDOCdlkkC3or1a88rdroxYFyzIYw2Kzv3Wvbd37C3tU2c6j/IP4wRgByAk7MZDL+Ph4d3d3b2/vRf+o5vF4WlpaWltbcZdbrsgmg1RBb1l25qO+Ew4bVmYoNEeV4y+/YV3x5wYdXqrzqCBB/GCMAGSDnRjISNO0cDh87NixSCQyOjo6NTU1PT1dXl5eVVXl9XobGxv9fr/P57NacfNP/sgmgzxBb1q1eOXwPn1yNM8ggHMs1Zc7rv+W5ZLXGx0kz3mEy8SFYIwA5FGK7wKrqhoOhwcGBiKRSDQaTSQS2aWhsrKytra2oaEhEAg0NTXZbDazW1q6rFar3+/3+/1GB5FNBgQJ03Vd13VN0zRNm/2Xo+wPVVU97+fCyGbdRSs6W7HatvUB7eA/ai/+2ujGQCmwXt5i3XTvseEXB372nzhhc8XvdwZ51rpCTQYy/CYDmK603hOLxWI9PT29vb3xeHz+f+l2u5ubm9va2txuN03bgBjZZECQ/EFkcqqopfntW1acsD11n4KvjYEwiy2z7sP3j3gP9vbhhM0Vv4rI8Os6fhWBJEplJ5ZKpUKhUCgUyun+qg6HY9u2bZs3b7bb7ca1DYiRTQYEyR9ERriim9uuvObsfiU1aVzbgCuL85Ij9i1f/2kYJ2yu+FVEhl/X8asIpFISO7FoNNrZ2TkyMiL28rq6umAwuHLlysK2CkxBNhkQJH8QmTwrelND9acCJ8omny9sq4C3zCVNnU+s+J/hV8RejhOWU0Vk+HUdv4pANvyfJxYOh3fs2HH69GnhI0xMTBw6dGjNmjXLli0rYMOAHtlkQJD8QWTyr+ilMzO/PFl93bVvWDw1XMCGAVsWa6xu2yfuT598+SIfo5oHTljhI8hWERl+XcevIpAQ853Y4ODgnj17kslknsfJZDJHjx71+Xw1NTUFaRjQI5sMCJI/iEyhKppJq784ntrY9g+uqUElnShI24AlS5V3dO2OW/7vb6aTOTzNaU44YYXJUxEZfl3HryKQE+ed2Ojo6M6dO/M/i7JUVe3v79+4caPL5SrIAYES2WRAkPxBZApe0eGBk9d94AsV6Zf1OD6pCHOwNbz79PrPfeZz38QJK4BfRWT4dR2/ikBabJ/hkEql9u3bNz09XcBjJhKJzs7OdDpdwGMCAbLJgCD5g8gYVNG+L/275Z3ftF+3R7EtKuCRoegtctnf+TV9079+7t6v44QVwK8iMvy6jl9FIDO274nt37//yJEjBT9sPB53OBw+n6/gRwbjkE0GBMkfRMbQitY1/y9bw/X6q8f1yWjBI6DoWFe83dH6Petlb8IJK4xfRWT4dR2/ikBmPN8Ti8VioVDIoIN3dXWNj48bdHAoOLLJgCD5g8gQVGTxNDg2h1IbP5vIlBkUBPKzON32t+9ztH7PUlmLE1YYv4rI8Os6fhWB5HjuxHp6enJ67ENOZmZmuru7DTo4FBzZZECQ/EFkqCqyHAgrnzpy5W9e8RiUBTKzNbzbcdNhm++m7H/ihBXGryIy/LqOX0UgOYY7MVVV+/r6DI04ePCgqqqGRkBBkE0GBMkfZGjEbMRdF0/ZPz9Q3/m7hjNJPD+0VFhcKx1tP7T/5TcszkuyP8EJK4xfRWT4dR2/ikB+DD/WEg6HY7GYoRHxeHxoaGjdunWGpkD+yCaDpmkIkjyI7IQ1ZdY9frp6KObrWD32zhWnbBbd0HQwk21R2VUfLrv6E0qZc/aP+a11/E5Yfr8z8Os6fhWB/BjuxAYGBmhScCLJj2wyaJqGIMmDyE5Ys2bddMb27WeW//zF193QGN2w1NhfJsAU1stb7G/da3GtfO3/xG+t43fC8vudgV/X8asI5MdwJzY8PEyQEolECFIgT2STgebDBgjKJ4ggJcvcWTc2vegLA/XrLp3829e/uKLyLEFLgIC1JlD2Z7ustdde6B/wW+sIUrLwO4Mwfl3HryKQH8Od2NjYGEFKNIqbRxcBssmg6xSfB0NQPkEEKVkyzLrBV6s+/egV76w7vXX1S5V2fCehiFkqLyvb+M+2129WFMs8/0yGWVfYIIKULPzOIIxf1/GrCOTHcCc2MTFBkDI5OUmQAnkimww0n9hBUD5BBClZksw6Vbc8+ELNr1669N0rX/mrlafKy7AfKzIW5yW29R8p839AKVt80X8syawrYBBBShZ+ZxDGr+v4VQTyY7gTM+72o7Mlk0mCFMgTs8mAIPmDFMlm3XTGtv+52gdfWPquFa9cj/1YsXBUljX9bdnV/6g4qhb4CqlmXREFKey6jhK/ruNXEciP4V3sHQ4HQYrT6bz4PwKzkU0GBMkfRJCSJWHXTaVtXc/V/uORpu6RZTMqw2WfD0dl2fqPLfrbx8re/H8Wvg1TpJx1eQYRpGTxq4gMv67jVxHIj+F7Yi6Xi+DvDVVVOVwjwSxkk0HXdQRJHmR0xDnSzrrJVNn3h70PvFDTuvLlTctfxftjUrE43bZ177e94UOWRdUCL5d21gkHGR1xDn5nEMav6/hVBPJj+MfR2tpaghSv10uQAnkimwwIkj+IICVL8q6Lz9j/89m6jz687ttPLz99luIPwDA/i2ul/bo9i/72sbJrbxPbhinSzzqBIIKULH4VkeHXdfwqAvkx3Ik1NDQQpDQ2NhKkQJ7IJgOC5A8iSMkqiq47q9oefGHpxw83df6u4dl4RQEbBgtnrfHbW7606KZf2wJ/p9jL8zlUUcy6nIIIUrL4VUSGX9fxqwjkx3AnFggECFL8fj9BCuSJbDIgSP4ggpSsIuo6XbE8frp6x2/X7npszW9fcav6fPdJh4Kx2W2NrY5tDzg6HrKt3apYC/A1gSKadQsMIkjJ4lcRGX5dx68ikB/D74k1NTV5PJ5YLGZchMfj8fl8xh0fCoVsMui6jiDJg4w7/nmKcdYdj1Udj1W5F6XfvPTMpuWv4pHQBrG4621Xvtd2xXssi5cU9sjFOOvmDzLu+OfB7wzC+HUdv4pAfgzfE7PZbJs2bTI0oqWlxWpl2HX8kE0GBMkfZGjEbMXbdfEZ+4MvLL31kSs/03/FwdHXJXGXxUKxLbI1vNvR9qNFN/26bP3HCr4NU4p51l0oyNCI2fhVRIZf1/GrCOTHcza0tbUZdytSp9PZ2tpq0MGh4MgmA4LkDyJT7F33/ET5/x1a8cnfXJO5Zqf1sqsVBZ9aFGKxWmuvtb/tX5wfHLD/5TesddcZ2pPFPuteG0SGX0Vk+HUdv4pAcrbdu3eb3YbCczqdmqYNDg4acfAbb7xx/fr1RhwZjEA2GRAkfxAZHl237b03veEd77NdeYPtyhusVV4lndATLyuKbkQWM5ZL1pRd9WF7y71lgQ9aawKKbRFBKI9Zx/uE5Ydf1/GrCCTH8z0xRVG2bNmyatWqgh+2vr6+vb294IcFQ5FNBgTJH0SGU9dZKi+zBf7OseW/Fr3/Mft1e6yXXaNY2F478mCxLr2q7M92LXr/Y4tuPFS2/mOWimXELeA064jxq4gMv67jVxHIjO3V1G63B4PB8vK87gt8nsrKymAwWFbG8DYnvJFNBgTJH0SGZddZKpbZAn/n2HJg0fufsDd/wdbYZnFeUsDcYmRxum2NrfaWLy76wO8c235W9oYPWSopHkk0J5azjga/isjw6zp+FYHMeH46Mcvlcq1du/bw4cOqquZ/NIfDcfvtt69evTr/QwE9ssmAIPmDyDDuOoujwvq6JlvD9WVXfcS66i8s1SsVRdETY4qu5d+AomC5ZE3ZFe8tu+YW+5/fZWtstS7xWexSPJaN8awzGr+KyPDrOn4VgbQ478QURampqQkEAv39/alUKp/jVFRU7Nq1CzceLWpkkwFB8geR4d91FoulYqn1smtsa7eWBT5oXfZGS9VyxWLTz76qaJl8WiIdm8O6bL1tzV+Xrf9Y2Z/fWXbVR6x111mqV0r4QU3+s84w/Coiw6/r+FUEcrLoOv+vX0ej0bvvvvv5558Xe3l9fX0wGKytNe0DJ1BAZJMBQfIHkSnFrtMy2u+H9Jef0F55Uht7Qp84WYBjkrNU1lpe12S97GrrZddYawKKzag7qhmhFGddgfCriAy/ruNXEcimJHZiiqKk0+kDBw50dXXNzMws/FVOp7Ojo6O9vR0f7eWEbDIgSP4gMiXedXoypr/6tH7mWe3Vp/Uzz+pnntaTcSOC8mJbZL309ZYlV1ovvcJy6ZWWJVdanG6z25SXEp91+eBXERl+XcevIpBKqezEssbHx7u7u3t7ey/6AHWPx9PS0tLa2lpdXU3TNiBGNhkQJH8QGXTdOXrilH7mGT3+nD45qk++pE9F9YkX9enTNN80syyqtrhWWFwrLNUr/vD/uFZYXCsUK8PfmTDrhPGriAy/ruNXEUiitHZiWZqmhcPhY8eORSKR0dHRqamp6enp8vLyqqoqr9fb2Njo9/t9Ph8egl4KyCYDguQPIoOuuyAto0+9pE+9pCdeUWbG9WRcmYnrM+NKMq5n/zM9nUql0qmkNZPQdV3XdatFd9rUGa1MV6y6zVm2qMJR7rKULVJsi5SyxZbFlyjOSyyLL7EsvlRZvOQP/095jWVRyf2GhFknjF9FZPh1Hb+KwHSluBPjR1XVcDg8MDAQiUSi0WgikcguDZWVlbW1tQ0NDYFAoKmpyWazIYg9dB3Qw8ogjF9F/GB6y49f1/GbdfzGqFCwEytusVisp6ent7c3Hr/Ily7cbndzc3NbW5vbLfLNB35B/KDrgB5WBmH8KuIH01t+/LqO36zjN0aFhZ1YsUqlUqFQKBQK5XR/VYfDsW3bts2bN9vt9pIN4gddB/SwMgjjVxE/mN7y49d1/GYdvzEyAnZiRSkajXZ2do6MjIi9vK6uLhgMrly5sgSD+EHXAT2sDML4VcQPprf8+HUdv1nHb4wMwvzJziyFw+EdO3acPn1a+AgTExOHDh1as2bNsmXLSiqIH3Qd0MPKIIxfRfxgesuPX9fxm3X8xsg42IkVmcHBwT179iSTyTyPk8lkjh496vP5ampqSiSIH3Qd0MPKIIxfRfxgesuPX9fxm3X8xshQ2IkVk9HR0Z07d+Y/ubNUVe3v79+4caPL5WIfxA+6DuhhZRDGryJ+ML3lx6/r+M06fmNkNDzxoGikUql9+/ZNT08X8JiJRKKzszOdTvMO4gddB/SwMgjjVxE/mN7y49d1/GYdvzEigPfEisb+/fuPHDlS8MPG43GHw+Hz+RgH8YOuA3pYGYTxq4gfTG/58es6frOO3xgRwHtixSEWi4VCIYMO3tXVNT4+zjWIH3Qd0MPKIIxfRfxgesuPX9fxm3X8xogGdmLFoaenJ6enMeRkZmamu7ubaxA/6Dqgh5VBGL+K+MH0lh+/ruM36/iNEQ3sxIqAqqp9fX2GRhw8eFBVVX5BhkaYAl0H9LAyCONXET+Y3vLj13X8Zh2/MSKDnVgRCIfDsVjM0Ih4PD40NMQvyNAIU6DrgB5WBmH8KuIH01t+/LqO36zjN0ZksBMrAgMDAzQp/IIIUoih64AeVgbJs3DC5gPTW378uo7frOM3RmTKzG4AXNzw8DBBSiQSoXnblzKIIIUY2WQgSIFiwW8JIkjJwgkrP0xv+fE7j/jNOkxvYdiJFYGxsTGClGg0qus6syCCFGJkk4EgBYoFvyWIICULJ6z8ML3lx+884jfrML2FYSdWBCYmJghSJicnNU1jFkSQQoxsMhCkQLHgtwQRpGThhJUfprf8+J1H/GYdprcw7MSKgHF3BZ0tmUwSpLAMosRsMkBRYDbrKKc3s65jidkYsZwMzMZIYVcRvyBKuGNHEXA4HAQpTqeTXxBBCjF0HdDDyiCMX0X8YHrLj1/X8Zt1/MaIDHZiRcDlchGkVFVV8QsiSCGGrgN6WBmE8auIH0xv+fHrOn6zjt8YkcFOrAjU1tYSpHi9Xn5BBCnE0HVADyuDMH4V8YPpLT9+Xcdv1vEbIzLYiRWBhoYGgpTGxkZ+QQQpxNB1QA8rgzB+FfGD6S0/fl3Hb9bxGyMy2IkVgUAgQJDi9/v5BRGkEEPXAT2sDML4VcQPprf8+HUdv1nHb4zI4N6JRaCpqcnj8cRiMeMiPB6Pz+fTdZ1ZkHHHNwvZZDDu+FB0+C1Bxh3/PDhh5YfpLT9+5xG/WYfpLQzviRUBm822adMmQyNaWlqsViu/IEMjTIGuA3pYGYTxq4gfTG/58es6frOO3xiRYVgSS21tbcbdIdTpdLa2tnIN4gddB/SwMgjjVxE/mN7y49d1/GYdvzGigZ1YcXC73Vu3bjXo4B0dHdXV1VyD+EHXAT2sDML4VcQPprf8+HUdv1nHb4xoYCdWNLZs2bJq1aqCH7a+vr69vZ13ED/oOqCHlUEYv4r4wfSWH7+u4zfr+I0RAezEiobdbg8Gg+Xl5QU8ZmVlZTAYLCv7kxu38AviB10H9LAyCONXET+Y3vLj13X8Zh2/MSJg2717t9ltgIVyuVxr1649fPiwqqr5H83hcNx+++2rV68uhSB+0HVADyuDMH4V8YPpLT9+Xcdv1vEbI6NhJ1ZkampqAoFAf39/KpXK5zgVFRW7du2a536g/IL4QdcBPawMwvhVxA+mt/z4dR2/WcdvjAyFnVjxWbJkyYYNG44fPy783Ib6+vq9e/de9G8M/IL4QdcBPawMwvhVxA+mt/z4dR2/WcdvjIxj0XXd7DaAiHQ6feDAga6urpmZmYW/yul0dnR0tLe3L/wTt/yC+EHXAT2sDML4VcQPprf8+HUdv1nHb4yMgJ1YcRsfH+/u7u7t7b3oXx08Hk9LS0tra6vYbUD5BfGDrgN6WBmE8auIH0xv+fHrOn6zjt8YFRZ2YhxomhYOh48dOxaJREZHR6empqanp8vLy6uqqrxeb2Njo9/v9/l8+T+bnF8QP+g6oIeVQRi/ivjB9JYfv67jN+v4jVGhlMQbf2ZRVTUcDg8MDEQikWg0mkgkstOusrKytra2oaEhEAg0NTXZbLY8g3Rd13Vd0zRN02ZvrbM/VFX1vJ8Ls1qtfr/f7/fnfyhJgsjwmwxkFZEFkeFXEb8liN8JS4bfykA2Rli9hfHrOn6LKr+1rlDwnpghYrFYT09Pb29vPB6f/1+63e7m5ua2tja32y1zEAjjNxn4BZFBRaiIPogMv65DEIIYB5HhV1FhYSdWYKlUKhQKhUKhnO7d6XA4tm3btnnzZrvdLlsQCOM3GfgFkUFFWaiIMogMv65DEIIYB5HhV5ERsBMrpGg02tnZOTIyIvbyurq6YDC4cuVKeYJAGL/JwC+IDCo6TylXhK47j4RdhyAEMQ4iw68ig+B5YgUTDod37Nhx+vRp4SNMTEwcOnRozZo1y5YtkyEIhPGbDPyCyKCi1yrZitB1ryVb1yEIQYyDyPCryDjYiRXG4ODgnj17kslknsfJZDJHjx71+Xw1NTXmBoEwfpOBXxAZVHQhJVgRuu5C5Ok6BCGIcRAZfhUZCjuxAhgdHd25c2f+cy5LVdX+/v6NGze6XC6zgkAYv8nAL4gMKppfSVWErpufDF2HIAQxDiLDryKjldxt+wsulUrt27dvenq6gMdMJBKdnZ3pdNqUIBDGbzLwCyKDihaiRCpC1y1EiSxBCEIQfRAZfhURwHti+dq/f/+RI0cKfth4PO5wOHw+H30QCOM3GfgFkUFFC1QKFaHrFqgUliAEIYg+iAy/igjgPbG8xGKxUChk0MG7urrGx8eJg0AYv8nAL4gMKsoJ74rQdTnhvQQhCEFYGcQw/k0VO7G89PT05PSQhJzMzMx0d3cTB4EwfpOBXxAZVJQT3hWh63LCewlCEIKwMohh/JsqdmLiVFXt6+szNOLgwYOqqpIFGRrBG7/JwC/I0IjZUJEArhWh6wRwXYIQhCD6IEMjZuNXEZkysxtQxMLhcCwWMzQiHo8PDQ1pmkYTtG7dOkNTGOM3GfgFkU1vssmAioTxO2HRdQhCEIJeG8RvZeD3myp2YuIGBgZoUjRNowniN7/J8JsM/ILIpjfZZEBF+WTRpGB6C6fwW4IQhCD6IH4rA7/fVLETEzc8PEyQEolEaN6NjUQiBClc8ZsM/IIIUrLIJgNBShYqEoPpLYzlEoQgBNEHEaRk8btMkMFOTNzY2BhBSjQa1XWdJogghSt+k4FfEEFKFtlkIEjJQkViML2FsVyCEIQg+iCClCx+lwky2ImJm5iYIEiZnJykeRd7cnKSIIUrfpOBXxBBShbZZCBIyUJFYjC9hbFcghCEIPoggpQsfpcJMtiJiTPuZp2zJZNJghTKIJYwGRB0DrPJoKAiUZjewvh1HYIQxDhIYbcyUMJd7MU5HA6CFKfTSRZEkMIVv8nAL4ggJQsViWFZEbpODMslCEEIog8iSMniVxEZvCcmzuVyEezOq6qqdF2nCTI6gjF+k4FfkNER55BNBqMjzkFFYjC9hbFcghCEIPogoyPO4XeZIIP3xMTV1tYSpHi9XrIgghSu+E0GfkEEKVmoSAzLitB1YlguQQhCEH0QQUoWv4rIYCcmrqGhgSClsbGRLIgghSt+k4FfEEFKFioSw7IidJ0YlksQghBEH0SQksWvIjLYiYkLBAIEKX6/nyyIIIUrfpOBXxBBShYqEsOyInSdGJZLEIIQRB9EkJLFryIy+J6YuKamJo/HE4vFjIvweDw+n0/XdZog447PHr/JwC/IuOOfh2wyGHf886AiAZjewrguQQhCEH2Qccc/D7/LBBm8JybOZrNt2rTJ0IiWlhar1UoWZGgEb/wmA78gQyNmQ0UCuFaErhPAdQlCEILogwyNmI1fRWQYlkSpra3NuBt3Op3O1tZW4iAQxm8y8Asig4pywrsidF1OeC9BCEIQVgYxjH9TxU4sL263e+vWrQYdvKOjo7q6mjgIhPGbDPyCyKCinPCuCF2XE95LEIIQhJVBDOPfVLETy9eWLVtWrVpV8MPW19e3t7ebEgTC+E0GfkFkUNEClUJF6LoFKoUlCEEIog8iw68iAtiJ5ctutweDwfLy8gIes7KyMhgMlpX9yf1UyIJAGL/JwC+IDCpaiBKpCF23ECWyBCEIQfRBZPhVRMC2e/dus9tQ9Fwu19q1aw8fPqyqav5Hczgct99+++rVq00MAmH8JgO/IDKoaH4lVRG6bn4ydB2CEMQ4iAy/ioyGnVhh1NTUBAKB/v7+VCqVz3EqKip27do1z206yYJAGL/JwC+IDCq6kBKsCF13IfJ0HYIQxDiIDL+KDIWdWMEsWbJkw4YNx48fF36cQn19/d69ey+69ScLAmH8JgO/IDKo6LVKtiJ03WvJ1nUIQhDjIDL8KjKORdd1s9vASjqdPnDgQFdX18zMzMJf5XQ6Ozo62tvbF/5BWLIgEMZvMvALIoOKslARZRAZfl2HIAQxDiLDryIjYCdmiPHx8e7u7t7e3ov+McDj8bS0tLS2tordnZMsCITxmwz8gsigIlREH0SGX9chCEGMg8jwq6iwsBMzkKZp4XD42LFjkUhkdHR0ampqenq6vLy8qqrK6/U2Njb6/X6fz5f/I8PJgkAYv8nAL4gMKpIfprcwfl2HIAQxDiLDr6JCKYk3/sxitVr9fr/f72cTBML4TQZd13Vd1zRN07TZf9DJ/lBV1fN+Ln8QGbKKVFUNh8MDAwORSCQajSYSieyVr7Kysra2tqGhIRAINDU12Wy2PIPIZh1ZRZjewrDWCePXdRgj+YP4LapFB++JAUBuYrFYT09Pb29vPB6f/1+63e7m5ua2tja32y1zEBl0nTB+XcdvjPjBGMkPYyQMa50ksBMDgIVKpVKhUCgUCuV0a1qHw7Ft27bNmzfb7XbZgsig64Tx6zp+Y8QPxkh+GCNhWOukgp0YACxINBrt7OwcGRkRe3ldXV0wGFy5cqU8QWTQdcL4dR2/MeIHYyQ/jJEwrHWywfPEAODiwuHwjh07Tp8+LXyEiYmJQ4cOrVmzZtmyZTIEkUHXCePXdfzGiB+MkfwwRsKw1kkIOzEAuIjBwcE9e/Ykk8k8j5PJZI4ePerz+WpqaswNIoOuE8av6/iNET8YI/lhjIRhrZMTdmIAMJ/R0dGdO3fmv6Rmqara39+/ceNGl8tlVhAZdJ0wfl3Hb4z4wRjJD2MkDGudtErutv0AsHCpVGrfvn3T09MFPGYikejs7Eyn06YEkUHXCePXdfzGiB+MkfwwRsKw1skM74kBwAXt37//yJEjBT9sPB53OBw+n48+iAy6Thi/ruM3RvxgjOSHMRKGtU5meE8MAOYWi8VCoZBBB+/q6hofHycOIoOuE8av6/iNET8YI/lhjIRhrZMcdmIAMLeenp6cngGSk5mZme7ubuIgMug6Yfy6jt8Y8YMxkh/GSBjWOslhJwYAc1BVta+vz9CIgwcPqqpKFmRoxGzoOmH8uo7fGPGDMZIfxkgY1jr5YScGAHMIh8OxWMzQiHg8PjQ0RBZkaMRs6Dph/MVzvVQAACAASURBVLqO3xjxgzGSH8ZIGNY6+WEnBgBzGBgYoEkhCyJIocxC1+WTwi+IIIUrjJH8MEbCsNbJr8zsBgCAjIaHhwlSIpEIzYcNIpEIQUoWuk4Yv67jN0b8kM06ghSuMEbC+C2qBCnEsBMDgDmMjY0RpESjUV3XaYIIUrLQdcL4dR2/MeKHbNYRpHCFMRLGb1ElSCGGnRgAzGFiYoIgZXJyUtM0miCClCx0nTB+XcdvjPghm3UEKVxhjITxW1QJUohhJwYAczDuXrSzJZNJghTKIAVdlwd0neRBLDGbdSxhjIQx6zqWY4Q7dgDAHBwOB0GK0+kkCyJIyULXCePXdfzGiB+MkfwwRsKw1skPOzEAmIPL5SJIqaqqIgsiSMlC1wnj13X8xogfjJH8MEbCsNbJDzsxAJhDbW0tQYrX6yULIkjJQtcJ49d1/MaIH4yR/DBGwrDWyQ87MQCYQ0NDA0FKY2MjWRBBSha6Thi/ruM3RvxgjOSHMRKGtU5+2IkBwBwCgQBBit/vJwsiSMlC1wnj13X8xogfjJH8MEbCsNbJD/dOBIA5NDU1eTyeWCxmXITH4/H5fLqu0wQZd/zzoOuE8es6fmPED9msM+747GGMhPFbVI07vlnwnhgAzMFms23atMnQiJaWFqvVShZkaMRs6Dph/LqO3xjxgzGSH8ZIGNY6+TEsCQAKoq2tzbj70jqdztbWVuIgMug6Yfy6jt8Y8YMxkh/GSBjWOslhJwYAc3O73Vu3bjXo4B0dHdXV1cRBZNB1wvh1Hb8x4gdjJD+MkTCsdZLDTgwALmjLli2rVq0q+GHr6+vb29tNCSKDrhPGr+v4jRE/GCP5YYyEYa2TGXZiAHBBdrs9GAyWl5cX8JiVlZXBYLCs7E9uF0QWRAZdJ4xf1/EbI34wRvLDGAnDWicz2+7du81uAwDIy+VyrV279vDhw6qq5n80h8Nx++23r1692sQgMug6Yfy6jt8Y8YMxkh/GSBjWOmlhJwYAF1FTUxMIBPr7+1OpVD7Hqaio2LVr1zx3oSULIoOuE8av6/iNET8YI/lhjIRhrZMTdmIAcHFLlizZsGHD8ePHhZ8WUl9fv3fv3ov+ZYssiAy6Thi/ruM3RvxgjOSHMRKGtU5CFl3XzW4DABSHdDp94MCBrq6umZmZhb/K6XR2dHS0t7cv/HPeZEFk0HXC+HUdvzHiB2MkP4yRMKx1UsFODAByMz4+3t3d3dvbe9G/dXk8npaWltbWVrGbz5IFkUHXCePXdfzGiB+MkfwwRsKw1kkCOzEAEKFpWjgcPnbsWCQSGR0dnZqamp6eLi8vr6qq8nq9jY2Nfr/f5/NZrfneoJUsiAy6Thi/ruM3RvxgjOSHMRKGtc50JfHGHwOTk5OnTp06derUK6+88uqrr07OoqpqJpNJJpNmt3GhEokE9v/Cenp6zG7CH+i6ruu6pmmaps0e0OwPVVU97+fyB5Hh13WqqobD4YGBgUgkEo1GE4lE9hJbWVlZW1vb0NAQCASamppsNlueQWQVWa1Wv9/v9/vzP5QkQWRjRIbfrCPDbzJgjITxW1SLDt4Tk5GqqidOnIhEIi+88MKJEydOnDgxOTlpdqNACjLsxGKxWE9PT29vbzwen/9fut3u5ubmtrY2t9stcxAZfl3HL4gffl2HWScMFaEi+iCYH3ZiskilUkNDQ0899dTQ0NDw8HARvccFlMzdiaVSqVAoFAqFcro1rcPh2LZt2+bNm+12u2xBZPh1Hb8gfvh1HWadMFSUhYoog2AhsBMz2csvv/zYY489+eST4XA4p3vLQGkycScWjUY7OztHRkbEXl5XVxcMBleuXClPEBl+XccviB9+XYdZJwwVnaeUK+LXdcUOzxMzx+nTp/v6+r71rW99+9vffuKJJ8bGxgryMHJg74YbbjAlNxwO79ix4/Tp08JHmJiYOHTo0Jo1a5YtWyZDEBl+XccviB9+XYdZJwwVvVbJVsSv6xjAToxUMpl8+OGHv/GNb9x3331PPvnk73//e7NbBEXGlJ3Y4ODgnj178v/EbCaTOXr0qM/nq6mpMTeIDL+u4xfED7+uw6wThooupAQr4td1PODTiUROnjz54IMPPvzww9PT02a3BYoY/acTR0dHb7311gLO24qKinvuucfr9ZoVRIZf1/EL4odf12HWCUNFF1U6FfHrOjZK7rb99IaGhu64446bb775oYcewjYMiksqldq3b19h520ikejs7Eyn06YEkeHXdfyC+OHXdZh1wlDRQpRIRfy6jhN8OtEouq4/+uijd999909+8pOXXnrJ7OYAE8SfTty/f/+RI0cKfth4PO5wOHw+H30QGX5dxy+IH35dh1knDBUtUClUxK/rOMF7YoYYGBi45ZZbPve5z504ccLstgAIisVioVDIoIN3dXWNj48TB5Hh13X8gvjh13WYdcJQUU54V8Sv65jBTqzAnn766VtvvXXnzp2RSMTstgDkpaenJ6eHjeRkZmamu7ubOIgMv67jF8QPv67DrBOGinLCuyJ+XccMdmIF8/vf//7ee+/99Kc//eyzz5rdFoB8qara19dnaMTBgwdVVSULMjRiNn5dxy/I0AhT8Os6zDphqEgA14r4dR0/ZWY3gANVVR988MHvfve7+d8bFEAS4XA4FosZGhGPx4eGhjRNowlat26doSnn8Os6fkFkk4EM2azDeSQcxK/rUJEwTG84BzuxfD3//PNf+cpX8FlEYGZgYIAmRdM0miCy6wS/ruMXxO+XBrJZh/NIOIhf16GifLJoUvhNb36wExOXyWR+8IMf3H///TQTHYDS8PAwQUokEqH5VAPl30r4dR2/IIIUYmSzjiAli995RJCShckghmVF/KY3P9iJCRodHf3CF76AyQdcjY2NEaREo1Gah8tHo1GClCx+XccviCCFGNmsI0jJ4nceEaRkYTKIYVkRv+nND3ZiIh566KH77rvPuHvRAJhuYmKCIGVycpLmLeXJyUmClCx+XccviCCFGNmsI0jJ4nceEaRkYTKIYVkRv+nND3ZiuUmlUt/4xjd++ctfmt0QAGPR/KGB7CY3lHfTQdchiB6zWaewqwhdlw9UJIbl9OYHd7HPwdjY2K233optGJQCh8NBkOJ0OsmCCFKy+HUdvyCCFGL8ug6zThgqEsOyIn5dxw92Ygt1/PjxYDB44sQJsxsCQMHlchGkVFVVkQURpGTx6zp+QQQpxPh1HWadMFQkhmVF/LqOH+zEFuTw4cM7d+4cHx83uyEARGprawlSvF4vWRBBSha/ruMXRJBCjF/XYdYJQ0ViWFbEr+v4wU7s4n7wgx/cc889uD8HlJSGhgaClMbGRrIggpQsfl3HL4gghRi/rsOsE4aKxLCsiF/X8YOd2Hx0Xb/vvvt+9KMf0dwGFEAegUCAIMXv95MFEaRk8es6fkEEKcT4dR1mnTBUJIZlRfy6jh/cO/GCNE37yle+cvDgQbMbAmCCpqYmj8cTi8WMi/B4PD6fT9d1miDjjn8efl3HL8i445uFbNYZd/zz8DuPjDv+eTAZBHCtiN/05gfvic1N07TPf/7z2IZBybLZbJs2bTI0oqWlxWq1kgUZGjEbv67jF2RohCn4dR1mnTBUJIBrRfy6jh/03Rx0Xf/a1752+PBhsxsCYKa2tjbjboDrdDpbW1uJg8jw6zp+Qfzw6zrMOmGoKCe8K+LXdcxgJ3Y+Xdf/7d/+7Re/+IXZDQEwmdvt3rp1q0EH7+joqK6uJg4iw6/r+AXxw6/rMOuEoaKc8K6IX9cxg53Y+b7zne889NBDZrcCQApbtmxZtWpVwQ9bX1/f3t5uShAZfl3HL4gffl2HWScMFS1QKVTEr+s4wU7sT/z85z+///77zW4FgCzsdnswGCwvLy/gMSsrK4PBYFnZn9wuiCyIDL+u4xfED7+uw6wThooWokQq4td1nNh2795tdhtk8fjjj9977724YT3I7IYbbiBOdLlca9euPXz4sKqq+R/N4XDcfvvtq1evNjGIDL+u4xfED7+uw6wThormV1IV8es6NrAT+4ORkZE9e/ak02mzGwIwH/qdmKIoNTU1gUCgv78/z+ebV1RU7Nq1a57b3ZIFkeHXdfyC+OHXdZh1wlDRhZRgRfy6jgfsxBRFUSYnJ3fu3BmPx81uCMBFmLITUxRlyZIlGzZsOH78uPBjSerr6/fu3XvRP6GRBZHh13X8gvjh13WYdcJQ0WuVbEX8uo4BCz6Mp+v63r17n3jiCbMbAnBxPT09Jqan0+kDBw50dXXNzMws/FVOp7Ojo6O9vX3hHygnCyLDr+v4BfHDr+sw64ShoixURBkEC4GdmPL973//xz/+sdmtAFgQc3diWePj493d3b29vRf9o5rH42lpaWltbRW7yy1ZEBl+XccviB9+XYdZJwwVoSL6IJhfqe/Ennrqqe3bt2uaZnZDABZEhp1YlqZp4XD42LFjkUhkdHR0ampqenq6vLy8qqrK6/U2Njb6/X6fz2e15nuDVrIgMvy6jl8QP/y6DrNOGCqSH6Z36SjpdxgTicS9996LbRiAAKvV6vf7/X6/0UG6ruu6rmmapmmz/3KU/aGqquf9XJiqquFweGBgIBKJRKPRRCKRvSBVVlbW1tY2NDQEAoGmpiabzZZnEFlFZGPEL4hsMpAF8es6fksQGbKuI4Mxkj8ILqSk3xPbt2/f0aNHzW5FvsrLyxctWuR0OisqKsxuS3Gz2WxOpzPXVz333HNTU1NGtGdO8rwnRiAWi/X09PT29l70bjput7u5ubmtrc3tdiMI8oHJIAwVyV8RPxgjKHaluxN75JFHPve5z5nditx4PJ61a9fW1tZ6vd7s/8Vndk23ffv2wcFBsrgS2YmlUqlQKBQKhXK62a7D4di2bdvmzZvtdnvJBoEwTAZhqChL5or4wRgBDyW6E5ucnPz4xz8ufBNPSi6XK/tZjnXr1i1fvtzs5sD5sBMruGg02tnZOTIyIvbyurq6YDC4cuXKEgwCYZgMwlDReSSsiB+MEbBRojuxL37xi319fWa3Yj4Oh+Paa69929vetn79+vw/Tw/GwU6ssMLh8J133jk9PZ3PQZxO5/bt2wOBQEkFgTBMBmGoaE5SVcQPxgg4KcUnOz/11FP33Xef2a24oBUrVrzvfe/7xCc+8ba3vc3r9eJ+NZLr6+s7deoUWZxZT3amMTg4uGfPnmQymedxMpnM0aNHfT5fTU1NiQSBMEwGYajoQuSpiB+METBTcr/l67p+3333yflOYH19/Sc/+ckvf/nL73jHO8rLy81uDgCp0dHRu+66K6dP/M8jlUrdeeed0Wi0FIJAGCaDMFQ0Pxkq4gdjBPyU3E7sF7/4RSQSMbsV56uvr7/zzju/+MUvbtq0CW+CQQlKpVL79u3L89Mm50kkEp2dnel0mncQCMNkEIaKFgInbGFhjICl0vql/+zZs9/73vfMbsWfqKys/PCHP/yFL3wBD3OAUhYKhU6ePFnww46MjBw4cIB3EAjDZBCGihYIJ2wBYYyApdLaifX09IyPj5vdij/atGnT17/+9euvvx7vg0Epi8VioVDIoIN3dXWdO+v5BYEwTAZhqCgnOGELAmMEXJXQBiCRSHR3d5vdij8oLy+/9dZbP/nJT+KBYAA9PT2F+tz/a83MzJw78fkFgTBMBmGoKCc4YQsCYwRcldBOLBQKTU1Nmd0KRVGUNWvWfOlLX3rrW99qdkMAzKeqqtGPlDh48KCqqvyCDI3gDZNBGCoSgBM2TxgjYKxUdmKJROKBBx4wuxWKoijvete79u3bt3TpUrMbAiCFcDhs9DPW4/H40NAQvyBDI3jDZBCGigTghM0TxggYK5Wd2EMPPXT27Flz22CxWG644YaPfvSjeFIzwDkDAwM0KfyCCFK4wmSQPAsVwWwYI2CszOwGUEin0z/72c/MbYPVav3oRz/6zne+09xmAMhmeHiYICUSidB88oQyiCCFK36zjiAli6zrCFKy+FXED8YIGCuJndjhw4fPnDljYgNsNttnPvOZa6+91sQ2AMhpbGyMICUajdI8z50yiCCFK36zjiAli6zrCFKy+FXED8YIGCuJndiDDz5oYrrFYvnYxz6GbRjAnCYmJghSJicnNU1jFkSQwhW/WUeQkkXWdQQpWfwq4gdjBIzx34mdOHHi2WefNbEBH/jAB1paWkxsAIDMjLsx8WzJZJIghWUQS5h1wph1ncKxIn4wRsAY/zt2PPTQQyamv+c972lrazOxAQCSczgcBClOp5NfEEEKV5gMwlCRGJyw+cAYAWPMd2KpVOrhhx82K339+vU33nijWekARcHlchGkVFVV8QsiSOEKk0EYKhKDEzYfGCNgjPlO7LHHHpuenjYlesmSJf/0T/9ksVhMSQcoFrW1tQQpXq+XXxBBCleYDMJQkRicsPnAGAFjzHdiR44cMSXXZrPddtttNH/FAShqDQ0NBCmNjY38gghSuMJkEIaKxOCEzQfGCBjjvBNLJpOPP/64KdEdHR1XXHGFKdEAxSUQCBCk+P1+fkEEKVxhMghDRWJwwuYDYwSMcd6JPfHEEzMzM/S5Xq9369at9LkAxaipqcnj8Rga4fF4fD4fvyBDI3jDZBCGigTghM0TxggYY74TMyX3Ix/5iN1uNyUaoOjYbLZNmzYZGtHS0mK1WvkFGRrBGyaDMFQkACdsnjBGwBjbaafruik7sbe//e00b6MDsNHW1mbcTYqdTmdrayvXIBCGySAMFeUEJ2xBYIyAK7Y7seeffz4WixGH2my2v/mbvyEOBSh2brfbuA/0dnR0VFdXcw0CYZgMwlBRTnDCFgTGCLhiuxMbGBigD21ubq6pqaHPBSh2W7ZsWbVqVcEPW19f397ezjsIhGEyCENFC4QTtoAwRsAS253Y0NAQcaLVat28eTNxKAAPdrs9GAyWl5cX8JiVlZXBYLCsrIx3EAjDZBCGihYCJ2xhYYyAJZ47MV3Xn376aeLQt7/97TQPHwRgyev17tixo1DfBHA4HNu3b5/zlOQXBMIwGYShovnJUBE/GCPgh+dObHR0dGJigjj0+uuvJ04EYKapqemuu+6qqqrK8zgVFRV79uyZ55bE/IJAGCaDMFR0IfJUxA/GCJix7d692+w2FN4TTzzR399PmbhixYqbbrqJMhEk0dfXd+rUKbK4G264gSzLFEuWLNmwYcPx48eF77hTX1+/d+/e1atXl1oQCMNkEIaKXku2ivjBGAEnPHdivb29zzzzDGXi5s2br7jiCspEkAR2YgXncrmam5sdDsczzzyjqurCX+h0Om+88cabb755gXfB4hcEwjAZhKGic6StiB+MEbBh0XXd7DYU3o4dO44dO0YWZ7PZvvWtbxn9AHiQ0/bt2wcHB8nienp6yLJMNz4+3t3d3dvbe9E/fHo8npaWltbWVrGLK78gEIbJIAwVyV8RPxgjKHY8d2I33XQT5ffEmpqaPvvZz5LFgVSwEzOapmnhcPjYsWORSGR0dHRqamp6erq8vLyqqsrr9TY2Nvr9fp/PZ7Xm+61XfkEgDJNBGCoCehgjKF4Mb9w5Pj5OfLuOQCBAGZczLaOeOqa9/KR2ZliLP69PjenpaSU1KXAkPTmuKMW0da/81GmzmwD5slqtfr/f7/cjCFRVDYfDAwMDkUgkGo0mEons71uVlZW1tbUNDQ2BQKCpqclms+UZRDZGuq7ruq5pmqZps/8wmv2hqqrn/Vx+/KY32RiRTW9+QfzOI7KuI8OvokJh+J7Ys88+e+utt1ImdnZ2rl27ljJxIfT0tBp5IPNstzp6VE9Nmd0ccxDsxPCeGACBWCzW09PT29sbj8fn/5dut7u5ubmtrc3tdtO0TQy/ivghGyMEyR9EBhXJX1FhMdyJHT58+O677yaLW7x48Q9+8AOpNvFa/Pn041/JPH2/nk6Y3RaTYScGUOxSqVQoFAqFQqlUauGvcjgc27Zt27x5s91uN65tYvhVxA/ZGCFI/iAyqChL5oqMwHAnFgqFvvOd75DFrV+/Xp77T2rxE6mjd2aGf6romtltkQJ2YgBFLRqNdnZ2joyMiL28rq4uGAyuXLmysK3KB7+K+CEbIwTJH0QGFZ1HwooMwvDLi6dPk341SJZZkkmmHt03/d0/yzzbjW0YADAQDodvueUW4Qu5oigvvvjibbfdNjAwUMBW5YNfRfyQjRGC5A8ig4peS7aKjMNwJzY+Pk4Z5/V6KePmpJ0Znv7hO1P99yiZGbPbAgBQAIODg7t3756ens7zOMlk8o477njqqacK0qp88KuIH7IxQpD8QWRQ0YXIU5GhGO7EJidF7goobPny5ZRxr5UZ+tH095u13w+Z2wwAgEIZHR296667cvpqwTxSqdSdd94ZjUYLcjQx/Crih2yMECR/EBlUND8ZKjIaw50Y8S3szd2JpR77cvLnNyuZsya2AQCggFKp1L59+/L/e+psiUSis7MznU4X8JgLx68ifsjGCEHyB5FBRQvBfq1juBObmqK7Y7vD4XC5XGRx55n51f9JHbmjuB7wBQAwv1AodPLkyYIfdmRk5MCBAwU/7ELwq4gfsjFCkPxBZFDRAvFe6xjuxAr1luhCLF68mCzrPKlH/iX9u2+alQ4AYIRYLBYKhQw6eFdXF/EXiRWOFfFDNkYIkj+IDCrKCeO1juFOLJPJkGWZtRNLD/xH6jdfMCUaAMA4PT09xv01bWZmpru726CDXwi/ivghGyMEyR9EBhXlhPFax3AnRvlZ0vLycrKsc7RXfjfz8A76XAAAQ6mq2tfXZ2jEwYMHVVU1NGI2fhXxQzZGCJI/yNCI2VCRAK5rHcOdGOV7Yk6nkywrS5+ZOPuzDyoq3ScwAQBohMPhWCxmaEQ8Hh8aorvTLL+K+CEbIwTJH2RoxGyoSADXtY7hTkzX6e5gYbPZyLKyUkfv1CdeJA4FACBA8xBPykeF8quIH7IxQpD8QQQplFmoqCiUmd0AyIH2yu/Sx/7T7FYAABhieHiYICUSiRCkZPGriB+yMaL5YBWC8gkiSMnitzLwq4gMdmLFZObhXYrO8DOyAACKooyNjRGkUD4klF9F/JCNEc0HdhCUTxBBSha/lYFfRWSwEysa6kuPqdFHzW4FAIBRJiYmCFImJycJUrL4VcQP2RhpmoYgyYMIUrL4rQz8KiKDnVjRSP3m82Y3AQDAQDRPg0wmkwQpWfwq4ofZGCFI/iCF3axTOFZEhuEdO1jSp8bUk78yuxUAAAZyOBwEKZT3vOVXET9kY4Qg+YMIUrJQkRiWax12YsUh/dSP8A0xAODN5XIRpFRVVRGkZPGriB+yMUKQ/EEEKVmoSAzLtQ47seKQifzM7CYAABirtraWIMXr9RKkZPGriB+yMUKQ/EEEKVmoSAzLtQ47sSKgJ2Pa6bDZrQAAMFZDQwNBSmNjI0FKFr+K+CEbIwTJH0SQkoWKxLBc67ATKwLq6FFFp7hxEACAiQKBAEGK3+8nSMniVxE/ZGOEIPmDCFKyUJEYlmsd7p1YBLRTg2Y3AQDAcE1NTR6PJxaLGRfh8Xh8Pp9xxz8Pv4r4IRsjXdcRJHmQccc/D7+VgV9FZPCeWBHQzlA8uRwAwFw2m23Tpk2GRrS0tFitdBc+fhXxQzZGCJI/yNCI2VCRAK5rHcOS+NFiz5ndBAAACm1tbcbdDdnpdLa2thp08AvhVxE/ZGOEIPmDyKCinDBe67ATKwJ68ozZTQAAoOB2u7du3WrQwTs6Oqqrqw06+IXwq4gfsjFCkPxBZFBRThivddiJFYPUlNktAAAgsmXLllWrVhX8sPX19e3t7QU/7ELwq4gfsjFCkPxBZFDRAvFe67ATKwJ6etrsJgAAELHb7cFgsLy8vIDHrKysDAaDZWXm3KSKX0X8kI0RguQPIoOKFoL9WoedWDHALewBoJR4vd4dO3YU6isHDodj+/btNA8evRB+FfFDNkYIkj+IDCqanwwVGQ07MQAAkE5TU9Ndd91VVVWV53EqKir27Nkjw72P+VXED9kYIUj+IDKo6ELkqchQ2IkBAICMXv/613d2dtbX1wsfob6+/vOf/7w8F3J+FfFDNkYIkj+IDCp6LdkqMo5t9+7dZrehwH74wx+SZS1durS5udnolFT/3UZHcOXYGDQ6oq+v79SpU0annHPDDTeQZQGYzuVyNTc3OxyOZ555RlXVhb/Q6XTeeOONN998s2y32+JXET9kY4Qg+YPIoKJzpK3IIBZd181uQ4FRPnBg3bp1d911l9EpU/e+zugIrio/ddroiO3btw8ODhqdck5PTw9ZFoA8xsfHu7u7e3t7Y7HY/P/S4/G0tLS0trZKfhXnVxE/ZGOEIPmDyKAi+SsqLOzE8oKdmOSwEwPgRNO0cDh87NixSCQyOjo6NTU1PT1dXl5eVVXl9XobGxv9fr/P57Nai+aD9/wq4odsjBAkfxAZVFQ62N4UEgAMpapqOBweGBiIRCLRaDSRSGRX1crKytra2oaGhkAg0NTUZLPZEGQWfhXpuq7ruqZpmqbN/jNi9oeqqp73c/lZrVa/3+/3+81uCFwQ2awjCyKbdWRBZF1HtqiSdR2/iooO3hPLC94TkxzeEzNCLBbr6enp7e2Nx+Pz/0u3293c3NzW1uZ2uxFECRXJXxHID0uQ/DBGwvhVVKSwE8sLdmKSw06ssFKpVCgUCoVCqVRq4a9yOBzbtm3bvHmz3W4v2SAyqChL5opAfliC5IcxEsavoqKGnVhesBOTHHZiBRSNRjs7O0dGRsReXldXFwwGV65cWYJBZFDReSSsCOSHJUh+GCNh/CoqdiX3xTgAEBAOh2+55RbhtVtRlBdffPG2224bGBgotSAyqOi1ZKsI5IclSH4YI2H8KmIAOzEAuIjBwcHdu3dPT0/neZxkMnnHHXc89dRTpRNEBhVdiDwVgfywBMkPYySMX0U8YCcGAPMZHR296667cvo00+WDFgAAIABJREFU+TxSqdSdd94ZjUZLIYgMKpqfDBWB/LAEyQ9jJIxfRWxgJwYAF5RKpfbt25f/n9BmSyQSnZ2d6XSadxAZVLQQ5lYE8sMSJD+MkTB+FXGCnRgAXFAoFDp58mTBDzsyMnLgwAHeQWRQ0QKZWBHID0uQ/DBGwvhVxAl2YgAwt1gsFgqFDDp4V1fX+Pg41yAyqCgnplQE8sMSJD+MkTB+FTGDnRgAzK2np6dQnyl/rZmZme7ubq5BZFBRTkypCOSHJUh+GCNh/CpiBjsxAJiDqqp9fX2GRhw8eFBVVX5BhkbMhooEEFcE8sMSJD+MkTB+FfGDnRgAzCEcDsdiMUMj4vH40NAQvyBDI2ZDRQKIKwL5YQmSH8ZIGL+K+MFODADmQPPcxoGBAX5BBCmUWagIeMMSJD+MkeRZLGcdmTKzGwAAMhoeHiZIiUQiNJ9qoAwiSMkiGyOClCx+FYH8+K11BCnEMEbCsKjKDzsxAJjD2NgYQUo0GtV1nVkQQUoW2RgRpGTxqwjkx2+tI0ghhjEShkVVftiJAcAcJiYmCFImJyc1TWMWRJCS9f/au/voqOrr3+PzkEyGkKeRGjBjgoREhYSJt4hLrEobUhWxSeSpP+mydXm1rbpEqzIsKwooWA0KFZfaLnurq8vqUowItvW2EqxPlGqvV0h8oEQRZVBRmSSEGBJm5v4xvflFhADfzNnnzM779ScLzue7v/t7BjaZOSPWI4GUJH0Vwfn0vdYJpAijR8Z4UXU+JjEAh2DdQ2/76+7uFkhRGeRS1yOXxorgfMpOncrjTY+MKds6lXhiB4BD8Pl8Ail+v19fkEBKEhWZkawIzsdLkPPRI2P6KtKHSQzAIeTl5Qmk5Obm6gsSSEmiIjOSFcH5eAlyPnpkTF9F+jCJATiEoqIigZRgMKgvSCAliYrMSFYE5+MlyPnokTF9FenDJAbgEMrKygRSysvL9QUJpCRRkRnJiuB8vAQ5Hz0ypq8ifZjEABxCVVWVQEooFNIXJJCSREVmJCuC8/ES5Hz0yJi+ivTh2YkADqGysjIQCESjUesiAoFARUVFIpFQFmTd9Q8i1iPrrn8QfRXB+fS91ll3fbvQI2O8qDofPxMDcAher7e6utrSiJqaGo/Hoy/I0oj+qMiAcEVwPl6CnI8eGdNXkT7sHYBDq6urs+4BuH6/v7a2VmuQGCo6JrZUBOfjJcj56JExfRUpwyQG4NAKCgpmzZpl0cXnzJmTn5+vNUgMFR0TWyqC8/ES5Hz0yJi+ipRhEgNwWDNnzhwzZkzKL1taWlpfX687SAwVHSUbK4Lz8RLkfPTImL6KNGESA3BYmZmZ4XA4Ozs7hdfMyckJh8MZGV97XJC+IDFUdDTsrQjOx0uQ89EjY/oq0oRJDMBAgsHgwoULU/Uuc5/Pd8sttxzyuyb1BYmhooE5oSI4Hy9BzkePjOmrSA0mMQBHUFlZuWzZstzc3EFeZ/jw4UuWLBngcbf6gsRQ0eE4pyI4Hy9BzkePjOmrSAcmMQBHdsoppzQ0NJSWlhpfobS09N577z3ia7e+IDFU9E1OqwjOx0uQ89EjY/oqUsC7ePFiu9eQYk888YRY1siRI6dOnWp1Ss+m5VZHaOWbHLY6YsOGDbt377Y6pc8ll1wilnWQvLy8qVOn+ny+rVu3xmKxo/+Dfr9/7ty58+bNO8onLOkLEkNFfRxbEZyPlyDno0fG9FWU7tyJRMLuNaSY5DcbTJgwYdmyZVandK483uoIrXJ+8bnVEbfccktzc7PVKX3WrVsnlnU47e3ta9eubWpqikajA//OQCBQU1NTW1tr9sKtL0gMFTm/IjgfL0HOR4+M6asoTTGJDQqTmMMxiVknHo+3tLRs2bKltbV1586dnZ2dXV1d2dnZubm5wWCwvLw8FApVVFR4PIN9C7S+IDFUBAweL0HOR4+M6aso7fD0SQAmEolEIpGIx+PxeLz/f+gkfzEWix3068Y8Hk8oFAqFQoO/lEOCxIj1KBaLtbS0bN68ubW1NRKJ7Nu3L/l3eU5OTlFRUVlZWVVVVWVlpdfrHWSQWEVwPrFTp+8lSGzr9PVI34uqvlOXdviZ2KDwMzGH42diVohGo+vWrWtqampraxv4dxYUFEydOrWurq6goEBmbUgS65G+IDgfh8EYN6wxts6YvopSi0lsUJjEHI5JLLV6enoaGxsbGxt7enqO/k/5fL7Zs2fPmDEjMzPTurUhSaxH+oLgfBwGY9ywxtg6Y/oqsgKT2KAwiTkck1gKRSKRhoaG7du3m/3x4uLicDg8evTo1K4K/Yn1SF8QnI/DYIwb1hhbZ0xfRRbhE3gAjqylpeXGG280fkl1uVwff/zx/PnzN2/enMJVoT+xHukLgvNxGIxxwxpj64zpq8g6TGIAjqC5uXnx4sVdXV2DvE53d/cdd9zx9ttvp2RV6E+sR/qC4HwcBmPcsMbYOmP6KrIUk1g6cNMmI+xbKuzcuXPZsmXH9CbvAfT09CxdujQSiaTkakgS65G+IDgfh8EYN6wxts6Yvoqsxj9V04A7M9vuJaQlty/H7iWkvZ6enrvvvnvw/7PV3759+xoaGnp7e1N4zaFMrEf6guB8HAZj3LDG2Dpj+ioSwCSWDpgozPhy7V5B2mtsbNyxY0fKL7t9+/Y1a9ak/LJDk1iP9AXB+TgMxrhhjbF1xvRVJIBJLA24/QG7l5CW3P4h9H0UVohGo42NjRZdfPXq1e3t7RZdfOgQ65G+IDgfh8EYN6wxts6YvopkMImlAU9grN1LSEueQJndS0hv69atS9Vbvb9p//79a9eutejiQ4dYj/QFwfk4DMa4YY2xdcb0VSSDSSwNeI4rt3sJaYl9G4xYLLZhwwZLI9avXx+LxSyN0E2sR/qCLI1ASnAYjHHDGmPrjOmrSAyTWBrwHB+yewlpyXN8pd1LSGMtLS3RaNTSiLa2tnfeecfSCN3EeqQvyNIIpASHwRg3rDG2zpi+isQwiaUBb/FZPJD9mLm93hPPsnsRaUzm6xSHwpc2WkesR/qCBFIwSBwGY9ywDs9i6xyeIizD7gXgyNz+4zzHV8R3N9u9kHTiKQzxpJPB2LZtm0BKa2urQIpWYj2SeUOIZJBACgaJlyBj+l4ZBFKS2Dpj3LDGmMTSQ0bZRT1MYscio/wiu5eQ3j755BOBFN1f12g1sR4lEgllQQIpGCRegozpe2UQSEli64xxwxrjPW/pIbPiv1xur92rSB9uT+apM+1eRHrr6OgQSNm7d69AilZiPdIXJJCCQeIwGOOGNcbWGdNXkRgmsfTgzinylpxr9yrShnf099y5QbtXkd6sexZtf93d3QIpWon1SF+QQAoGicNgjBvWGFtnTF9FYpjE0obvjOvsXkLaYK8Gz+fzCaT4/X6BFK3EeqQvSCAFg8RhMMYNa4ytM6avIjFMYmnDe+J3vMEz7V5FGvAWn+0NTrZ7FWkvLy9PICU3N1cgRSuxHukLEkjBIHEYjHHDGmPrjOmrSAyTWDrxnbOIx9kfgduTdc5tdi9Cg6KiIoGUYJA3kZoT65G+IIEUDBKHwRg3rDG2zpi+isTwz/p04j3h9MwJl9q9CkfLDF3mGfk/7F6FBmVlZQIp5eXlAilaifVIX5BACgaJw2CMG9YYW2dMX0ViFE5ibrdbLCsej4tlJfm+s5BnURyOO6/Y951fCodKngHJs11VVSWQEgqFBFK0EuuRviCBFAwSh8EYN6wxts6YvorEKJzEMjLkviTtq6++EstKcvsL/Bf9L5dX4pORacaT6Z/2W3dWvnBsV1eXWFZmZqZYVmVlZSBg7VdjBwKBiooKSyN0E+uRviBLI5ASHAZj3LDG2Dpj+ioSwyQ2KJL/Cu/jHTUx69wl8rkOl/XdO7xFk+RzJc+A5Nn2er3V1dWWRtTU1Hg8Cl+CxIj1SF+QpRFICQ6DMW5YY2ydMX0ViVFYkuTPDeR/JpaUedoVvknzbIl2Jt8Z12dW/U9boiXPgOTZdrlcdXV11j2X1u/319bWWnTxoUOsR/qC4HwcBmPcsMbYOmP6KpKhcBKT+U6DJLsmMZfL5Tt7YWboJ3alO0pm6DL5j4f1kTwDkmfb5XIVFBTMmjXLoovPmTMnP1/6raT6iPVIXxCcj8NgjBvWGFtnTF9FMhROYjk5OWJZPT09e/fuFYv7OnfW1Ht8Z99qU7pT+CbNy5ra4HLJPcqiv/b29t7eXrE4+W/SmDlz5pgxY1J+2dLS0vr6+pRfdmgS65G+IDgfh8EYN6wxts6YvooEKJzEhP+1GolEJOMO4ps0L6tmhSsjy8Y12CbDn3Xefb6zb7VrDHO5XDt37pSMk5/EMjMzw+FwdnZ2Cq+Zk5MTDoclP/Omm1iP9AXB+TgMxrhhjbF1xvRVJEDhJCbzPd99hP8t/k2ZEy7NntvkGTHO3mUI8wTKsv/rf2dWzLV3GcJzuPDZTgoGgwsXLkzVGyN9Pt8tt9wi8xWQQ4dYj/QFwfk4DMa4YY2xdcb0VWQ17+LFi+1eQ4o1Nze3traKxQWDwdNOO00s7pDc2d/KGP9DdyIe++z/uhIxexdjOa/PN+la/4W/cefaf2e+/PLL7733nljchAkTTj/9dLG4PoWFhVVVVZs2berp6RnMdYYPH75o0SKVT6G1nViP9AXB+TgMxrhhjbF1xvRVZCmFk9iOHTs2b94sFjd8+PApU6aIxR2O25vpLZmSUV6b6IzEo+/bvRxruD0ZZRf6f/Boxsl1Lo/oUwQPZ926dZ988olY3FlnnTV+/HixuP6+9a1vnXnmme+++240GjW7Qmlp6e233z527NjULgx9xHqkLwjOx2Ewxg1rjK0zpq8i6yicxL744ouNGzeKxbW3t8+YMcPttu2jSv25h43IOGVGRvlFid7OeNv7rriWn49lZGWcMtM/7aHM065wDzvO7tX8RywW++1vfyv5xI4LLrigpKRELO4geXl5U6dO9fl8W7dujcWO4Wj5/f65c+fOmzdP64OPnEOsR/qC4HwcBmPcsMbYOmP6KrKIO5FI2L2GFNu6dev8+fMlE++5556TTz5ZMvFoJPa3H9j2pwP/fjYW2eQ60G33coxkDPMGz8w45eKMsunuLBs+IjWw9957LxwOSyauWLGirKxMMvGQ2tvb165d29TUdMT/6woEAjU1NbW1tUPk9dQ5xHqkLwjOx2Ewxg1rjK0zpq+i1FI4ibW1tf34xz+WTLz00ktnz54tmXhsYj2xT/9PbNcbibYP4tHWROenif0did59rtig3r+bYl6fO3O4OyvPnTPKEyhzB8Z6T5jkHfVtl1f0G7SOyZNPPvnHP/5RMvGxxx6z5aEdhxSPx1taWrZs2dLa2rpz587Ozs6urq7s7Ozc3NxgMFheXh4KhSoqKjwehY8FShdiPdIXBOfjMBjjhjXG1hnTV1GqKHwoZEFBQW5uruTXfG3evNnRk5jX5w1O9gYn270ObbZs2SIZl5+f75wxzOVyeTyeUCgUCoWsDorFYi0tLZs3b25tbY1EIvv27Uu+fOfk5BQVFZWVlVVVVVVWVnq93nQJEpNIJBKJRDwej8fj/f/TLfmLsVjsoF8nCIMndh+JvQTpo++GFTt1YhXp+xuWG/ZwFP5MzOVy3XLLLc3NzWJxXq/3kUceKSgoEEuE7drb2y+77LJjeuvzIJ122mm33367WJwTRKPRdevWNTU1tbW1Dfw7CwoKpk6dWldXZ3YbigWJ0bd1+nqkDz1yPn03rL4gMfoqSlM6J7GHH374ueeek0y84ooramtrJRNhr2efffb3v/+9ZGJ9ff3ll18umWijnp6exsbGxsbGY3oGrs/nmz179owZMzIzj/bRmmJBYvRtnb4e6UOPnE/fDasvSIy+itKazkls/fr1q1atkkwsLS399a9/LZkIe82bN+/DDz+UTLz++uurq6slE+0SiUQaGhq2b99u9seLi4vD4fDo0aOdEyRG39bp65E+9Mj59N2w+oLE6Kso3Sl8ir3L5fJ6vc8//7xkYjQaPfPMMwOBgGQo7PL+++8/+eSTwqGXXnrpUHiaUEtLy8KFCz///HPjK3R0dLz44osnn3zyqFGjnBAkRt/W6euRPvTI+fTdsPqCxOirSAGdk1h+fv6f//znQX6397FKJBJnnHGGZCLs8vjjj7//vujXZ+fm5l522WUO+do66zQ3Ny9ZsqS7e7BfunDgwIHXXnutoqKisLDQ3iAx+rZOX4/0oUfOp++G1RckRl9FOuh8WKTb7T7llFOEQ9evX797927hUMj7/PPPN2zYIBw6fvx49WPYzp07ly1blqr/QOnp6Vm6dGkkErExSIy+rdPXI33okfPpu2H1BYnRV5EaOicxl8s1fvx44cRYLLZmzRrhUMh7+umnDxw4IBwqf56F9fT03H333V1dXSm85r59+xoaGnp7e20JEqNv6/T1SB965Hz6blh9QWL0VaSJ2kmsqqpKPvRvf/vbl19+KZ8LMV988cX69evlc205z5IaGxt37NiR8stu3779oP8fEQsSo2/r9PVIH3rkfPpuWH1BYvRVpInaSaysrEz+8Qa9vb1PPPGEcCgkPf744/L/AxQIBMaMGSMcKikajTY2Nlp08dWrV7e3twsHidG3dfp6pA89cj59N6y+IDH6KlJG7STmdrsnTpwon/vCCy+8++678rkQ8Pbbbzc1NcnnTpw4UfeHxNatW2fd83X279+/du1a4SAx+rZOX4/0oUfOp++G1RckRl9FyqidxFwuly2TWCKRePDBB2OxmHw0LHXgwIEHH3zQlu/fs+Uki4nFYlY/AWX9+vWxWEwsyNKI/vRtnb4e6UOPnE/fDasvyNKI/vRVpI/mSez000/3+XzyuTt27Hj22Wflc2GpZ5555uOPP5bPzcrK0j2JtbS0RKNRSyPa2treeecdsSBLI/rTt3X6eqQPPXI+fTesviBLI/rTV5E+miexYcOG2fVP2Mcff7y1tdWWaFhh27Zt8l/lnHTGGWf4/X5bomVs3rxZJkUsSCBFMkty6/T1SB965Hz6blh9QQIpklncsIORYfcCrHXOOef84x//kM/t7e296667Vq5cmZubK5+O1Ors7LTxUa1nn322Lblitm3bJpDS2toq8/YJyf+C0bd1+nqkj9ipE0jRilcG5wcJpCRxwzqf8kls0qRJfr9/8F8obmD37t2rVq365S9/qftZC+olEomVK1d+9tlntqRnZ2frfmuiy+X65JNPBFIikYjMZ/wkv+lS39bp65E+YqdOIEUrXhmcHySQksQN63ya353ocrmysrLOPfdcu9L/+c9/Pv3003alIyWeeuqpN954w670KVOm2PJZR0kdHR0CKXv37hULEkhJ0rd1+nqkDz1yPn03rL4ggZQkfRXpo3wSc7lc559/vo3pjz322F//+lcbF4DB2LBhw+OPP27jAs477zwb02VY93Td/rq7u8WCBFKS9G2dvh7pQ4+cT98Nqy9IICVJX0X66J/EysvLx44da1d6IpF46KGHXn31VbsWAGObNm1atWqVLY+tT7L36IqR+aGf3+8XCxJISdK3dfp6pA89cj59N6y+IIGUJH0V6aN/EnO5XBdccIGN6fF4fOXKlW+99ZaNa8CxevPNNxsaGuLxuI1rsPfcisnLyxNIyc3NFQsSSEnSt3X6eqQPPXI+fTesviCBlCR9FekzJCax6urqQCBg4wJ6e3tvv/32V155xcY14Oht3LjxzjvvPHDggI1rKCgomDJlio0LEFNUVCSQEgwGxYIEUpL0bZ2+HulDj5xP3w2rL0ggJUlfRfoMiUksMzPzwgsvtHcNBw4cuOeee5555hl7l4Ejeu655+6++26Zt1YPoLa2Vv2zOpLKysoEUsrLy8WCBFKS9G2dvh7pQ4+cT98Nqy9IICVJX0X6DIlJzOVyXXjhhba/jTWRSDz66KOPPPKIve95w+HE4/Hf/e53Dz/8sI2fDUsaNmzYtGnT7F2DmKqqKoGUUCgkFiSQkqRv6/T1SB965Hz6blh9QQIpSfoq0kf594n1yc3NveCCC5599lm7F+Jas2ZNa2vrDTfcMGLECLvXgv/2xRdf3HvvvW+//bbdC3G5XK7p06cPHz7c7lUIqaysDAQC0WjUuohAIFBRUZFIJGSCrLv+QfRtnb4e6SN26qy7vnq8Mjg/yLrrH4Qb1vmGys/EXC7XrFmzhg0bZvcqXC6Xq7m5+brrrnv99dftXgj+4/XXX7/uuuscMoZlZ2dffPHFdq9Cjtfrra6utjSipqbG4/GIBVka0Z++rdPXI33okfPpu2H1BVka0Z++ivQZQnuXl5dXW1tr9yr+o6OjY9myZb/5zW/27dtn91qGtM7OzoceemjZsmXO+V7C+vr6ofYYorq6Ous+FOf3+/tufLEgMfq2Tl+P9KFHzqfvhtUXJEZfRcoMoUnM5bB/4yYSib/85S8///nP169fb/sHk4agRCLxwgsvXHXVVc8//7xz9j8/P38IvqgVFBTMmjXLoovPmTMnPz9fOEiMvq3T1yN96JHz6bth9QWJ0VeRMkNrEhs+fPjcuXPtXsXXtLe3r1q1KhwOb9261e61DCHvvffe/Pnz77///vb2drvX8jU/+tGPsrOz7V6FDWbOnDlmzJiUX7a0tLS+vt6WIDH6tk5fj/ShR86n74bVFyRGX0WaDK1JzOVyTZs27aSTTrJ7FQfbunXr/PnzFyxY8Prrrzvn5zMqvfPOO3fccUc4HP73v/9t91oOVlpaet5559m9CntkZmaGw+HUTqE5OTnhcDgj42vPJRILEqNv6/T1SB965Hz6blh9QWL0VaSJd/HixXavQZTb7Q4Ggxs2bLB7IYfwxRdfvPzyy//617+ys7NPOOEEr9dr94r06Onp2bhx43333ffUU0/t2rXL7uUcgtvtDofDI0eOtHshtsnLyzv11FNfeeWVWCw2+Kv5fL7bbrtt7NixNgaJ0bd1+nqkDz1yPn03rL4gMfoqUmPITWIul2vkyJGRSGTHjh12L+TQ9uzZs3Hjxj/96U+7du3Kzs4uLCx0u912LypdJRKJLVu2PPXUU6tWrXrppZf27Nlj94oOq7q6egh+QuwghYWFVVVVmzZtGuQ3aw8fPnzRokUDPFdXLEiMvq3T1yN96JHz6bth9QWJ0VeRDu6h+V649vb2a665pqOjw+6FHNmIESNOO+20CRMmTJgw4fjjj7d7Oelh9+7dLS0tW7Zseeutt5w8ffUpKCh44IEHnPM4GXtFIpHly5d/8MEHZn+8tLQ0HA4XFRU5J0iMvq3T1yN96JHz6bth9QWJ0VdRuhuik5jL5XrppZfuvfdeu1dxbEaNGnXKKaeceOKJRUVFRUVFwWDQ7/fbvSj7dXd3RyKRXbt2RSKRSCSydevWTz/91O5FHZtwOHz22WfbvQoH6e3tXbNmzerVq/fv33/0f8rv98+ZM6e+vv7o37kuFiRG39bp65E+9Mj59N2w+oLE6KsorQ3dSczlci1dujTdv17Z///l5OT4/f4h8tGyWCzW3d3d2dn51Vdf7d+/v7u72+4VDcrkyZNvvvlmu1fhRO3t7WvXrm1qaopGowP/zkAgUFNTU1tba/Y4XbEgMfq2Tl+P9KFHzqfvhtUXJEZfRWlqSE9i7e3t8+bNO+IRBKwzYsSI++67Ly8vz+6FOFc8Hk++17S1tXXnzp2dnZ1dXV3Z2dm5ubnBYLC8vDwUClVUVHg8g30SrFiQGH1bp69H+tAj59N3w+oLEqOvorQzpH/CmJ+f/4tf/GLRokVDeRyFjdxu9/XXX88YNrBEIpFIJOLxeDwe73+rJn8xFosd9OvGPB5PKBQKhUKDv9TAYrFYS0vL5s2bW1tbI5HIvn37kn/z5eTkFBUVlZWVVVVVVVZWDv5H3GIVifVILEgfsVMn1iOxivTRd8OKvdaJBYnhRdV2Q/pnYkmPPvroM888Y/cqMBTNnj370ksvtXsVzhWNRtetW9fU1NTW1jbw7ywoKJg6dWpdXV1BQYHM2sxQkXFF+rZOjL4ecRiM0SP0oUcOwSTmisVit912W3Nzs90LwdBSVVW1ePFi/r/2kHp6ehobGxsbG4/pYbs+n2/27NkzZszIzMy0bm1mqCjJoCJ9WydGX484DMboEfrQI0dhEnO5XK69e/fecMMNn332md0LwVBx/PHHr1ixgg+/HlIkEmloaNi+fbvZHy8uLg6Hw6NHj07tqgaDig5y9BXp2zox+nrEYTBGj9CHHjnNUPxm52/KysoaN27c3//+95R89TgwMJ/Pd/vtt59wwgl2L8SJWlpaFi5c+PnnnxtfoaOj48UXXzz55JNHjRqVwoUZo6JvOsqK9G2dGH094jAYo0foQ48ciEnsP0aMGBEMBjdu3Gj3QqCc2+2eP39+VVWV3Qtxoubm5iVLlgz+awkOHDjw2muvVVRUFBYWpmRhxqjocI5Ykb6tE6OvRxwGY/QIfeiRMzGJ/beSkpKsrKy33nrL7oVAsyuuuKKmpsbuVTjRzp07b7311lR9O1wsFtu0adPkyZNtfDQlFQ1sgIr0bZ0YfT3iMBijR+hDjxyL7wf4mhkzZkyfPt3uVUCturq62tpau1fhRD09PXfffXdXV1cKr7lv376Ghobe3t4UXvPoUdHROGRF+rZOjL4ecRiM0SP0oUdOxs/EDjZx4sRPP/30ww8/tHsh0Ka6uvqqq65yu912L8SJnnrqqVdffTXll21ra/P5fBUVFSm/8hFR0VH6ZkX6tk6Mvh5xGIzRI/ShR07Gz8QOlvyy3XPOOcfuhUCVs84669prr2UMO6RoNNrY2GjRxVevXt3e3m7RxQ+Hio5J/4r0bZ0YfT3iMBijR+hDjxyOSewQPB7PDTfccMYZZ9i9EChx5plnzp8/n68OO5x169Yd07eaHJP9+/evXbvWoosfDhUdk/4V6ds6Mfp6xGEwRo/Qhx45HJPYoXm93pu9lvH7AAAJn0lEQVRvvrm6utruhSDtnXPOOQsWLGAMO5xYLLZhwwZLI9avXy/5BRVUZCBZkb6tE6OvRxwGY/QIfeiR8zGJHZbX6503b955551n90KQxs4///ybbrqJMWwALS0t0WjU0oi2trZ33nnH0oj+qMhAsiJ9WydGX484DMboEfrQI+djEhuIx+O55pprZsyYYfdCkJZmzZp19dVX89mwgW3evFlNimSWyor0bZ0YfT3iMBijR+hDj5wvw+4FOJ3b7b7sssuCweCDDz7Ij19xlLxe709/+tNp06bZvZA0sG3bNoGU1tZWgZQkKjLT2toq8xoruXVi9PWIw2BM32EQSNFK399H+jCJHZXvf//7hYWFv/rVr1L7bQxQadiwYeFweOLEiXYvJD188sknAimRSEQgJYmKzEQikUQiIRMkkCJMX484DMb0HQaBFK30/X2kD+9OPFpVVVXLly8/8cQT7V4IHK2kpGTFihWMYUevo6NDIGXv3r0CKUlUZGbv3r36tk6Mvh5xGIzRI/ShR87HJHYMiouLV6xYwVeN4XDOPffce+65JxgM2r2QdGLd03X76+7uFkhJoiIz3d3d+rZOjL4ecRiM0SP0oUfOxyR2bPx+//z586+44orMzEy71wIH8fl8P/vZz2666Sa/32/3WtKMz+cTSJHsCxWZ8fv9+rZOjL4ecRiM0SP0oUfOxyRmora2duXKlWPGjLF7IXCEkpKShoaG6dOn272QtJSXlyeQkpubK5CSREVmcnNz9W2dGH094jAYo0foQ4+cj0nMUElJyfLly3/wgx/wjPKhzO1219fXr1y5srS01O61pKuioiKBFMm3jFKRmWAwqG/rxOjrEYfBGD1CH3rkfExi5nw+35VXXnnXXXcVFxfbvRbYoKioaOnSpZdffjlvVR2MsrIygZTy8nKBlCQqMlNeXq5v68To6xGHwRg9Qh965HxMYoM1bty4VatW/eQnP+Gf40OH1+udOXPm/fffP2HCBLvXkvaqqqoEUkKhkEBKEhWZCYVC+rZOjL4ecRiM0SP0oUfOx/eJpUDy3+VnnXXWH/7wh9dee83u5cBakyZNuvLKK0eNGmX3QpSorKwMBALRaNS6iEAgUFFRYd31D0JFBpIVJRIJZVsnRl+POAzG9B0G666vnr6/j/ThZ2Ipc8IJJyxYsGDZsmV8ZEir0tLSO++889Zbb2UMSyGv11tdXW1pRE1Njccj91pHRQaSFenbOjH6esRhMEaP0IceOR97l2ITJkxYuXLlggUL+A5oTYqLi6+//voVK1ZUVlbavRaF6urqrHvSrt/vr62ttejih0NFx6R/Rfq2Toy+HnEYjNEj9KFHDuddvHix3WvQxu12l5SUTJs2bdSoUR999BFfPZ7WgsHglVdeefXVV5eWlvKcTIv4/f54PN7c3GzFxefOnfvtb3/biisPgIqOSf+K9G2dGH094jAYo0foQ48cjp+JWcXj8VRXVz/00EMLFy6U+cQkUmvcuHELFix44IEHvvvd7zKDWW3mzJlWfEFfaWlpfX19yi97NKjoKH2zIn1bJ0ZfjzgMxugR+tAjJ+NnYtZyu93BYLC6uvr000/v7e3dtWtXLBaze1EYiM/nmzJlyrXXXvvDH/6wpKSEGUyG1+sNhUIvvvhib29vqq6Zk5OzZMmS/Pz8VF3wmFDR0ThkRfq2Toy+HnEYjNEj9KFHTsYkJmTEiBGTJ0++6KKLRo4cGY1G9+zZY/eKcLDi4uKLL774xhtvnDJlynHHHWf3coacvLy8U0899ZVXXknJ/1b4fL7bbrtt7Nixg7+UMSoa2AAV6ds6Mfp6xGEwRo/Qhx45FpOYqMzMzLKysvPPP/973/vecccdt2fPno6ODrsXNdQVFxdPnz79qquuuuSSS8aPH5+VlWX3ioauwsLCqqqqTZs29fT0DOY6w4cPX7RokROeq0tFh3PEivRtnRh9PeIwGKNH6EOPnMmdSCTsXsOQ9tFHH73xxhtvvvnmu+++e+DAAbuXM1RkZGSMGzdu4sSJkyZNKi4utns5+JpIJLJ8+fIPPvjA7I+XlpaGw+GioqLUrmowqOggR1+Rvq0To69HHAZj9Ah96JHTMIk5RXd395YtW1paWt59993W1lY+TpZyGRkZZWVlp556amVlZSgU8vv9dq8Ih9Xb27tmzZrVq1fv37//6P+U3++fM2dOfX19RobjvrOeipIMKtK3dWL09YjDYIweoQ89chQmMSfq6enZtm3bBx98sGPHju3bt3/88cfd3d12Lyr9+P3+kpKSk046afTo0aWlpeXl5dZ9pQas0N7evnbt2qampmg0OvDvDAQCNTU1tbW1Dv/0MBUZV6Rv68To6xGHwRg9Qh965BBMYmkgkUh8+eWXu3fv/uyzz3bv3r1nz5729va9e/d2dHR89dVXXV1dLperu7t7SL25MTMzM/mBruzs7GHDhuXl5eXm5ubn5x933HGFhYUjR44sLCwcMWIETz5UIB6Pt7S0bNmypbW1defOnZ2dnV1dXdnZ2bm5ucFgsLy8PBQKVVRUeDxp850cVOT8IH309YjDYIweoQ89sh2TGAAAAABIY8YFAAAAAGlMYgAAAAAgjUkMAAAAAKQxiQEAAACANCYxAAAAAJDGJAYAAAAA0pjEAAAAAEAakxgAAAAASGMSAwAAAABpTGIAAAAAII1JDAAAAACkMYkBAAAAgDQmMQAAAACQxiQGAAAAANKYxAAAAABAGpMYAAAAAEhjEgMAAAAAaUxiAAAAACCNSQwAAAAApDGJAQAAAIA0JjEAAAAAkMYkBgAAAADSmMQAAAAAQBqTGAAAAABIYxIDAAAAAGlMYgAAAAAgjUkMAAAAAKQxiQEAAACANCYxAAAAAJDGJAYAAAAA0pjEAAAAAEAakxgAAAAASGMSAwAAAABpTGIAAAAAII1JDAAAAACkMYkBAAAAgDQmMQAAAACQxiQGAAAAANKYxAAAAABAGpMYAAAAAEhjEgMAAAAAaUxiAAAAACCNSQwAAAAApDGJAQAAAIA0JjEAAAAAkMYkBgAAAADSmMQAAAAAQBqTGAAAAABIYxIDAAAAAGlMYgAAAAAgjUkMAAAAAKQxiQEAAACANCYxAAAAAJDGJAYAAAAA0pjEAAAAAEAakxgAAAAASGMSAwAAAABpTGIAAAAAII1JDAAAAACkMYkBAAAAgDQmMQAAAACQxiQGAAAAANKYxAAAAABAGpMYAAAAAEhjEgMAAAAAaUxiAAAAACCNSQwAAAAApDGJAQAAAIA0JjEAAAAAkPb/AOp3KXOIs2a6AAAAAElFTkSuQmCC;" parent="1" vertex="1">
          <mxGeometry x="41.11" y="41.11" width="157.48" height="157.48" as="geometry" />
        </mxCell>
      </root>
    </mxGraphModel>
  </diagram>
</mxfile>
